<svg xmlns="http://www.w3.org/2000/svg" viewBox="0 0 1000 1000">
  <defs>
    <style>
      .a {
        fill: #d8d8d8;
      }

      .b {
        fill: #301f13;
      }

      .c {
        fill: #f0a800;
      }

      .d {
        fill: #ffd600;
      }

      .e {
        fill: #8d5103;
      }

      .f {
        fill: #fafafa;
      }

      .g {
        fill: #cecece;
      }

      .h {
        fill: #c4c4c4;
      }

      .i {
        fill: #bababa;
      }

      .j, .k, .l {
        fill: none;
        stroke: #000;
      }

      .j, .k {
        stroke-miterlimit: 10;
      }

      .j {
        stroke-width: 3px;
      }

      .k, .l {
        stroke-linecap: round;
        stroke-width: 2px;
      }

      .l {
        stroke-linejoin: round;
      }

      .m {
        fill: #f0f0c0;
      }
    </style>
  </defs>
  <g>
    <path class="a" d="M500,765.61a265.63,265.63,0,1,1,187.81-77.8A263.84,263.84,0,0,1,500,765.61Z"/>
    <path class="b" d="M500,713.84a213.85,213.85,0,1,1,151.2-62.63A212.48,212.48,0,0,1,500,713.84Z"/>
    <path class="a" d="M500,708.21a208.2,208.2,0,1,1,147.23-61A206.89,206.89,0,0,1,500,708.21Z"/>
    <path class="b" d="M500,762.23a262.21,262.21,0,1,1,185.43-76.8A260.57,260.57,0,0,1,500,762.23ZM500,240a260,260,0,1,0,183.84,76.15A258.25,258.25,0,0,0,500,240Z"/>
    <g>
      <g>
        <path class="c" d="M563.57,448.77l-5.17-2.66a15.66,15.66,0,0,0-10.83-1.34c-3.32.87-4.45,2.7-7.33,2.21a7.35,7.35,0,0,1-3.13-1.37c-1.37-1.06-1.48-2-3.12-4.75-1.42-2.38-2.12-3.57-3.25-4.38a7.7,7.7,0,0,0-5.25-1.37,7.89,7.89,0,0,0-4.5,2.37c-3.74,3.6-2.15,7.48-5.42,9.46-1.36.82-3.46,1.25-4.83.42-1-.61-.88-1.44-2.34-2.92-.87-.89-2-2.07-3.29-2s-1.37,1.32-3.37,3.29a9.94,9.94,0,0,1-4.38,3,7.16,7.16,0,0,1-5.45-.68,7.06,7.06,0,0,1-3.3-5.07,6.69,6.69,0,0,1,.54-3.37,9.07,9.07,0,0,0,.5-2.92,9.17,9.17,0,0,0-2-5.83c-2.5-2.87-6.53-2.68-8.58-2.59-1.42.07-6.13.28-8.83,3.59-2,2.46-.82,4.07-3.09,6.83-.41.5-2.73,3.33-6.16,3.67-2.46.24-3.32-1-7.42-1a20.43,20.43,0,0,0-3.21.25,19.38,19.38,0,0,0-8.62,2.83,28,28,0,0,0-4.5,3.67,15,15,0,0,1-3.63,3.12,12.1,12.1,0,0,1-1.5.75c.12,6.73.39,16.37,1,28,.66,12.45,1,18.68,2,26.13a247.47,247.47,0,0,0,6.83,33.16c2.86,10.83,5.88,20,7.21,24.09,3.87,11.73,6,16.53,8.38,26.87a83.32,83.32,0,0,1,2.5,17.38,101.52,101.52,0,0,1-.88,14,222.22,222.22,0,0,1-3.62,22A81.75,81.75,0,0,0,473.61,652a86.87,86.87,0,0,0,24.63,4,87.81,87.81,0,0,0,21.62-1.46A83,83,0,0,0,548,643.11c-.75-3.49-1.7-8.34-2.59-14.17-1.15-7.58-1.7-11.38-1.83-16.33-.23-8.76,1.17-15.41,2.67-22.5.39-1.88.34-1.45,4.5-17.17,2.6-9.84,2.68-10.23,4-15.17,2.58-9.64,3.42-12.39,5.16-18.83,3.27-12,4.9-18.07,6.21-24.46,2.23-10.88,2.74-19.84,3.75-37.75.42-7.31.85-17.2,1-29a8.81,8.81,0,0,1-7.29,1Z"/>
        <path class="d" d="M570.83,447.22a14.67,14.67,0,0,1-6.25.54,16.41,16.41,0,0,1-3-.74c-3.79-1.24-4-2.44-7-3.19a13.57,13.57,0,0,0-5.09-.3,18.54,18.54,0,0,0-4.47,1.27c-1.89.81-2.57,1.48-4.06,1.51a5.73,5.73,0,0,1-2.44-.53c-4.67-2-5-8.85-9.88-10.55a7.31,7.31,0,0,0-4.25-.09,8.29,8.29,0,0,0-4.81,4.34c-.23.51-.73,1.77-1.21,3a14.13,14.13,0,0,1-.69,1.68,6.3,6.3,0,0,1-3.44,2.4,5.14,5.14,0,0,1-2.56.38,4.6,4.6,0,0,1-2.22-1,6,6,0,0,1-1.29-1.46c-.93-1.32-.88-1.84-1.55-2.25a2.74,2.74,0,0,0-1.83-.27c-2.6.38-2.55,3.71-5.83,5.31a7.52,7.52,0,0,1-3.67.71A7.37,7.37,0,0,1,490.4,446a6.49,6.49,0,0,1-1.87-3.74,25.1,25.1,0,0,1,1-4.76h0c-.07,0,.4-3.5-.92-5.72-1-1.63-2.7-2.24-4.5-2.87a14.35,14.35,0,0,0-8.5-.24c-1.45.41-4,1.15-5.54,3.31a13,13,0,0,0-1.5,3.31c-.84,2.41-.57,2.82-1.32,3.76-1.22,1.57-3.1,1.83-3,2.49.06.33.58.49.83.57.66.2,1.54.06,3.17-1.06a9.18,9.18,0,0,0,1.22-1,23.74,23.74,0,0,1,2.06-1.93,5.82,5.82,0,0,1,3.47-.94,6.5,6.5,0,0,1,3.83,1,5.86,5.86,0,0,1,2.53,3.45,12.8,12.8,0,0,1,.06,2.87c0,.46-.07.6-.08.89a9.93,9.93,0,0,0,.53,3.55,11.27,11.27,0,0,0,4.25,5.14,13.08,13.08,0,0,0,7.46,2,14.28,14.28,0,0,0,5.92-1,11,11,0,0,1,1.87-.8,9.35,9.35,0,0,1,3.38-.41,6.73,6.73,0,0,1,2.66.63,14.53,14.53,0,0,1,1.6,1.06,12.68,12.68,0,0,0,2.7,1.23,18.46,18.46,0,0,0,3.91.83,14.56,14.56,0,0,1,3.34.38,4,4,0,0,1,2.16,1.29,3.79,3.79,0,0,1,.75,2.08,5.28,5.28,0,0,1-.27,2.17c-1.08,3.11-1.23,6.47-1.85,9.71,0,0-1.19,6.15-1.77,12.1l-.07.65c-.26,2.66-.39,3.78-.39,3.78-.12,1.14-.15,1.35-.31,3-.2,2.14-.3,3.21-.49,5.89a197,197,0,0,1-2.78,20.79c-.6,3-1.59,7.6-2,9.46-.5,2.31-.87,4-1.08,4.93-3.45,16.24-3.28,18.57-6.11,31.81a160.07,160.07,0,0,1-7,23.36c-2.79,7-5.33,11.67-6.5,20-1.08,7.58-.11,11.82,2,15.08a15.21,15.21,0,0,0,5.75,5.35,20.29,20.29,0,0,0,8.91,2c.68,0,2-.12,4.51-.19,1.15,0,2.23,0,2.86.68a2.08,2.08,0,0,1,.47,1.29c0,1.86-2.93,3.25-4.5,4.06a27.5,27.5,0,0,1-6.75,2.1,64.14,64.14,0,0,1-15,1.63h-.73a54.55,54.55,0,0,1-10.15-.8,31.39,31.39,0,0,1-4.46-1.28.66.66,0,0,0-.46,0,.46.46,0,0,0-.2.3c-.11.46,1.39,1.31,2.06,1.63,7.32,3.39,18.69,3.5,18.69,3.5a132.76,132.76,0,0,0,19.66-1.52c2.33-.38,4.31-.81,4.58-.87a86.93,86.93,0,0,0,9.26-2.54c10.92-3.64,18.22-6.07,18.62-10.24.08-.77-.17-.72-.79-3.21a51.8,51.8,0,0,1-1.21-9.88c-.4-6.65-.6-10-.16-13.91.18-1.68.58-3.71,1.37-7.71.43-2.15.84-4.23,1.37-6.7,0,0,.63-2.92,1.3-5.76,1.61-6.84,4.55-16,7.5-26,1.16-4,2.76-9.42,4.62-16.62.35-1.34,1.73-6.71,3.38-13.84.87-3.78,1.31-5.67,1.71-7.71a147.4,147.4,0,0,0,2.08-15.33c1.18-13,1.64-21.84,1.64-21.84C569.85,467.84,570.39,456.61,570.83,447.22Z"/>
        <path class="e" d="M466.11,642.36c-2.25-3-2-6.12-.54-19.25s2.34-19.29,1.92-25.5c-.32-4.63-1.06-9.29-1.06-9.29-.48-3-1-5.21-1.19-6.21-3.14-14.09-5.09-21-8.75-35.5a237.38,237.38,0,0,1-6.25-46.84,192.38,192.38,0,0,1,7.38-57.43,18.21,18.21,0,0,0-6.05-.86c-5.24.16-9.11,2.63-13,5.13a46.39,46.39,0,0,0-6.79,5.29c.13,5.59.37,13.62.87,23.29.9,17.1,1.34,25.65,3.13,36.87a252.65,252.65,0,0,0,6.08,27.59c3.62,13.33,7.25,23.71,7.25,23.71,1.6,4.57,3.09,8.49,5,15.12,2.1,7.14,3.1,11.88,3.34,13A101.73,101.73,0,0,1,459.7,606c.45,6.79-.13,11.71-1,18.84a176.62,176.62,0,0,1-3.25,18.75,80.88,80.88,0,0,0,26.16,11,85.85,85.85,0,0,0,19.67,2,95.06,95.06,0,0,0,19.83-2.13,90.33,90.33,0,0,0,27.5-11.08c-.41-1.49-.83-3-1.25-4.46a119.14,119.14,0,0,1-18.58,7.67c-7.23,2.29-16.61,5.18-29.08,5.16a71.73,71.73,0,0,1-24-4.16C469.19,645.49,467.33,644,466.11,642.36Z"/>
      </g>
      <path class="f" d="M573.39,418.15c2.78,1.94,8.3,1.25,11.09-2.4A9.32,9.32,0,0,0,583,403.32a11.24,11.24,0,0,0,2.73-7.31c-.12-5.34-4.63-9.27-8.73-10.69a14.33,14.33,0,0,0-11.12,1.09,10.16,10.16,0,0,0-.88-8.09c-2.71-4.49-7.91-4.72-8.27-4.73a8.87,8.87,0,0,0-.44-1.9,9.07,9.07,0,0,0-1.26-2.4l-1-1.4a10.47,10.47,0,0,0,2-5.57,10.57,10.57,0,0,0-1-5,11.61,11.61,0,0,0-5-5,14.72,14.72,0,0,0-7.26-2,15,15,0,0,0-14.8-9.5,12.23,12.23,0,0,0-1.48-3.4,14.31,14.31,0,0,0-6.18-5.1,21.27,21.27,0,0,0-18-.5,21.25,21.25,0,0,0-5.5,3.45,20.3,20.3,0,0,0-7.21-4.33,21.73,21.73,0,0,0-11.13-.54,22.58,22.58,0,0,0-8.83,3.17,21.7,21.7,0,0,0-7.24,7.65A15,15,0,0,0,448,346.32a15.26,15.26,0,0,0-3,12,22.22,22.22,0,0,0-7.64,1.95,17.67,17.67,0,0,0-6.83,5,16.33,16.33,0,0,0-3.34,7.17,15.7,15.7,0,0,0,1.09,8.92,19.85,19.85,0,0,0-1.84,1.08,15.73,15.73,0,0,0-2.21,1.64,10.81,10.81,0,0,0-2.23,3.24c-1.8,4,.1,9.08.28,9.54-.41.11-6.28,1.81-8,7.5a11.25,11.25,0,0,0,1,8.5c.46.84,2.86,5.28,7.75,5.75a9.83,9.83,0,0,0,7-2.29,19.27,19.27,0,0,1,4-7,22.58,22.58,0,0,1,7-5,50.64,50.64,0,0,1,8-3c2.69-.84,6.18-1.93,11-3,1.74-.38,6-1.28,12-2,5.2-.62,9.47-.74,18-1,12-.36,21.17-.11,25,0,5.29.16,10.94.36,17,1a108.68,108.68,0,0,1,17,3c8.16,2.17,11.69,4.21,13,5,3.17,1.94,5.94,3.63,8,7S571.38,416.74,573.39,418.15Z"/>
      <path class="f" d="M429.82,418.11a17.63,17.63,0,0,1,3.33-7.25c2.83-3.58,6.45-5.05,12.25-7.42a72.21,72.21,0,0,1,8.51-2.82,93,93,0,0,1,12-2.43,292.36,292.36,0,0,1,32.5-2.25c9.84-.23,15.46-.35,23.5.08a149.86,149.86,0,0,1,19.92,2.25c7,1.31,10.5,2,14.71,3.94a40.18,40.18,0,0,1,15,12.56c.23,1.71.51,3.46.58,5.26.16,4.39.08,12.31-.91,26.41a16.78,16.78,0,0,1-10,.67c-4.48-1.22-5.22-3.84-9.17-4.4-5.38-.78-6.85,3.71-11.25,3-6.17-1-6.32-10.36-12.67-11.17a9.52,9.52,0,0,0-8.5,3.75c-.93,1.44-.61,2.3-1.91,4.25-.64,1-2.53,3.79-4.92,3.92-3.21.18-4-4.79-7.25-4.83s-3.85,4.45-8.33,5.33c-2.48.49-5.71-.21-6.92-2.17s.55-3.61.25-7.58c-.05-.68-.37-4.87-2.85-7.27-3.85-3.72-12.59-2.83-17.32,1.44-4.12,3.71-3.07,8.07-7.16,10-3,1.42-5.85.09-8.59-.42-4.76-.89-12.1.14-23,9.5Z"/>
      <path class="g" d="M429,382.1a13,13,0,0,0-2.39,1.5,12.23,12.23,0,0,0-3.53,3.72,7.62,7.62,0,0,0-1,2.37,8.29,8.29,0,0,0,0,3.13,12.18,12.18,0,0,0,.63,2.59A2.46,2.46,0,0,1,423,397a2,2,0,0,1-.28.59,3.16,3.16,0,0,1-2.18.88c-1.15.21-1.88.87-3.17,2a9.18,9.18,0,0,0-2.77,5.6,10,10,0,0,0,.52,4.25,9.58,9.58,0,0,0,2.9,4.85,8.66,8.66,0,0,0,5,2,9.07,9.07,0,0,0,5.76-1.59l.87-2.84-.74,0a7.32,7.32,0,0,1-1.23-.43,8.43,8.43,0,0,1-1.45-.85,11.49,11.49,0,0,1-3.23-2.88,6.87,6.87,0,0,1-.94-2.25,5.08,5.08,0,0,1,.65-4.24,5.88,5.88,0,0,1,.79-1,14.82,14.82,0,0,1,1.75-1.38,5.18,5.18,0,0,0,1.08-1,2.83,2.83,0,0,0,.58-1.17,3.15,3.15,0,0,0-.37-1.79,13.4,13.4,0,0,1-.79-2.79,7.06,7.06,0,0,1,.12-2.58,7.34,7.34,0,0,1,1.21-2.59,9.73,9.73,0,0,1,2.21-2.16,16.51,16.51,0,0,1,2.54-1.59,18.44,18.44,0,0,1,4-1.45,19,19,0,0,1,4.71-.55,14.69,14.69,0,0,0-4.88-1.16A13.1,13.1,0,0,0,429,382.1Z"/>
      <path class="h" d="M450.67,360.87c-3.18-1.92-6.53-1.49-8.35-1.26a17.07,17.07,0,0,0-6.83,2.41c-1.27.79-7.22,4.46-7.83,11.16a13.38,13.38,0,0,0,1.39,7.05c.8-.25,1.69-.48,2.66-.69s2.1-.37,3-.47c-.33-.64-2.7-5.43-.42-10.21a12,12,0,0,1,6.17-5.59,15.4,15.4,0,0,1,6.83-1.25,19.09,19.09,0,0,1,5.86,1A10.22,10.22,0,0,0,450.67,360.87Z"/>
      <path class="h" d="M473.68,350.65a14.67,14.67,0,0,0-11.94-8.37c-.47,0-.95-.06-1.43-.06-8,0-14.57,6.29-14.57,14a12.36,12.36,0,0,0,.13,1.84,18.41,18.41,0,0,1,1.9.77,13.2,13.2,0,0,1,2.79-5.61,13.85,13.85,0,0,1,7.61-4.39A16.34,16.34,0,0,1,466,349a19.11,19.11,0,0,1,8.56,4.63A13.16,13.16,0,0,0,473.68,350.65Z"/>
      <path class="i" d="M476.72,331.69a20.55,20.55,0,0,0-9.64,3.92,17.88,17.88,0,0,0-4.63,5.58,16.25,16.25,0,0,1,2.41.54,16.92,16.92,0,0,1,2.75,1.13,17.36,17.36,0,0,1,2.77,1.75,13.8,13.8,0,0,1,5.5-5.19A15,15,0,0,1,486.29,338a13.22,13.22,0,0,1,6.47,3.74,11,11,0,0,1,1.68-3.92,11.85,11.85,0,0,1,1.4-1.68,14.81,14.81,0,0,0-4.7-3.33,18.56,18.56,0,0,0-6.21-1.45A29,29,0,0,0,476.72,331.69Z"/>
      <path class="h" d="M510.93,329.86a17.74,17.74,0,0,0-13,5.72,18.22,18.22,0,0,0-4.71,9.78q-.13.9-.18,1.8a8.12,8.12,0,0,0,0,.94,4.42,4.42,0,0,0,.75,2.17,15.93,15.93,0,0,1,5.33-8.25,16.83,16.83,0,0,1,10.67-3.33,22.33,22.33,0,0,1,13.07,4.05,16.9,16.9,0,0,1,4.51-2.05A18,18,0,0,0,510.93,329.86Z"/>
      <path class="g" d="M527.43,341.77c-.27,0-.53,0-.8,0a23.52,23.52,0,0,0-3,.44,14.86,14.86,0,0,0-7.93,4.36,11.46,11.46,0,0,0-2.41,5.83c.76-.67,7.11-6.08,14.83-4.29,1.36.32,5.68,1.29,8.25,5.21a11.43,11.43,0,0,1,1.79,5.41,12.43,12.43,0,0,1-2.79,8.54,13.66,13.66,0,0,0,4.09-3.16,12.17,12.17,0,0,0,1-1.34,12.52,12.52,0,0,0,2-9.26,13.23,13.23,0,0,0-.77-2.72A15.15,15.15,0,0,0,527.43,341.77Z"/>
      <path class="i" d="M544.53,351.61a8.88,8.88,0,0,0-.9.05l.15,1.17.21,1.86a7.84,7.84,0,0,1,4.83,8.83,18.29,18.29,0,0,1,6,3.84,15.44,15.44,0,0,0,.28-2.91C555.07,357.37,550.34,351.61,544.53,351.61Z"/>
      <path class="g" d="M584,392.52a10.37,10.37,0,0,0-4.5-4.87,12.8,12.8,0,0,0-5.53-1.9,13.24,13.24,0,0,0-4.12.25,14,14,0,0,0-3.1,1.06c-1.08.37-1.51.23-1.7,0-.6-.62.86-2.09.7-4.4a7.27,7.27,0,0,0-1.33-3.38,8.44,8.44,0,0,0-2.49-2.74,25.64,25.64,0,0,0-3.64-1.51c-1.55-.58-1.81-.63-2.21-1-.78-.71-.78-1.41-1.4-2.83a16.63,16.63,0,0,0-1.76-2.92,11.41,11.41,0,0,0-4.46-3.29c-4.79-1.85-9.39.92-9.92,1.25l-2,2.79c.33-.14.84-.33,1.46-.52a13.49,13.49,0,0,1,6.18-.5,9.3,9.3,0,0,1,3.75,1.32,8.61,8.61,0,0,1,2.69,2.68,8.74,8.74,0,0,1,1.19,3.07,6.2,6.2,0,0,0,1.94,2.29c1.86,1.31,3.07.44,5,1.61a6.82,6.82,0,0,1,3,4.49,10.68,10.68,0,0,1,.11,2.15,9.94,9.94,0,0,0-.12,1.91,4.27,4.27,0,0,0,.54,1.71c1,1.51,3.32,1.47,3.71,1.46,1.29,0,1.07-.45,2.91-.62a10.2,10.2,0,0,1,3.5.25l.62.17a8.86,8.86,0,0,1,4.72,3.58c.31.49,2.11,3.4,1.16,6.33-.65,2-2.06,2.38-1.85,3.63.27,1.63,2.74,1.58,3.62,3.75a4.65,4.65,0,0,1-.17,3.51c-1.08,2.23-4.44,3.44-8.1,2.44a5.14,5.14,0,0,0,2,3.67,8.43,8.43,0,0,0,5.05.29,7.44,7.44,0,0,0,4.24-2.72A7.3,7.3,0,0,0,585,411.4a8.46,8.46,0,0,0-1-4.88,8.74,8.74,0,0,0-1.5-2,2.63,2.63,0,0,1-.21-1.44c.14-.84.72-1.25,1.19-1.87a6.33,6.33,0,0,0,.94-3.16A10.35,10.35,0,0,0,584,392.52Z"/>
      <path class="a" d="M445,375.42c3.3-7,10.26-9.4,12.41-10.15,9.71-3.36,18.28.93,20,1.84a28.86,28.86,0,0,1,8.46-8.07A29.53,29.53,0,0,1,499,354.79a26.63,26.63,0,0,1,15.37,3.13c2.28,1.32,4.82,3.28,4.54,3.85-.13.29-1.69,0-4.79-.62-4.54-.9-5.1-1-5.87-1.13a31.15,31.15,0,0,0-6.71-.46,24.6,24.6,0,0,0-8.42,2.05,26.17,26.17,0,0,0-7.25,4.87c-1,1-3.13,3.12-3.87,3.88-2.18,2.22-2.12,2.22-2.38,2.37-2.59,1.5-5.27-1.06-10.37-2.12a20.43,20.43,0,0,0-10.75.5,19.28,19.28,0,0,0-8.75,6.34,26.34,26.34,0,0,0-3.88,7.16c-1.21,3.16-1.28,4.89-1.59,4.87C443.63,389.43,441.8,382.18,445,375.42Z"/>
      <path class="a" d="M529.87,379.66a10.67,10.67,0,0,0-9.63,8.18,7.49,7.49,0,0,0-.71,3.49,7.4,7.4,0,0,0,1,3.3,14.11,14.11,0,0,1,2.85-4.9,12.92,12.92,0,0,1,8.46-4.5,13.43,13.43,0,0,1,7,1.69,17.76,17.76,0,0,1,4.44,3,12.62,12.62,0,0,1,2.71,3.25,11.08,11.08,0,0,1,1.35,5.06,3.5,3.5,0,0,0,1.6-.94c.31-.31.69-.85,1.05-2.77a10,10,0,0,0,.27-4,7.94,7.94,0,0,0-1.4-3,19.38,19.38,0,0,0-5.73-5.31A20.82,20.82,0,0,0,529.87,379.66Z"/>
      <path class="a" d="M485.17,393.73c.28.46,1.17.45,2,.33a13.05,13.05,0,0,1,5.7-4.7c6.54-2.71,12.75,1.39,13.31,1.78a10.76,10.76,0,0,0-3.06-3.28,12.22,12.22,0,0,0-11.75-.82C487.52,388.77,484.5,392.62,485.17,393.73Z"/>
      <path class="a" d="M504.45,388.06a13,13,0,0,1,3.25,3.55,1,1,0,0,0,.39-.3,1.41,1.41,0,0,0,.15-1.16,4.08,4.08,0,0,0-.77-1.71c-.83-1.11-1.7-1.44-1.59-1.77s.77-.16.79-.31c.06-.32-2.66-1-4.52-.63-.15,0-.33.08-.37.21C501.63,386.37,503.22,387.16,504.45,388.06Z"/>
      <path class="a" d="M502.36,385.54l.81,2a9.76,9.76,0,0,1,6.69-.87,10.06,10.06,0,0,1,7.11,7.52c.32.14,1.18.49,1.48.17s0-.7-.08-1c-.59-1.7-.16-1.82-.7-3.43a9.9,9.9,0,0,0-2.75-4.52,9.36,9.36,0,0,0-6.29-2.21A10.11,10.11,0,0,0,502.36,385.54Z"/>
      <path class="a" d="M514.74,446.19c.8-.51.81-1.59,1.24-3.34a21,21,0,0,1,2-5.12,4.74,4.74,0,0,0-1.13.17,4.8,4.8,0,0,0-1.25.54c-1.74,1.05-2.39,2.6-3.24,2.49-.68-.08-1.2-.84-2.19-3.32-1.67-4.24-7-1.27-10,2.12s-6-.85-5.36-7.63-7-15.26-13.06-15.69-19.41,9.33-21.76,15.27-8,2.54-13.39,2.54-6.36-9.75-4.69-15.26,9.71-7.21,16.74-7.21c9.76,0,6.59-5.62,13.4-8.06,10.07-3.61,22.88-2.85,26.86-2a5.88,5.88,0,0,0,1.57.16c3-.12,5.51-2.7,7.34-5.43l-2.91,0-3.32,0h-.14l-3.32,0c-7.43,0-14.66.31-21.47.93-23.12,2.09-38.74,9.16-43.16,13.12a9.58,9.58,0,0,0-2.69,3.43c-.48,3.43-.84,7.1-1,11a121.07,121.07,0,0,0,1.52,25.48,30.09,30.09,0,0,1,5.25-4.79,30.55,30.55,0,0,1,15.54-5.75c7.07-.48,8.54,2.17,11.59.33,4-2.43,2.23-7.52,7.12-11.29a13.59,13.59,0,0,1,8-2.59c.82,0,8-.29,10.88,4.13,1.68,2.6,1.8,6.74,1.37,9.42-.14.84-.67,3.68.32,5.8a3.55,3.55,0,0,0,1.11,1.4,3.87,3.87,0,0,0,2.48.71c2.29,0,3-2.13,6.09-4,1.36-.84,4.28-2.65,6.81-1.64a5.77,5.77,0,0,1,2.94,3.31C512.05,446.12,513.7,446.85,514.74,446.19Z"/>
      <path class="b" d="M454.74,645.27a102.29,102.29,0,0,0,11.33,5.34,88.41,88.41,0,0,0,58.17,3.66,94.93,94.93,0,0,0,24-10.16c.89,2.75,1.54,5.09,2,6.83a27.78,27.78,0,0,1,1,5,19.1,19.1,0,0,1-.34,5.33,34.22,34.22,0,0,1-7.5,8.5c-6.13,5-12.31,6.38-19.83,8-9.59,2.07-17,2-24.5,2-12.13,0-18.79-1.55-20.67-2a68.93,68.93,0,0,1-11.83-4,35.5,35.5,0,0,1-8.33-4.66,30.89,30.89,0,0,1-5.84-6,40.87,40.87,0,0,1,.5-11.17A40.09,40.09,0,0,1,454.74,645.27Z"/>
      <g>
        <path d="M428.86,443.86c.1,1.84.17,3.7.41,5.54a3.34,3.34,0,0,0,1.21,2.63c1.87,1.12,3.8-.9,5-2.06,5-4.66,11.07-8.26,18.14-8,3.78.13,7.36,2.07,11,.3a7.37,7.37,0,0,0,3.63-4.16c.64-1.65.83-3.44,1.75-5,1.48-2.48,4.52-3.63,7.23-4.11a13.71,13.71,0,0,1,8.25.84c3.1,1.52,4.1,5.19,3.55,8.44-.24,1.35-.9,2.58-1,3.95a6.3,6.3,0,0,0,1.52,4.48,7.8,7.8,0,0,0,9,2.25,8.82,8.82,0,0,0,3.85-3.43c.78-1.13,2.66-3.54,4.12-2.08,1.15,1.16,1.59,2.83,2.93,3.88a5.09,5.09,0,0,0,5.11.44,6.58,6.58,0,0,0,3.61-3.19c.68-1.48.89-3.07,1.71-4.5,1.65-2.93,4.37-5.36,8-4.35,2.58.72,4.3,2.83,5.46,5.13,1.28,2.57,3.15,5.68,6.08,6.58s5.13-1.39,7.73-2.19a11.71,11.71,0,0,1,9.7.79c3,1.79,5.77,3.28,9.34,3.28a18.3,18.3,0,0,0,6.07-1.15,1.58,1.58,0,0,0,1.1-1.44c.67-8.48,1.31-17,.68-25.48a25.31,25.31,0,0,0-2-9.34,19.4,19.4,0,0,0-7.72-7.91A50.26,50.26,0,0,0,554,399a89,89,0,0,0-12.58-3,180.26,180.26,0,0,0-21.38-2.3,306.9,306.9,0,0,0-41.91.38,132.87,132.87,0,0,0-19.94,3c-6.49,1.54-13.14,3.36-19,6.55a24.38,24.38,0,0,0-7.78,6.41,15.88,15.88,0,0,0-3.31,9.23c-.36,7.16.4,14.39.7,21.54,0,1,.09,2,.14,3,.11,1.92,3.11,1.93,3,0-.32-5.84-.64-11.69-.86-17.54-.12-3.31-.43-7.06.51-10.28a15.55,15.55,0,0,1,5.46-7.43c5.07-4,11.74-5.88,17.87-7.54a121.34,121.34,0,0,1,17.85-3.38,272.65,272.65,0,0,1,39.49-1.24c7.07.22,14.15.58,21.17,1.45,4.22.52,8.42,1.24,12.58,2.13a53.2,53.2,0,0,1,11,3.36,36.57,36.57,0,0,1,9.18,5.57,14.18,14.18,0,0,1,4.54,8.33c1.33,7.54.7,15.43.21,23-.14,2.14-.29,4.29-.46,6.43l1.1-1.45c-3.42,1.21-7.07,1.53-10.38-.19-1.4-.73-2.66-1.72-4.09-2.39a12.37,12.37,0,0,0-5.62-1.14,20,20,0,0,0-9.19,2.7,2.32,2.32,0,0,1-2.1.24,6.92,6.92,0,0,1-2.74-2.68c-1.56-2.33-2.45-4.89-4.64-6.77a9.55,9.55,0,0,0-9.74-1.94c-3.06,1.24-5.24,4.15-6.47,7.14-.48,1.17-.58,2.72-1.43,3.69s-3,1.94-4.08.72-1.58-2.86-2.95-3.88a4.48,4.48,0,0,0-5.05,0c-3,1.8-4.08,6.65-8.36,5.71a5,5,0,0,1-3-2.12,3.54,3.54,0,0,1-.13-3.37,12.77,12.77,0,0,0-.87-10.6c-3.12-5-10.72-5.36-15.82-3.88a12.47,12.47,0,0,0-7.08,4.75c-1.89,2.83-1.4,7.84-5.45,8.67-1.72.35-3.21-.26-4.87-.57a23.17,23.17,0,0,0-5-.42,25.88,25.88,0,0,0-10.53,2.71,34.13,34.13,0,0,0-8.22,5.94c-.7.65-1.39,1.2-2.05,1.73-.14.11,0-.06.11,0-.18-.09.38.21.47.28s.17.26.17.11a5.94,5.94,0,0,0-.14-.71c-.24-1.7-.26-3.45-.36-5.16C431.76,441.94,428.75,441.92,428.86,443.86Z"/>
        <g>
          <path class="j" d="M490.3,396c3.51-.15,6.47-.23,8.31-.28l3.13-.07c6.18-.11,10-.18,15,0,3.11.12,8.27.32,15,1.18a142.2,142.2,0,0,1,18,3.52,50.49,50.49,0,0,1,10,3.53,25.86,25.86,0,0,1,7,4.7,24.41,24.41,0,0,1,3,3.52,19,19,0,0,1,1.83,3.14c.9,2.07,1,4,1.17,7.44.21,5.09,0,8.22,0,8.22,0,5.46-.67,10.77-.8,16.78,0,0-.07,1.74-.23,5.13-.14,3.12-.5,11.6-1,20.39-.52,9.57-.92,16.82-1.49,23.34s-1.31,12.3-2.51,19c-.36,2-.72,3.79-1.1,5.6-1,4.5-1.85,7.91-2.36,9.81-6.36,23.93-6.86,25.71-7.54,28.07-3,10.15-3.18,10.15-4.84,16.46,0,0-1.73,6.59-4.16,17.61-.09.38-.24,1.07-.42,2-.35,1.78-.69,3.82-1,6.09a84.5,84.5,0,0,0-.61,10.73,87.53,87.53,0,0,0,.67,10.27c.38,3.11.87,5.92,1.33,8.53.07.44.14.85.24,1.43s.22,1.31.41,2.39c.06.37.28,1.66.51,3s.48,2.82.6,3.5c.57,3.4.86,5.09.88,5.17.5,2.57,1.18,5.29,1.9,8.14a12.52,12.52,0,0,1,.46,4.53,11,11,0,0,1-.47,2.21,11.92,11.92,0,0,1-1.16,2.55,19.27,19.27,0,0,1-3.62,4.37,31.91,31.91,0,0,1-6.34,4.55,30.71,30.71,0,0,1-3.41,1.59,54.18,54.18,0,0,1-9.57,3.07c-3.37.79-6.8,1.36-9.9,1.78s-5.88.66-7.93.81-3.38.21-3.6.22c0,0-.85,0-1.71,0-9.07.17-11.92.06-11.92.06a74.5,74.5,0,0,1-13.62-1.88,68.18,68.18,0,0,1-11.1-3.57c-1.92-.83-3.21-1.52-5.33-2.66a40.73,40.73,0,0,1-7.15-4.7,9.9,9.9,0,0,1-1.51-1.56,9.54,9.54,0,0,1-1.66-3.37,14.92,14.92,0,0,1,0-7c1.28-6,2.48-10.32,3-12.88.82-3.94,1.47-7.5,2-10.62.36-2.17,1-6.5,1.5-11.35a92.31,92.31,0,0,0,.5-14.49c-.13-1.73-.3-3.31-.47-4.69s-.37-2.58-.53-3.54c-.09-.61-.22-1.44-.38-2.43s-.37-2.16-.62-3.44c-.4-2-1-4.61-1.92-8.08s-2.31-7.84-4.27-13.42c-.67-1.88-.63-1.67-1.39-3.84-.35-1-1.83-5.16-3.59-10.77-1.19-3.79-5-16-7.83-28.52-1.13-5-2-9.54-2.1-10.23-.34-1.79-.66-3.65-1-5.63-.47-3-.78-5.3-.92-6.46-.58-4.59-.87-8.23-1-10.07-1.18-15.89-1.5-26.5-1.5-26.5s-1-32.36-1.5-37.46a2,2,0,0,1,0-.31c-.08-.77-.23-2.52-.29-4.83,0-.4,0-.79,0-1.24a61.41,61.41,0,0,1,.5-7.75,9.24,9.24,0,0,1,.34-1.75,9,9,0,0,1,2.33-3.83A25.5,25.5,0,0,1,435.9,408a29,29,0,0,1,4.17-2.66,46.84,46.84,0,0,1,6.67-2.75c2.08-.76,3.7-1.36,6-2,2.09-.59,3.63-.93,6-1.43,0,0,3.19-.69,6-1.18C471.71,396.79,479.82,396.44,490.3,396Z"/>
          <g>
            <path d="M572.64,419.45c4.09,2.7,10.18.91,13-2.79,3.38-4.41,2.3-10.73-1.64-14.4v2.13a12.87,12.87,0,0,0,3.17-8.38,12.51,12.51,0,0,0-4.44-9,15.47,15.47,0,0,0-17.66-1.91l2.2,1.69a11.35,11.35,0,0,0-2.8-11.45,12.1,12.1,0,0,0-7.8-3.27l1.45,1.1a13.45,13.45,0,0,0-2.87-6.06v1.51a11.87,11.87,0,0,0,0-13.75c-2.84-3.87-7.84-5.94-12.53-6l1.44,1.1a16.76,16.76,0,0,0-16.24-10.6l1.45,1.1c-2-7-9-10.8-15.81-11.67a23,23,0,0,0-17.86,5.46h2.12a21.6,21.6,0,0,0-9.7-5.23,26.13,26.13,0,0,0-10.46,0A23.43,23.43,0,0,0,461,340.51l1.69-.69a16.09,16.09,0,0,0-19.22,18.9l1.45-1.9c-6.54.52-13.27,3.53-16.86,9.21a17.19,17.19,0,0,0-1.16,16.08l.54-2.05c-3.26,1.76-6.05,4-7.26,7.61a14.8,14.8,0,0,0,.57,9.58l1-1.84a12.9,12.9,0,0,0-9.49,10.93c-.51,5.32,2.89,11.18,7.9,13.14a10.59,10.59,0,0,0,9.62-1.23,7,7,0,0,0,1.11-.83,6.21,6.21,0,0,0,.9-2,17.36,17.36,0,0,1,3.14-5c4.1-4.56,10.26-6.37,15.9-8.11a118.45,118.45,0,0,1,20.32-4.37,213.71,213.71,0,0,1,21.62-1.16q10.38-.24,20.75,0a212.41,212.41,0,0,1,22.55,1.53c7.47,1,15.25,2.6,22.13,5.76a40.13,40.13,0,0,1,5.68,3.29,15.9,15.9,0,0,1,4.12,3.85,16.94,16.94,0,0,1,2.22,4.83,6.43,6.43,0,0,0,2.33,3.4c1.54,1.16,3-1.45,1.51-2.59-.94-.7-1.08-2.15-1.45-3.18a16.81,16.81,0,0,0-2.85-5.07,27.1,27.1,0,0,0-7.59-5.85c-5.34-3.12-11.67-4.74-17.67-6-13.37-2.84-27.25-3.06-40.87-3.1-14.38-.05-29,.05-43.12,3a102.73,102.73,0,0,0-18.73,5.61c-5.82,2.46-11.21,6.78-13.14,13,0,.13-.11.26-.14.39.08-.32.28-.19.12-.27,0,0-.12.09-.26.19a9.8,9.8,0,0,1-1.83,1,7.39,7.39,0,0,1-4.95.22,9.18,9.18,0,0,1-5-4.46,9.59,9.59,0,0,1-.65-8.53,10.32,10.32,0,0,1,5.31-5,8.75,8.75,0,0,1,1.31-.48,1.5,1.5,0,0,0,1-1.84,12.47,12.47,0,0,1-.68-7.62c.86-3.06,3.34-4.75,6-6.19a1.54,1.54,0,0,0,.54-2,14.12,14.12,0,0,1,1.16-13.05c3-4.73,8.84-7.3,14.27-7.73a1.52,1.52,0,0,0,1.44-1.89,7.86,7.86,0,0,1-.13-1.15,16.7,16.7,0,0,1,0-2.45,13,13,0,0,1,2.42-6.55,13.56,13.56,0,0,1,13.21-5.07,1.57,1.57,0,0,0,1.7-.69,20.48,20.48,0,0,1,14.56-10,22.74,22.74,0,0,1,8.89-.13,18.55,18.55,0,0,1,8.6,4.52,1.55,1.55,0,0,0,2.12,0,20.06,20.06,0,0,1,15.06-4.67c5.67.57,12,3.73,13.6,9.54a1.53,1.53,0,0,0,1.44,1.11,13.83,13.83,0,0,1,8.65,2.48,13.21,13.21,0,0,1,3.34,3.41,17.32,17.32,0,0,1,1.36,2.5,1.57,1.57,0,0,0,1.45,1.11c3.63.07,7.65,1.61,9.95,4.55a9,9,0,0,1,0,10.72,1.42,1.42,0,0,0,0,1.51,11.54,11.54,0,0,1,2.56,5.35,1.5,1.5,0,0,0,1.45,1.1,9.44,9.44,0,0,1,5.44,2.17A8.35,8.35,0,0,1,564.4,386a1.51,1.51,0,0,0,2.2,1.69,12.36,12.36,0,0,1,13.76,1.22,8.93,8.93,0,0,1,1.53,13.33,1.55,1.55,0,0,0,0,2.13c2.85,2.65,3.9,7.18,1.41,10.45-2,2.58-6.3,3.9-9.15,2C572.54,415.79,571,418.39,572.64,419.45Z"/>
            <path d="M554.81,367.75c-3.79-5.69-11.76-6.38-17.27-2.87-1.21.78-.09,2.73,1.14,1.95,4.42-2.82,11.06-2.63,14.19,2.05.8,1.2,2.75.08,1.94-1.13Z"/>
            <path d="M519.53,360.06a28.8,28.8,0,0,0-20-6.5,32.84,32.84,0,0,0-19.17,8.25,15.85,15.85,0,0,0-2.5,2.61c-.32.45-.32.72-.93.58a17.14,17.14,0,0,1-2.73-1.32,19.54,19.54,0,0,0-8.86-1.35,29.41,29.41,0,0,0-17.63,7.56,19.15,19.15,0,0,0-5.58,19.57,1.13,1.13,0,0,0,2.17-.59A16.76,16.76,0,0,1,448.72,372a26.83,26.83,0,0,1,16.38-7.43,17.3,17.3,0,0,1,8.28,1.17c1.31.59,2.84,1.82,4.37,1.54,1.14-.21,1.51-1.08,2.16-1.89a24.88,24.88,0,0,1,6.5-5.27,29.63,29.63,0,0,1,9.38-3.82,26.55,26.55,0,0,1,22.15,5.32c1.12.9,2.72-.68,1.59-1.59Z"/>
            <path d="M537,368.73c3.16-3.35,6.62-7.64,7.14-12.38a14.24,14.24,0,0,0-4.47-11.73c-6-6-16.59-5.91-23.15-.89a13.49,13.49,0,0,0-5.15,13.55c.28,1.42,2.45.82,2.17-.6a11.16,11.16,0,0,1,3.95-10.87,15.77,15.77,0,0,1,9.81-3.46c3.54-.09,7.09.64,9.84,3a12.69,12.69,0,0,1,4.83,9.29c.1,4.85-3.41,9.16-6.57,12.51-1,1.05.6,2.64,1.6,1.59Z"/>
            <path d="M494.82,354.31a17.47,17.47,0,0,1,2.88-17.82c.95-1.09-.63-2.68-1.59-1.6a19.68,19.68,0,0,0-3.46,20c.51,1.34,2.69.76,2.17-.6Z"/>
            <path d="M474.71,365.17a17.3,17.3,0,0,0,1-14.65c-2.28-5.59-7.69-9.16-13.54-10.06-1.42-.22-2,2-.6,2.17,5.17.79,10.14,3.78,12.1,8.82a15.12,15.12,0,0,1-.86,12.59c-.7,1.27,1.24,2.41,1.94,1.13Z"/>
            <path d="M454.37,361.14a12.48,12.48,0,0,0-10.07-3.53,1.13,1.13,0,1,0,0,2.25,11.24,11.24,0,0,1,5.26.71l.23.09,0,0,.36.17c.24.12.47.24.7.38a9.73,9.73,0,0,1,1.88,1.51c1,1,2.61-.56,1.6-1.6Z"/>
            <path d="M443.18,381.05a15.75,15.75,0,0,0-16.3.21c-1.23.77-.1,2.72,1.13,1.94a13.51,13.51,0,0,1,14-.21,1.13,1.13,0,0,0,1.14-1.94Z"/>
            <path class="k" d="M548.24,399.11a11.07,11.07,0,0,0,2.28-6.95c-.32-7.76-10.2-11.65-11.28-12.05a16.94,16.94,0,0,0-9-1,13.3,13.3,0,0,0-6.8,2.92c-3.5,3-4.48,8.36-4.2,11.08,0,0,.08.81,0,.83s-.27-4.66-3-7.83a10,10,0,0,0-15,0"/>
            <path class="l" d="M484.24,395.11a11.2,11.2,0,0,1,8.11-8.94,14.4,14.4,0,0,1,10.83,1.12,13,13,0,0,1,4.06,3.82"/>
          </g>
        </g>
      </g>
      <g>
        <path class="m" d="M531.91,614.75c-2,0-3.72,1.38-3.72,3.08s1.67,3.08,3.72,3.08,3.72-1.38,3.72-3.08S534,614.75,531.91,614.75Z"/>
        <path d="M531.91,612.84c-3.1,0-5.63,2.24-5.63,5s2.53,5,5.63,5,5.63-2.24,5.63-5S535,612.84,531.91,612.84Zm0,8.07c-2,0-3.72-1.38-3.72-3.08s1.67-3.08,3.72-3.08,3.72,1.38,3.72,3.08S534,620.91,531.91,620.91Z"/>
        <path d="M535,458.82c-1.54,0-2.66.76-2.66,1.81s1.12,1.8,2.66,1.8,2.65-.76,2.65-1.8S536.53,458.82,535,458.82Z"/>
        <path class="m" d="M542.35,475.07a1.4,1.4,0,0,0,.47,1,1.42,1.42,0,0,0,0-2.09A1.41,1.41,0,0,0,542.35,475.07Z"/>
        <path d="M542.73,472.23a2.48,2.48,0,1,0,2,2.44A2.23,2.23,0,0,0,542.73,472.23Zm0,2.89a.82.82,0,0,1-.11-.45.89.89,0,0,1,.11-.46,1,1,0,0,1,.1.46A.93.93,0,0,1,542.73,475.12Z"/>
        <g>
          <path class="m" d="M551.89,488.55a1.6,1.6,0,1,0,1.59,1.59A1.6,1.6,0,0,0,551.89,488.55Z"/>
          <path d="M551.89,486.64a3.51,3.51,0,1,0,3.5,3.5A3.51,3.51,0,0,0,551.89,486.64Zm0,5.1a1.6,1.6,0,1,1,0-3.19,1.6,1.6,0,0,1,0,3.19Z"/>
        </g>
        <g>
          <path class="m" d="M530.59,505.69a4.22,4.22,0,1,0,4.2-4.67A4.47,4.47,0,0,0,530.59,505.69Z"/>
          <path d="M534.9,511.92c2.87,0,5.21-2.81,5.21-6.27s-2.34-6.26-5.21-6.26-5.22,2.81-5.22,6.26S532,511.92,534.9,511.92Zm3.5-6.27c0,2.41-1.57,4.36-3.5,4.36s-3.51-1.95-3.51-4.36,1.57-4.35,3.51-4.35S538.4,503.25,538.4,505.65Z"/>
        </g>
        <path class="m" d="M539.75,524.08a.92.92,0,0,0,.45.11.24.24,0,1,0,0-.22A.92.92,0,0,0,539.75,524.08Z"/>
        <path d="M540.2,522.06a2.06,2.06,0,1,0,2.44,2A2.24,2.24,0,0,0,540.2,522.06Zm0,2.13a.24.24,0,1,1,0-.22.24.24,0,1,1,0,.22Z"/>
        <path class="m" d="M542.68,543.44a3.5,3.5,0,1,0-3.49,3.59A3.74,3.74,0,0,0,542.68,543.44Z"/>
        <path class="m" d="M525.75,562.8c-.75,0-1.38.44-1.38,1s.63,1,1.38,1,1.38-.44,1.38-1S526.5,562.8,525.75,562.8Z"/>
        <path d="M529,563.75a3.32,3.32,0,1,0-3.29,2.87A3.1,3.1,0,0,0,529,563.75Zm-3.29,1c-.75,0-1.38-.44-1.38-1s.63-1,1.38-1,1.38.44,1.38,1S526.5,564.71,525.75,564.71Z"/>
        <path class="m" d="M533,580.86a.53.53,0,1,0-.54-.53A.53.53,0,0,0,533,580.86Z"/>
        <path d="M530.53,580.33a2.45,2.45,0,1,0,2.45-2.44A2.45,2.45,0,0,0,530.53,580.33Zm2.45-.53a.53.53,0,1,1-.54.53A.53.53,0,0,1,533,579.8Z"/>
        <path class="m" d="M520,598.82c-.3,0-.74.54-.74,1.38s.44,1.39.74,1.39.75-.54.75-1.39S520.32,598.82,520,598.82Z"/>
        <path d="M520,596.91c-1.49,0-2.65,1.45-2.65,3.29s1.16,3.3,2.65,3.3,2.66-1.45,2.66-3.3S521.5,596.91,520,596.91Zm0,4.68c-.3,0-.74-.54-.74-1.39s.44-1.38.74-1.38.75.54.75,1.38S520.32,601.59,520,601.59Z"/>
        <path class="m" d="M558.41,464.12c-1.2,0-2.17.72-2.17,1.6s1,1.59,2.17,1.59,2.17-.72,2.17-1.59S559.61,464.12,558.41,464.12Z"/>
        <path d="M561.84,465.9a3.32,3.32,0,1,0-3.29,2.87A3.1,3.1,0,0,0,561.84,465.9Zm-3.29,1c-.75,0-1.38-.44-1.38-1s.63-.95,1.38-.95,1.38.43,1.38.95S559.3,466.86,558.55,466.86Z"/>
        <path d="M534.61,543.48c0,3,1.93,5.38,4.31,5.38s4.32-2.42,4.32-5.38-1.94-5.37-4.32-5.37S534.61,540.52,534.61,543.48Zm7,0c0,2-1.19,3.55-2.66,3.55s-2.66-1.59-2.66-3.55,1.19-3.55,2.66-3.55S541.58,541.52,541.58,543.48Z"/>
      </g>
      <path class="j" d="M549,643.61a90,90,0,0,1-94,.75"/>
    </g>
    <g>
      <path d="M200.17,530V473.48l6.91.08c1.29,0,2.6-.05,3.93-.14l4.32-.26c1.54-.09,3.28-.14,5.2-.14a37.29,37.29,0,0,1,12.66,1.77,12.56,12.56,0,0,1,9.08,12.75,16.24,16.24,0,0,1-.93,5.57,11.62,11.62,0,0,1-2.83,4.41,11.09,11.09,0,0,1-4.75,2.64,14,14,0,0,1,5.87,2.09,12.05,12.05,0,0,1,4.1,4.38,12.83,12.83,0,0,1,1.5,6.29,19.22,19.22,0,0,1-2.09,9.14,14.14,14.14,0,0,1-7.18,6.23c-3.39,1.51-8.11,2.27-14.13,2.27q-3.92,0-8-.21l-6.48-.33Zm14.05-33.51c.31.05.7.09,1.18.13l1.54.1,1.54.05c.48,0,.89,0,1.22,0q4.52,0,6.78-1.76t2.26-6.22q0-3.52-2.49-4.92a15,15,0,0,0-7.16-1.39l-1.56,0c-.68,0-1.35.07-2,.14a3.74,3.74,0,0,0-1.32.28Zm0,23.94a4.91,4.91,0,0,0,1.72.49,25,25,0,0,0,2.64.27c.95,0,1.8.07,2.56.07q4.86,0,7.26-1.91c1.6-1.28,2.39-3.41,2.39-6.37a6.7,6.7,0,0,0-2.37-5.55c-1.59-1.26-4.16-1.9-7.73-1.9l-1.64,0-1.94.06c-.66,0-1.24.06-1.76.09a9.15,9.15,0,0,0-1.13.14Z"/>
      <path d="M254.13,530V473.56h35.71v10.56H268.18v11.93H284.9v10.26H268.18v12.92h23.87V530Z"/>
      <path d="M300.94,530V473.56h35.72v10.56H315v11.93h16.72v10.26H315v12.92h23.86V530Z"/>
      <path d="M361.89,530H347.76V473.56h4.86c2,0,4.36-.1,7-.31s6-.3,10-.3a34.28,34.28,0,0,1,7.45.82,20.34,20.34,0,0,1,6.8,2.81,14.46,14.46,0,0,1,4.94,5.49,18.51,18.51,0,0,1,1.87,8.81,20.75,20.75,0,0,1-1.92,9.52,14.08,14.08,0,0,1-5.3,5.78,21.39,21.39,0,0,1-7.83,2.72l-3,.53a39,39,0,0,1-3.93.44q-2.44.17-6.86.17Zm0-29.79c.51.08,1.19.14,2.05.19s1.74.08,2.63.1l2.24,0q4.33,0,6.31-2.76a11.2,11.2,0,0,0,2-6.67,10.64,10.64,0,0,0-.74-4,6.17,6.17,0,0,0-2.73-3.06,11.43,11.43,0,0,0-5.72-1.18,27.24,27.24,0,0,0-3.1.18,20,20,0,0,0-2.91.51Zm17,29.79a7.43,7.43,0,0,1-.86-1.38c-.27-.55-.66-1.43-1.2-2.64a55.28,55.28,0,0,1-2.05-5.34q-.92-2.8-1.84-5.23a15.17,15.17,0,0,0-2.15-4,3.83,3.83,0,0,0-3-1.58l3.27-2.58,9-1.22a9.4,9.4,0,0,1,3.7,3.12,29.2,29.2,0,0,1,2.89,5c.87,1.88,1.74,3.85,2.6,5.89a53.59,53.59,0,0,0,2.89,5.83c.38.68.77,1.37,1.18,2.05s.8,1.37,1.18,2Z"/>
      <path d="M411.9,501.9a33.23,33.23,0,0,1,2.2-12.59,25,25,0,0,1,6.16-9.07,26,26,0,0,1,9.2-5.47A34.36,34.36,0,0,1,440.78,473a40,40,0,0,1,6.55.44,45.71,45.71,0,0,1,4.56,1c1.28.36,2.49.65,3.63.88l-1.82,12.16c-.53-.36-1.29-.79-2.26-1.31a17,17,0,0,0-3.8-1.37,23.94,23.94,0,0,0-5.72-.59,15.69,15.69,0,0,0-7.83,2,14,14,0,0,0-5.55,5.74,19.14,19.14,0,0,0-2.05,9.25,24.32,24.32,0,0,0,1.81,9.76,14.36,14.36,0,0,0,5.37,6.52,15.84,15.84,0,0,0,8.86,2.34,21.09,21.09,0,0,0,4.86-.59,27.71,27.71,0,0,0,4.45-1.43,11.72,11.72,0,0,0,2.92-1.63v11.63c-1,.4-2.09.83-3.4,1.29a31,31,0,0,1-10.43,1.67q-9.35,0-15.83-3.53a23.61,23.61,0,0,1-9.84-10A32.48,32.48,0,0,1,411.9,501.9Z"/>
      <path d="M487,530.63a26.23,26.23,0,0,1-14.27-3.4,22.64,22.64,0,0,1-9-10.14,35.28,35.28,0,0,1-2.91-15.57q.2-10,3.71-16.24a21.77,21.77,0,0,1,9.59-9.16A33.88,33.88,0,0,1,488.05,473a24.66,24.66,0,0,1,13.76,3.25,22.36,22.36,0,0,1,8.76,10,35.21,35.21,0,0,1,2.87,15.47q-.2,10-3.58,16.37a21.62,21.62,0,0,1-9.27,9.39A30.54,30.54,0,0,1,487,530.63Zm.22-10.18a10,10,0,0,0,8.63-4.43Q499,511.6,499,501.3a32.42,32.42,0,0,0-1.22-9.35,13.44,13.44,0,0,0-3.69-6.27,8.92,8.92,0,0,0-6.27-2.24,12.07,12.07,0,0,0-6.31,1.71,11.71,11.71,0,0,0-4.54,5.73q-1.68,4-1.69,11a31.82,31.82,0,0,0,1.33,9.58,14.6,14.6,0,0,0,4,6.57A9.48,9.48,0,0,0,487.21,520.45Z"/>
      <path d="M519.21,530l6.54-56.46h19.07l6.84,28.95,2.59,13.23,2-13.23,6.08-28.95h18.47l7,56.46H574.23l-2.35-29.71L571,484l-3.49,16.72L560,530.33H547.41l-8.21-29.57L535.47,484l-1,16.27L532.28,530Z"/>
      <path d="M596.5,530V473.56h5.55q3.87,0,7.77-.31t8.11-.3a31.76,31.76,0,0,1,11.67,1.92,14.73,14.73,0,0,1,7.47,6.29q2.59,4.36,2.6,11.7,0,10-5.95,15.47t-17.23,5.43c-1.47,0-2.65,0-3.53,0s-1.64,0-2.25,0V530Zm14.21-26.75c.81.08,1.69.15,2.63.21s2,.1,3.15.1a10.58,10.58,0,0,0,4.77-1.05,7.58,7.58,0,0,0,3.34-3.42,13.67,13.67,0,0,0,1.24-6.33,11.06,11.06,0,0,0-2.34-7.35q-2.34-2.79-7.31-2.6c-.87,0-1.79,0-2.78.09s-1.89.16-2.7.29Z"/>
      <path d="M652.13,530H637.31L657,473.18h16L692.87,530h-15L666.57,492l-1.82-7.37-1.9,7.37Zm-2.5-10.56,1.59-9.88h25.92l1.52,9.88Z"/>
      <path d="M698.27,530V473.56h13.22l19.3,31,7.22,15.2h-2.58l-2.28-21.35V473.56H746V530H731.78l-18.31-30.24-8.29-17.33h3.12l2.81,23.18V530Z"/>
      <path d="M768.72,530V507.53l1.21,5-19.83-39h15.5L774,491.8l3.42,9h-1.9l2.89-9,8.51-18.24h15l-20,39.06,1.29-5.09V530Z"/>
    </g>
  </g>
</svg>
