<svg xmlns="http://www.w3.org/2000/svg" viewBox="0 0 1000 1000">
  <defs>
    <style>
      .a {
        fill: #d8d8d8;
      }

      .b {
        fill: #f0a800;
      }

      .c {
        fill: #ffd600;
      }

      .d {
        fill: #8d5103;
      }

      .e {
        fill: #fafafa;
      }

      .f {
        fill: #cecece;
      }

      .g {
        fill: #c4c4c4;
      }

      .h {
        fill: #bababa;
      }

      .i {
        fill: #301f13;
      }

      .j, .k, .l {
        fill: none;
        stroke: #000;
      }

      .j, .k {
        stroke-miterlimit: 10;
      }

      .j {
        stroke-width: 3px;
      }

      .k, .l {
        stroke-linecap: round;
        stroke-width: 2px;
      }

      .l {
        stroke-linejoin: round;
      }

      .m {
        fill: #f0f0c0;
      }
    </style>
  </defs>
  <g>
    <path class="a" d="M500,765.61a265.63,265.63,0,1,1,187.81-77.8A263.84,263.84,0,0,1,500,765.61Z"/>
    <path d="M500,762.23a262.21,262.21,0,1,1,185.43-76.8A260.57,260.57,0,0,1,500,762.23ZM500,240a260,260,0,1,0,183.84,76.15A258.25,258.25,0,0,0,500,240Z"/>
    <g>
      <path d="M374.94,708.9V685.1l2.91,0c.54,0,1.1,0,1.66-.06l1.81-.11q1-.06,2.19-.06a15.6,15.6,0,0,1,5.33.75,5.66,5.66,0,0,1,2.92,2.11,5.8,5.8,0,0,1,.91,3.26,6.61,6.61,0,0,1-.4,2.34,4.79,4.79,0,0,1-1.19,1.86,4.71,4.71,0,0,1-2,1.11,5.9,5.9,0,0,1,2.47.88,5,5,0,0,1,1.73,1.85,5.37,5.37,0,0,1,.63,2.64,8.07,8.07,0,0,1-.88,3.85,6,6,0,0,1-3,2.63,15.1,15.1,0,0,1-5.95,1q-1.65,0-3.39-.09L378,708.9Zm5.92-14.11.49.06.65,0,.65,0h.51a4.65,4.65,0,0,0,2.86-.74,3.16,3.16,0,0,0,1-2.62,2.16,2.16,0,0,0-1.05-2.07,6.27,6.27,0,0,0-3-.59l-.66,0q-.44,0-.84.06a1.31,1.31,0,0,0-.55.12Zm0,10.08a1.94,1.94,0,0,0,.72.21c.34,0,.71.09,1.11.11l1.08,0a4.84,4.84,0,0,0,3.06-.8,3.26,3.26,0,0,0,1-2.68,2.8,2.8,0,0,0-1-2.34,5.24,5.24,0,0,0-3.25-.8h-.69l-.82,0-.74,0-.47.06Z"/>
      <path d="M397.66,708.9V685.13h15v4.45h-9.12v5h7v4.32h-7v5.44h10.05v4.54Z"/>
      <path d="M417.37,708.9V685.13h15v4.45h-9.12v5h7v4.32h-7v5.44h10v4.54Z"/>
      <path d="M443,708.9h-5.95V685.13h2.05c.85,0,1.84,0,2.95-.13s2.52-.13,4.22-.13a14.51,14.51,0,0,1,3.13.35,8.66,8.66,0,0,1,2.87,1.18,6.22,6.22,0,0,1,2.08,2.31,7.87,7.87,0,0,1,.78,3.71,8.72,8.72,0,0,1-.81,4,5.9,5.9,0,0,1-2.23,2.43,8.81,8.81,0,0,1-3.29,1.15l-1.25.22a15.17,15.17,0,0,1-1.66.19c-.69,0-1.65.07-2.89.07Zm0-12.54c.22,0,.5.06.87.08s.73,0,1.1,0H446a3,3,0,0,0,2.65-1.16,4.65,4.65,0,0,0,.83-2.81,4.46,4.46,0,0,0-.31-1.67,2.6,2.6,0,0,0-1.15-1.29,4.78,4.78,0,0,0-2.41-.5,11.48,11.48,0,0,0-1.3.08,8.5,8.5,0,0,0-1.23.21Zm7.17,12.54a2.88,2.88,0,0,1-.36-.58c-.11-.23-.28-.6-.5-1.11q-.48-1.08-.87-2.25c-.25-.78-.51-1.52-.77-2.2a6.35,6.35,0,0,0-.91-1.67,1.63,1.63,0,0,0-1.26-.67l1.38-1.08,3.77-.52a3.9,3.9,0,0,1,1.56,1.32,12.62,12.62,0,0,1,1.22,2.1c.37.8.73,1.62,1.09,2.48a23.46,23.46,0,0,0,1.22,2.46c.16.28.32.57.5.86l.49.86Z"/>
      <path d="M464.09,697.06a14,14,0,0,1,.93-5.3,10.56,10.56,0,0,1,2.59-3.82,11,11,0,0,1,3.87-2.3,14.46,14.46,0,0,1,4.77-.77,16.4,16.4,0,0,1,2.76.19c.74.12,1.38.26,1.92.4s1.05.28,1.53.37l-.77,5.12c-.22-.15-.54-.33-.95-.55a7.46,7.46,0,0,0-1.6-.58,10.36,10.36,0,0,0-2.41-.24,6.62,6.62,0,0,0-3.3.82,5.86,5.86,0,0,0-2.33,2.42,8,8,0,0,0-.87,3.89,10.39,10.39,0,0,0,.76,4.11,6,6,0,0,0,2.27,2.75,6.7,6.7,0,0,0,3.73,1,8.5,8.5,0,0,0,2-.25,10.93,10.93,0,0,0,1.88-.6,5.13,5.13,0,0,0,1.23-.68v4.89c-.41.17-.89.35-1.43.55a14,14,0,0,1-1.92.49,13.12,13.12,0,0,1-2.48.21,13.77,13.77,0,0,1-6.66-1.49,9.91,9.91,0,0,1-4.15-4.21A13.7,13.7,0,0,1,464.09,697.06Z"/>
      <path d="M495.71,709.16a11.05,11.05,0,0,1-6-1.43,9.54,9.54,0,0,1-3.78-4.27,14.74,14.74,0,0,1-1.22-6.56,14.35,14.35,0,0,1,1.56-6.84,9.15,9.15,0,0,1,4-3.85,14.26,14.26,0,0,1,5.85-1.34,10.37,10.37,0,0,1,5.79,1.37,9.3,9.3,0,0,1,3.69,4.22,14.77,14.77,0,0,1,1.21,6.51,15.18,15.18,0,0,1-1.5,6.89,9.12,9.12,0,0,1-3.91,4A12.86,12.86,0,0,1,495.71,709.16Zm.09-4.29a4.21,4.21,0,0,0,3.63-1.86q1.33-1.86,1.33-6.2a13.75,13.75,0,0,0-.51-3.94,5.71,5.71,0,0,0-1.55-2.64,3.79,3.79,0,0,0-2.64-.94,5.08,5.08,0,0,0-2.66.72,4.86,4.86,0,0,0-1.91,2.41,12.22,12.22,0,0,0-.71,4.64,13.15,13.15,0,0,0,.56,4,6.12,6.12,0,0,0,1.67,2.76A4,4,0,0,0,495.8,704.87Z"/>
      <path d="M509.27,708.9,512,685.13h8l2.88,12.19,1.08,5.57.87-5.57,2.56-12.19h7.77l2.95,23.77h-5.73l-1-12.51-.35-6.85-1.48,7L526.42,709h-5.28l-3.45-12.45-1.57-7-.42,6.85-.92,12.51Z"/>
      <path d="M541.82,708.9V685.13h2.33c1.09,0,2.18,0,3.27-.13s2.24-.13,3.42-.13a13.32,13.32,0,0,1,4.91.81,6.18,6.18,0,0,1,3.15,2.65,9.61,9.61,0,0,1,1.09,4.93,8.38,8.38,0,0,1-2.5,6.51c-1.67,1.52-4.09,2.29-7.26,2.29l-1.49,0-.94,0v6.88Zm6-11.26,1.1.09c.4,0,.84,0,1.33,0a4.5,4.5,0,0,0,2-.44,3.17,3.17,0,0,0,1.41-1.44,5.92,5.92,0,0,0,.52-2.67,4.62,4.62,0,0,0-1-3.09,3.58,3.58,0,0,0-3.08-1.1c-.36,0-.75,0-1.16,0s-.8.07-1.14.12Z"/>
      <path d="M565.24,708.9H559L567.29,685H574l8.35,23.93h-6.3l-4.77-16-.77-3.1-.8,3.1Zm-1.06-4.44.68-4.16h10.91l.64,4.16Z"/>
      <path d="M584.66,708.9V685.13h5.57l8.13,13,3,6.4h-1.09l-1-9V685.13h5.41V708.9h-6l-7.72-12.73-3.48-7.3h1.31l1.18,9.76V708.9Z"/>
      <path d="M614.33,708.9v-9.47l.51,2.11-8.35-16.41H613l3.52,7.68,1.44,3.77h-.8l1.21-3.77,3.59-7.68h6.3l-8.42,16.45.55-2.15v9.47Z"/>
    </g>
    <g>
      <g>
        <g>
          <path class="b" d="M665.81,479.22l-3-3.92a13.28,13.28,0,0,0-7.91-4.94c-2.87-.53-4.41.48-6.47-.94a6.33,6.33,0,0,1-1.92-2.19c-.68-1.32-.43-2.07-.7-4.81-.24-2.34-.36-3.52-.94-4.55a6.55,6.55,0,0,0-3.56-3,6.84,6.84,0,0,0-4.34.21c-4.19,1.44-4.36,5-7.61,5.37a4.35,4.35,0,0,1-3.89-1.42c-.55-.84-.16-1.44-.75-3.1-.35-1-.82-2.34-1.84-2.71s-1.54.53-3.8,1.33a8.46,8.46,0,0,1-4.45.71,5.82,5.82,0,0,1-4.69-7.6,5.65,5.65,0,0,1,1.63-2.42,7.64,7.64,0,0,0,1.44-2.07,7.9,7.9,0,0,0,.56-5.24c-.9-3.12-4.09-4.43-5.71-5.09-1.13-.47-4.84-2-8.13-.42-2.45,1.18-2.1,2.86-4.85,4.18a8.48,8.48,0,0,1-6.09.61c-2-.7-2.21-2-5.38-3.45a18.68,18.68,0,0,0-2.57-1,16.61,16.61,0,0,0-7.7-.92,24.37,24.37,0,0,0-4.8,1.22,11.21,11.21,0,0,1-5.37,1.15c-2.33,5.25-5.6,12.8-9.32,22-4,9.87-6,14.81-7.91,20.92A211.7,211.7,0,0,0,539,505.35c-1.7,9.4-2.69,17.62-3.11,21.23-1.25,10.48-1.35,14.95-3.22,23.81a70.73,70.73,0,0,1-4.33,14.35,88.54,88.54,0,0,1-5.73,10.52c-2.49,4.07-6,9.5-10.74,15.71a69.69,69.69,0,0,0,11,13,74.12,74.12,0,0,0,17.62,11.94,75.27,75.27,0,0,0,17.26,6.68A70.74,70.74,0,0,0,583.64,624c.68-3,1.7-7.06,3.11-11.89a105.31,105.31,0,0,1,4.48-13.3c3-6.86,6.46-11.5,10.18-16.44,1-1.31.79-1,9.67-11.66,5.57-6.68,5.77-6.95,8.57-10.29,5.48-6.53,7.12-8.36,10.79-12.71,6.87-8.14,10.31-12.21,13.63-16.68,5.65-7.62,9.27-14.36,16.52-27.86,3-5.5,6.86-13,11.24-22.07a7.8,7.8,0,0,1-2.87-.16A7.63,7.63,0,0,1,665.81,479.22Z"/>
          <path class="c" d="M672,480.64a12.55,12.55,0,0,1-5-1.84,14.62,14.62,0,0,1-2.06-1.65c-2.48-2.33-2.24-3.35-4.24-5a11.52,11.52,0,0,0-3.83-2.06,15.63,15.63,0,0,0-3.92-.63c-1.75-.06-2.52.21-3.68-.3a4.88,4.88,0,0,1-1.7-1.29c-2.88-3.25-.68-8.66-3.83-11.73a6.37,6.37,0,0,0-3.26-1.6,7,7,0,0,0-5.29,1.63c-.36.3-1.2,1.1-2,1.85a10.07,10.07,0,0,1-1.15,1.05,5.43,5.43,0,0,1-3.52.61,4.31,4.31,0,0,1-2.12-.63,4.14,4.14,0,0,1-1.37-1.55,5.69,5.69,0,0,1-.47-1.6c-.24-1.36,0-1.74-.38-2.3a2.33,2.33,0,0,0-1.32-.87c-2.14-.65-3.31,1.95-6.43,2a6.54,6.54,0,0,1-3.09-.78,6.31,6.31,0,0,1-3.11-3.26,5.59,5.59,0,0,1-.1-3.58,20.64,20.64,0,0,1,2.47-3.33h0c-.06,0,1.57-2.56,1.35-4.76-.16-1.61-1.28-2.71-2.44-3.85a12.31,12.31,0,0,0-6.49-3.25,8.27,8.27,0,0,0-5.48.56,11.77,11.77,0,0,0-2.36,2c-1.52,1.57-1.46,2-2.37,2.44-1.51.77-3.06.29-3.2.85-.07.28.27.59.44.74.44.4,1.17.61,2.83.33a8.49,8.49,0,0,0,1.3-.32,21.58,21.58,0,0,1,2.28-.75,4.94,4.94,0,0,1,3,.52,5.59,5.59,0,0,1,2.59,2.19,5,5,0,0,1,.71,3.58,10.05,10.05,0,0,1-1,2.24c-.19.35-.27.44-.38.67a8.38,8.38,0,0,0-.87,2.93,9.65,9.65,0,0,0,1.43,5.51,11.17,11.17,0,0,0,5.05,4.26,12.13,12.13,0,0,0,4.93,1.36,10.16,10.16,0,0,1,1.75.05,8,8,0,0,1,2.75.91,5.76,5.76,0,0,1,1.84,1.44,14.54,14.54,0,0,1,.85,1.4,11,11,0,0,0,1.64,1.92,16,16,0,0,0,2.73,2.06,12.86,12.86,0,0,1,2.45,1.49,3.59,3.59,0,0,1,1.21,1.78A3.3,3.3,0,0,1,629,474a4.48,4.48,0,0,1-1,1.58c-2,2-3.28,4.56-4.93,6.84,0,0-3.14,4.33-5.74,8.72l-.28.48c-1.17,2-1.67,2.79-1.67,2.79-.5.83-.6,1-1.33,2.23-.93,1.58-1.39,2.38-2.51,4.38a169.47,169.47,0,0,1-9.65,15.08c-1.57,2.15-4,5.31-5,6.6l-2.61,3.42c-8.53,11.33-9.24,13.19-16.21,22.41a137.24,137.24,0,0,1-13.84,15.55c-4.68,4.41-8.33,7.11-12.23,13.08-3.57,5.48-4.35,9.12-3.89,12.4a13,13,0,0,0,2.52,6.21,17.25,17.25,0,0,0,6.19,4.72c.52.26,1.55.61,3.56,1.48.9.4,1.74.77,2,1.56a1.76,1.76,0,0,1-.1,1.17c-.67,1.44-3.44,1.46-5,1.51a23.15,23.15,0,0,1-6-.8,55,55,0,0,1-12.19-4.15l-.56-.27a47.26,47.26,0,0,1-7.56-4.29,27,27,0,0,1-3-2.59.58.58,0,0,0-.35-.2.38.38,0,0,0-.26.16c-.24.32.6,1.52,1,2,4.44,5.27,13.2,9.45,13.2,9.45a112.8,112.8,0,0,0,15.76,5.92c1.94.55,3.62.93,3.85,1a77.92,77.92,0,0,0,8.08,1.38c9.77,1.12,16.29,1.88,18.11-1.21.33-.57.12-.62.54-2.77a44.35,44.35,0,0,1,2.63-8.08c2.09-5.29,3.14-7.93,4.89-10.82.75-1.23,1.79-2.66,3.85-5.47,1.1-1.51,2.17-3,3.47-4.69,0,0,1.54-2,3.08-4,3.72-4.71,9.3-10.73,15.2-17.44,2.33-2.64,5.54-6.29,9.58-11.19.75-.91,3.76-4.57,7.6-9.49,2-2.61,3.06-3.91,4.1-5.34a123.25,123.25,0,0,0,7.15-11.12c5.58-9.59,9.15-16.3,9.15-16.3C663.79,496.24,668.26,487.74,672,480.64Z"/>
          <path class="d" d="M520.57,593.84c-.66-3.16.63-5.48,6.52-15.09s8.77-14.08,10.69-19c1.42-3.69,2.52-7.57,2.52-7.57.71-2.46,1.14-4.37,1.33-5.24,2.65-12,3.65-18.1,6-30.62a204.29,204.29,0,0,1,12.07-38.49A164.34,164.34,0,0,1,586.16,436a15.56,15.56,0,0,0-4.37-2.85c-4.11-1.76-8-1.24-11.91-.72a40.18,40.18,0,0,0-7.16,1.64c-1.92,4.38-4.63,10.68-7.73,18.34-5.48,13.55-8.22,20.32-10.89,29.66a216.76,216.76,0,0,0-5.24,23.53c-2,11.62-2.94,21-2.94,21-.42,4.12-.67,7.68-1.56,13.52-1,6.28-1.89,10.31-2.13,11.29a85.71,85.71,0,0,1-3.52,12c-2.1,5.42-4.32,9-7.54,14.22A146.45,146.45,0,0,1,511.9,591a68.88,68.88,0,0,0,16.26,18,72.85,72.85,0,0,0,14.51,8.61,80.23,80.23,0,0,0,16.11,5.51,77.05,77.05,0,0,0,25.27,1.35c.22-1.3.43-2.6.64-3.9a101.45,101.45,0,0,1-17.14-.77c-6.42-.84-14.72-2-24.36-6.5a61.22,61.22,0,0,1-17.07-11.88C521.82,597.37,520.92,595.55,520.57,593.84Z"/>
        </g>
        <path class="e" d="M684.46,459.08c1.44,2.5,6,4,9.44,2.14a8,8,0,0,0,3.31-10.17,9.61,9.61,0,0,0,4.75-4.67c1.84-4.17-.24-8.84-2.9-11.42a12.14,12.14,0,0,0-9-3.16,8.71,8.71,0,0,0,2.23-6.58,9,9,0,0,0-4.69-6.65,7.58,7.58,0,0,0,.23-3.94l-.27-1.45a8.82,8.82,0,0,0,4.57-7.82,9.84,9.84,0,0,0-2.07-5.67,12.54,12.54,0,0,0-4.9-4.14,12.88,12.88,0,0,0-8-12.69,10.53,10.53,0,0,0,.07-3.16,12.12,12.12,0,0,0-2.94-6.18A18.19,18.19,0,0,0,655,367.33a17,17,0,0,0-4-5.95,18.63,18.63,0,0,0-8.41-4.44,19.35,19.35,0,0,0-8-.73,18.52,18.52,0,0,0-8.36,3.31,12.81,12.81,0,0,0-12.95-1.27,13,13,0,0,0-6.65,8.2,19,19,0,0,0-6.61-1.25,15,15,0,0,0-7.09,1.41,13.71,13.71,0,0,0-5.16,4.34,13.31,13.31,0,0,0-2.38,7.29c-.45,0-1.08.07-1.81.17a13.94,13.94,0,0,0-2.31.47,9.37,9.37,0,0,0-2.9,1.71c-2.84,2.46-3.19,7.06-3.22,7.47-.35-.06-5.51-.86-8.89,2.92a9.61,9.61,0,0,0-2.3,6.94c0,.82.32,5.12,3.93,7.24a8.33,8.33,0,0,0,6.21.75,16.61,16.61,0,0,1,5.62-4A19.11,19.11,0,0,1,587,400.6a42.11,42.11,0,0,1,7.27.56c2.39.32,5.49.73,9.6,1.65,1.48.33,5.13,1.18,10,2.78,4.25,1.4,7.6,2.84,14.29,5.72,9.43,4.06,16.42,7.56,19.34,9,4,2,8.34,4.22,12.79,6.91a92.11,92.11,0,0,1,12.07,8.45c5.54,4.62,7.54,7.48,8.26,8.56,1.76,2.65,3.29,4.95,3.66,8.3S683.41,457.26,684.46,459.08Z"/>
        <path class="e" d="M573.39,407.24a15,15,0,0,1,5.2-4.4c3.47-1.75,6.81-1.59,12.15-1.32a59.15,59.15,0,0,1,7.6.89,79.71,79.71,0,0,1,10.16,2.44,249.59,249.59,0,0,1,26,10c7.69,3.37,12.09,5.31,18.15,8.55a125.36,125.36,0,0,1,14.6,8.92c4.95,3.54,7.42,5.31,10,8.36a34.29,34.29,0,0,1,7.11,15.14c-.44,1.41-.86,2.86-1.45,4.28a224.69,224.69,0,0,1-10.24,20.1,14.2,14.2,0,0,1-8-3.09c-3-2.56-2.66-4.85-5.51-6.71-3.89-2.54-6.64.4-9.78-1.75-4.41-3-1.15-10.3-5.77-13.21a8.17,8.17,0,0,0-7.93-.17c-1.24.78-1.3,1.56-3,2.6-.84.51-3.32,2-5.21,1.26-2.55-1-1.39-5.16-3.87-6.36s-4.58,2.06-8.37,1.12c-2.09-.51-4.34-2.22-4.57-4.17s1.73-2.6,2.93-5.78c.21-.54,1.47-3.89.42-6.65-1.64-4.27-8.72-6.73-13.92-5.14-4.53,1.39-5.29,5.14-9.15,5.16-2.85,0-4.56-2-6.49-3.42-3.36-2.41-9.42-4.26-21.22-.95Z"/>
        <path class="f" d="M585.73,379.08a12,12,0,0,0-2.39.29,10.46,10.46,0,0,0-4.08,1.61,6.45,6.45,0,0,0-1.6,1.49,6.67,6.67,0,0,0-1.1,2.43,9.76,9.76,0,0,0-.46,2.23,2.05,2.05,0,0,1-.39,1.34,1.45,1.45,0,0,1-.43.36,2.69,2.69,0,0,1-2-.1,5.48,5.48,0,0,0-3.17.42,7.83,7.83,0,0,0-4.17,3.34A8.32,8.32,0,0,0,564.8,396a8.17,8.17,0,0,0,.49,4.8,7.48,7.48,0,0,0,3.14,3.36,7.73,7.73,0,0,0,5,.85l1.69-1.89-.55-.28a7.15,7.15,0,0,1-.8-.78,9.4,9.4,0,0,1-.82-1.18,9.69,9.69,0,0,1-1.46-3.4,5.88,5.88,0,0,1,.09-2.08,4.61,4.61,0,0,1,.89-2,4.8,4.8,0,0,1,1.14-1,5.68,5.68,0,0,1,1-.52,13.82,13.82,0,0,1,1.85-.43,4.8,4.8,0,0,0,1.2-.38,2.48,2.48,0,0,0,.87-.69,2.64,2.64,0,0,0,.35-1.52,11.77,11.77,0,0,1,.4-2.45,5.86,5.86,0,0,1,1-1.95,6.28,6.28,0,0,1,1.86-1.57,8.49,8.49,0,0,1,2.49-.88,13.68,13.68,0,0,1,2.54-.3,15.78,15.78,0,0,1,3.59.3,16.12,16.12,0,0,1,3.84,1.27,12.78,12.78,0,0,0-3.35-2.66A11.3,11.3,0,0,0,585.73,379.08Z"/>
        <path class="g" d="M610.18,370.48a10.69,10.69,0,0,0-6-4,14.85,14.85,0,0,0-6.16-.6c-1.27.15-7.19.85-10.08,5.81a11.38,11.38,0,0,0-1.47,6,25.56,25.56,0,0,1,4.82,1.16c0-.62-.13-5.18,3.36-8.06a10.2,10.2,0,0,1,6.79-2.09,13.2,13.2,0,0,1,5.74,1.49,16.08,16.08,0,0,1,4.18,2.89A8.91,8.91,0,0,0,610.18,370.48Z"/>
        <path class="g" d="M631.66,370.88a12.58,12.58,0,0,0-6.22-10.79c-.35-.2-.7-.39-1.07-.56a12.24,12.24,0,0,0-16.35,5.6,11.39,11.39,0,0,0-.56,1.47,14.32,14.32,0,0,1,1.19,1.28,11.41,11.41,0,0,1,4.19-3.34,11.85,11.85,0,0,1,7.47-.65,14,14,0,0,1,6,2.92,16.23,16.23,0,0,1,5,6.67A10.82,10.82,0,0,0,631.66,370.88Z"/>
        <path class="h" d="M640.86,357.3a17.54,17.54,0,0,0-8.87-.44,15.34,15.34,0,0,0-5.61,2.64,13.14,13.14,0,0,1,1.68,1.29,14.52,14.52,0,0,1,1.72,1.87,14.82,14.82,0,0,1,1.51,2.35,11.7,11.7,0,0,1,6.13-2,12.78,12.78,0,0,1,8.57,2.64,11.34,11.34,0,0,1,3.66,5.23,9.64,9.64,0,0,1,2.71-2.43,9.32,9.32,0,0,1,1.69-.79,12.71,12.71,0,0,0-2.43-4.28,15.82,15.82,0,0,0-4.28-3.35A24.71,24.71,0,0,0,640.86,357.3Z"/>
        <path class="g" d="M668,368.23a15.18,15.18,0,0,0-12.15-.28,15.66,15.66,0,0,0-3.43,1.92,15.87,15.87,0,0,0-3.75,3.95c-.28.43-.54.87-.78,1.33a7.8,7.8,0,0,0-.36.72,3.84,3.84,0,0,0-.2,1.95,13.58,13.58,0,0,1,7.1-4.46,14.37,14.37,0,0,1,9.46,1.27,19.11,19.11,0,0,1,8.65,7.85,14.29,14.29,0,0,1,4.23,0A15.34,15.34,0,0,0,668,368.23Z"/>
        <path class="f" d="M676.45,383.4c-.21-.1-.42-.17-.63-.26a19,19,0,0,0-2.52-.76,12.68,12.68,0,0,0-7.7.51,9.87,9.87,0,0,0-4,3.64c.84-.24,7.7-2.14,13,2a11.13,11.13,0,0,1,4.5,7,9.75,9.75,0,0,1-.57,4.84,10.62,10.62,0,0,1-5.24,5.6,11.85,11.85,0,0,0,4.31-1,9.94,9.94,0,0,0,1.25-.67,11.07,11.07,0,0,0,4.25-4.73,12.79,12.79,0,0,0,.62-1.73,11.46,11.46,0,0,0,.38-2.38A12.94,12.94,0,0,0,676.45,383.4Z"/>
        <path class="h" d="M686.13,397.17l-.71-.28c-.1.32-.2.64-.31,1l-.51,1.52a6.67,6.67,0,0,1,.55,8.57,15.75,15.75,0,0,1,3.24,5.12,13.68,13.68,0,0,0,1.26-2.14C692.21,405.44,690.63,399.27,686.13,397.17Z"/>
        <path class="f" d="M701.93,443.08a8.79,8.79,0,0,0-1.72-5.39,11,11,0,0,0-3.59-3.47,11.4,11.4,0,0,0-3.28-1.29,11.88,11.88,0,0,0-2.78-.29c-1-.11-1.25-.37-1.33-.6-.24-.7,1.43-1.3,2.13-3.15a6.24,6.24,0,0,0,.19-3.09,7.17,7.17,0,0,0-.94-3,20.62,20.62,0,0,0-2.27-2.48c-1-1-1.17-1.14-1.35-1.57-.34-.84-.09-1.38-.06-2.7a13.6,13.6,0,0,0-.31-2.89,9.66,9.66,0,0,0-2.26-4.16c-3-3.16-7.6-2.67-8.13-2.61l-2.58,1.43a11.84,11.84,0,0,1,1.31.12,11.41,11.41,0,0,1,5,1.85,8.14,8.14,0,0,1,2.43,2.36,7.58,7.58,0,0,1,1.11,3.05,7.35,7.35,0,0,1-.19,2.8,5.31,5.31,0,0,0,.67,2.47c1,1.69,2.22,1.45,3.29,3.06a5.81,5.81,0,0,1,.71,4.55,9.37,9.37,0,0,1-.69,1.71,8.62,8.62,0,0,0-.79,1.43,3.75,3.75,0,0,0-.19,1.52c.23,1.53,2,2.33,2.34,2.47,1,.45,1,0,2.48.57a8.83,8.83,0,0,1,2.62,1.45s.22.18.41.36a7.48,7.48,0,0,1,2.36,4.47c.07.49.41,3.4-1.38,5.32-1.23,1.32-2.45,1.09-2.74,2.14-.38,1.36,1.54,2.21,1.45,4.21a4,4,0,0,1-1.4,2.65c-1.64,1.34-4.68,1.06-7.15-1a4.31,4.31,0,0,0-.27,1.52,4.22,4.22,0,0,0,.5,2,7.08,7.08,0,0,0,3.79,2,6.34,6.34,0,0,0,4.27-.57,6.28,6.28,0,0,0,2.34-2.31,7.18,7.18,0,0,0,1-4.12,7.1,7.1,0,0,0-.42-2.12,2.22,2.22,0,0,1,.36-1.19c.41-.6,1-.7,1.59-1a5.33,5.33,0,0,0,1.87-2.1A8.89,8.89,0,0,0,701.93,443.08Z"/>
        <path class="a" d="M600.53,379.69c5.09-4.24,11.33-3.57,13.27-3.37,8.72.9,13.8,7.3,14.81,8.63a24.71,24.71,0,0,1,9.45-3.19,25.18,25.18,0,0,1,11.69,1.45,22.65,22.65,0,0,1,10.77,8c1.29,1.84,2.54,4.27,2.12,4.62-.21.17-1.3-.63-3.48-2.22-3.19-2.33-3.59-2.62-4.14-3a26,26,0,0,0-5-2.77,20.88,20.88,0,0,0-7.24-1.46,22.1,22.1,0,0,0-7.37,1.16c-1.14.38-3.55,1.28-4.4,1.6a18.59,18.59,0,0,1-2.69,1c-2.55.23-3.7-2.72-7.26-5.39a17.66,17.66,0,0,0-8.5-3.49,16.61,16.61,0,0,0-9.06,1.75,22.62,22.62,0,0,0-5.58,4.14c-2.08,2-2.75,3.33-3,3.2C594.42,390,595.63,383.77,600.53,379.69Z"/>
        <path class="a" d="M664.67,413.59a9.12,9.12,0,0,0-10.4,2.86,6.26,6.26,0,0,0-2.26,5.34,12.18,12.18,0,0,1,4-2.76,11,11,0,0,1,8.16-.43,11.44,11.44,0,0,1,4.81,3.83,14.93,14.93,0,0,1,2.34,3.94,10.5,10.5,0,0,1,.93,3.49,9.56,9.56,0,0,1-.78,4.4,3,3,0,0,0,1.58-.14c.35-.14.84-.41,1.8-1.77a8.44,8.44,0,0,0,1.66-3,6.59,6.59,0,0,0,0-2.83,16.47,16.47,0,0,0-2.52-6.17A17.75,17.75,0,0,0,664.67,413.59Z"/>
        <path class="a" d="M625,408.35c0,.46.74.77,1.42,1a11.21,11.21,0,0,1,6.11-1.58c6,.26,9.36,5.68,9.66,6.18a9.37,9.37,0,0,0-1.19-3.64,10.45,10.45,0,0,0-8.8-4.87C628.62,405.36,624.9,407.25,625,408.35Z"/>
        <path class="a" d="M642,410.92a10.93,10.93,0,0,1,1.23,3.91.78.78,0,0,0,.42-.08,1.23,1.23,0,0,0,.53-.85,3.41,3.41,0,0,0,0-1.6c-.24-1.15-.79-1.72-.59-1.94s.65.16.73,0-1.69-1.75-3.27-2.11c-.13,0-.29-.06-.37,0C640.4,408.6,641.34,409.78,642,410.92Z"/>
        <path class="a" d="M641.27,408.22c0,.61-.07,1.23-.1,1.84a8.28,8.28,0,0,1,5.49,1.74,8.58,8.58,0,0,1,2.79,8.38c.19.22.74.8,1.08.66s.27-.52.3-.79c.16-1.53.53-1.47.7-2.9a8.46,8.46,0,0,0-.5-4.49,8,8,0,0,0-4.07-4A8.53,8.53,0,0,0,641.27,408.22Z"/>
        <path class="a" d="M629,459.61c.81-.11,1.21-.94,2.17-2.14a17.41,17.41,0,0,1,3.43-3.22,4,4,0,0,0-2.09-.31c-1.73.18-2.8,1.15-3.42.76s-.62-1.08-.49-3.36c.24-3.88-5-3.52-8.53-2s-4.36-2.83-1.39-7.84.06-14.35-4.45-16.85-18.39.21-22.34,4-7.14-.93-11.28-2.86-1.4-9.84,1.88-13.5,10.11-2.08,15.55.46c7.55,3.52,7.13-2,13.27-1.4,9.09.84,18.74,6.05,21.5,8.17a4.59,4.59,0,0,0,1.15.69c2.4,1,5.24-.1,7.64-1.55-.74-.36-1.49-.72-2.25-1.07l-2.58-1.18-.1-.05c-.82-.4-1.68-.8-2.56-1.21-5.75-2.68-11.45-5.05-17-7-18.64-6.72-33.28-6.89-38.13-5.42a8.2,8.2,0,0,0-3.31,1.68c-1.61,2.48-3.21,5.19-4.76,8.15a103.14,103.14,0,0,0-8,20.26,25.83,25.83,0,0,1,5.79-1.82,26.18,26.18,0,0,1,14.1,1.16c5.64,2.18,5.83,4.77,8.84,4.44,4-.44,4.45-5,9.59-6.17a11.66,11.66,0,0,1,7.12.89c.65.27,6.31,2.67,6.93,7.12.36,2.61-1,5.86-2.34,7.78a9,9,0,0,0-1.84,4.6,3.15,3.15,0,0,0,.35,1.49,3.39,3.39,0,0,0,1.66,1.44c1.8.79,3.09-.56,6.17-.93,1.36-.16,4.27-.5,5.86,1.19a5,5,0,0,1,1.09,3.62C626.91,458.58,627.92,459.74,629,459.61Z"/>
        <path class="i" d="M510.71,592a86.63,86.63,0,0,0,6.85,8.21,77.65,77.65,0,0,0,20.74,16.11A78.8,78.8,0,0,0,561.24,624a81.2,81.2,0,0,0,22.24.79c-.31,2.46-.65,4.5-.92,6a22.92,22.92,0,0,1-1,4.23,17,17,0,0,1-2.18,4,29.71,29.71,0,0,1-8.87,3.87c-6.54,1.63-11.83.49-18.24-1-8.16-1.86-13.84-4.54-19.67-7.3-9.37-4.42-14-8-15.27-9a59,59,0,0,1-7.71-7.36,30.45,30.45,0,0,1-4.77-6.62,26.75,26.75,0,0,1-2.35-6.75,34.63,34.63,0,0,1,8.24-13Z"/>
        <path d="M563.08,427c-.58,1.43-1.2,2.85-1.65,4.32a2.88,2.88,0,0,0,.11,2.62c1.19,1.6,3.42.72,4.94.22,5.49-1.77,11.51-2.34,16.78.43,2.91,1.53,5.12,4.44,8.72,4.17a6.6,6.6,0,0,0,4-1.76c1-.93,1.76-2.15,2.84-3,3.74-3.08,10.74-.69,13.45,2.78,1.91,2.44.88,6-1,8.18a8.44,8.44,0,0,0-2,2.8,6.17,6.17,0,0,0,.39,4.58,6.82,6.82,0,0,0,7.06,3.83,12.76,12.76,0,0,0,3.83-1.6,3.84,3.84,0,0,1,2.18-.55c.74.14.83.84.92,1.49.23,1.57.28,3.17,1.51,4.35A5.22,5.22,0,0,0,629,461a5.73,5.73,0,0,0,3.69-1.53,22.51,22.51,0,0,1,2.91-2.78c2.29-1.52,5.18-2.17,7.36-.08,1.95,1.87,1.93,4.27,2.15,6.75.19,2.25.65,4.87,2.48,6.4s4.45.71,6.76,1a12.54,12.54,0,0,1,4,1.22,8.88,8.88,0,0,1,3.44,3.33,13.78,13.78,0,0,0,6.28,5.66,16.62,16.62,0,0,0,4.91,1.13,1.46,1.46,0,0,0,1.3-.74A146.6,146.6,0,0,0,684,461.9c1.05-2.76,2-5.61,1.86-8.61a18.15,18.15,0,0,0-3.67-9.32,42.69,42.69,0,0,0-6.51-7.56,89.86,89.86,0,0,0-8.86-6.78,155.38,155.38,0,0,0-15.82-9.4,260.87,260.87,0,0,0-32.45-14.62,109.57,109.57,0,0,0-16.24-4.7c-5.74-1.14-11.79-2.2-17.65-1.6a20.16,20.16,0,0,0-7.95,2.42,14.05,14.05,0,0,0-5.64,6.25c-2.71,5.37-4.73,11.07-7,16.61-.33.79-.66,1.58-1,2.37-.72,1.79,2.18,2.57,2.89.8,1.79-4.47,3.59-8.94,5.45-13.38,1.09-2.58,2.18-5.55,4-7.74a12.45,12.45,0,0,1,6.47-3.8c5.4-1.46,11.37-.51,16.79.43a104,104,0,0,1,14.72,3.7,224.74,224.74,0,0,1,30.67,13c5.31,2.67,10.6,5.45,15.67,8.57,5.73,3.52,11.68,7.39,16.3,12.34a30.93,30.93,0,0,1,6,8.63,12.63,12.63,0,0,1,0,9.29c-2.5,7.42-6.43,14.27-10.27,21.06l1.29-.75a10.65,10.65,0,0,1-7.47-3.65c-.91-1.13-1.57-2.44-2.49-3.56A10.58,10.58,0,0,0,658.9,469a17,17,0,0,0-7.79-1.2c-1.94.11-2.44-1.21-2.81-3.13-.46-2.41-.16-4.75-1.13-7.07a8.5,8.5,0,0,0-6-5.2c-3.06-.59-6,.76-8.34,2.67-.92.75-1.6,2-2.6,2.59-.78.48-2.4.65-3.1-.06-.47-.48-.45-1.37-.53-2a8.07,8.07,0,0,0-.49-2.29,3.89,3.89,0,0,0-3.55-2.36,8.21,8.21,0,0,0-4.31,1.35,4.39,4.39,0,0,1-3.76.68,3.93,3.93,0,0,1-2.38-2.43,2.72,2.72,0,0,1,.76-3.05,11.28,11.28,0,0,0,3.34-8.74c-.57-5.28-6.58-8.37-11.3-9a10.35,10.35,0,0,0-7.43,1.42c-2.08,1.48-3.56,5.05-6.55,4.53-1.5-.27-2.48-1.27-3.65-2.14a18.83,18.83,0,0,0-3.63-2.12,22.2,22.2,0,0,0-8.58-1.83,27.94,27.94,0,0,0-9,1.52c-.74.24-1.91.62-2.37.7-.22.05-.24,0-.24,0,0-.3.71.82.55.56l.16.38v-.11c.07,0-.13.26,0,.06a2.62,2.62,0,0,0,.17-.64c.45-1.47,1.08-2.9,1.65-4.32C566.69,426,563.79,425.19,563.08,427Z"/>
        <g>
          <path class="j" d="M628.16,412c2.77,1.15,5.09,2.15,6.53,2.78l2.45,1.08c4.82,2.14,7.81,3.47,11.6,5.41,2.37,1.21,6.29,3.22,11.18,6.32a121.39,121.39,0,0,1,12.66,9.22A43.66,43.66,0,0,1,679,443.1a22,22,0,0,1,3.72,6.17,20.78,20.78,0,0,1,1,3.81,16,16,0,0,1,.29,3.08c-.05,1.93-.65,3.46-1.78,6.18-1.67,4-3,6.36-3,6.36-2,4.23-4.4,8.09-6.67,12.7,0,0-.68,1.31-2,3.88-1.24,2.37-4.58,8.8-8.12,15.43-3.85,7.22-6.77,12.68-9.56,17.52s-5.46,9-8.79,13.76c-1,1.41-1.92,2.68-2.87,3.94-2.37,3.13-4.29,5.45-5.37,6.74-13.55,16.22-14.58,17.41-16,19-5.94,6.79-6.12,6.71-9.68,11,0,0-3.71,4.48-9.58,12.13-.2.26-.57.74-1,1.37-.91,1.26-1.91,2.71-3,4.37a72.46,72.46,0,0,0-4.35,8.08,76.05,76.05,0,0,0-3.18,8.19c-.83,2.54-1.46,4.89-2.05,7.08-.1.36-.2.71-.33,1.19l-.55,2c-.08.31-.38,1.39-.69,2.54l-.81,2.93c-.78,2.83-1.16,4.25-1.18,4.32-.54,2.16-1,4.51-1.47,7a10.31,10.31,0,0,1-1.28,3.67,10,10,0,0,1-1.15,1.54,10.18,10.18,0,0,1-1.82,1.55,15.93,15.93,0,0,1-4.38,2.08,27.11,27.11,0,0,1-6.55,1.23,26.4,26.4,0,0,1-3.21,0,46.54,46.54,0,0,1-8.51-1.08c-2.89-.6-5.75-1.4-8.3-2.19s-4.79-1.61-6.43-2.23-2.69-1.06-2.87-1.13l-1.33-.58c-7.08-3.14-9.25-4.26-9.25-4.26a64,64,0,0,1-9.86-6.36,59.2,59.2,0,0,1-7.3-6.77c-1.18-1.33-1.93-2.34-3.17-4a36,36,0,0,1-3.83-6.22,8.75,8.75,0,0,1-.61-1.75,8.62,8.62,0,0,1-.07-3.2,12.82,12.82,0,0,1,2.55-5.46c3.14-4.15,5.65-7.09,7-8.88,2.06-2.75,3.84-5.27,5.36-7.5,1.07-1.55,3.13-4.66,5.26-8.24A79.3,79.3,0,0,0,528,563c.52-1.38,1-2.66,1.32-3.8s.65-2.12.87-2.93c.15-.5.35-1.19.58-2s.5-1.8.77-2.88c.42-1.71.91-3.91,1.42-6.95s1-6.89,1.54-11.91c.17-1.7.12-1.53.31-3.48.08-.87.45-4.65,1.11-9.62.45-3.37,1.88-14.17,4.23-24.9.94-4.28,1.92-8.09,2.07-8.67.38-1.5.8-3.06,1.27-4.71.71-2.46,1.31-4.38,1.62-5.33,1.21-3.76,2.3-6.68,2.86-8.16,4.82-12.71,8.4-21,8.4-21s10.91-25.39,12.35-29.52l.09-.25c.22-.62.74-2,1.52-3.84l.44-1a50.39,50.39,0,0,1,3.18-5.82,6.86,6.86,0,0,1,.89-1.23,7.74,7.74,0,0,1,3.19-2.13,21.68,21.68,0,0,1,3.72-1.24,23,23,0,0,1,4.18-.56,41.06,41.06,0,0,1,6.15.27c1.89.17,3.36.29,5.37.62,1.83.3,3.14.6,5.15,1.06,0,0,2.73.62,5.07,1.25C613.5,405.86,619.89,408.52,628.16,412Z"/>
          <g>
            <path d="M683.16,459.83c2.35,3.77,7.9,4.68,11.65,2.6,4.09-2.28,5.54-7.55,3.84-11.78l-.69,1.7a11,11,0,0,0,5.22-5,11.11,11.11,0,0,0-.31-9.6,13.35,13.35,0,0,0-12.8-7.42l1.06,2.56a10,10,0,0,0-2.76-15.58l.69,1.69a12.25,12.25,0,0,0,0-6.19l-.69,1.69a10.39,10.39,0,0,0,5.19-10.54c-.63-4.18-3.88-7.86-7.59-9.68l.75,1.3a14.57,14.57,0,0,0-9.12-14.14l1.05,1.85c1-6.13-2.75-11.54-7.68-14.85a19.91,19.91,0,0,0-16.28-2.53l1.84,1.05a18.67,18.67,0,0,0-5.76-7.78,21.86,21.86,0,0,0-7.83-3.69,20.37,20.37,0,0,0-17.38,2.76H627a14.35,14.35,0,0,0-15.62-.63,14.67,14.67,0,0,0-6.19,8.46l1.85-1.05c-5.3-2-11.84-1.93-16.63,1.34a14.87,14.87,0,0,0-6.51,11.9l1.5-1.5c-3.58.22-7,1.07-9.24,4.07a13.75,13.75,0,0,0-2.5,7.25l1.9-1.44c-4.75-.79-9.94,1.29-12,5.8-1.83,4-1.35,9.25,1.69,12.51a9.4,9.4,0,0,0,8.53,2.59c1.18-.2,1.74-.93,2.6-1.7a14.48,14.48,0,0,1,4-2.51c4.66-2,10.11-1.18,14.95-.51a103.36,103.36,0,0,1,17.45,4,183,183,0,0,1,17.29,7c11.24,4.94,22.57,10.25,32.91,16.9a66.32,66.32,0,0,1,14.9,12.42A33.16,33.16,0,0,1,681,447.7a13.21,13.21,0,0,1,1.71,4.63,16.76,16.76,0,0,1-.15,4.36,5.27,5.27,0,0,0,.58,3.14c.91,1.71,3.5.19,2.59-1.51a4.34,4.34,0,0,1,0-2.55,14.31,14.31,0,0,0-.2-4.88,21.76,21.76,0,0,0-3.77-7.64c-2.89-4.2-6.92-7.61-10.92-10.7-9.26-7.16-19.91-12.38-30.45-17.36-11.13-5.26-22.53-10.56-34.55-13.46a95.71,95.71,0,0,0-16.57-2.59c-5.23-.32-10.38.76-14.5,4.14a7.59,7.59,0,0,0-1.49,1.39c.24-.37.55-.14,0-.1-.29,0-.57.09-.86.11a6.24,6.24,0,0,1-4.59-1.41,8.31,8.31,0,0,1,1.46-12.79,8.61,8.61,0,0,1,3.72-1,10.91,10.91,0,0,1,1.4,0l.4,0c.37,0-.34-.06,0,0a1.53,1.53,0,0,0,1.9-1.45,11.34,11.34,0,0,1,1.7-5.2c1.63-2.4,4.33-3,7-3.12a1.54,1.54,0,0,0,1.5-1.5,11.62,11.62,0,0,1,5.35-9.52c4.13-2.67,9.52-2.49,14-.82a1.52,1.52,0,0,0,1.85-1,11,11,0,0,1,17.39-6,1.46,1.46,0,0,0,1.52,0,17.35,17.35,0,0,1,14.82-2.52c5.19,1.4,9.62,4.3,11.74,9.44a1.54,1.54,0,0,0,1.84,1,16.87,16.87,0,0,1,13.42,1.87c3.92,2.42,7.64,6.92,6.85,11.81a1.58,1.58,0,0,0,1,1.85,12.45,12.45,0,0,1,4.89,4,11.58,11.58,0,0,1,2,7.28,1.44,1.44,0,0,0,.74,1.29,11.14,11.14,0,0,1,6.07,7.11,7.34,7.34,0,0,1-3.67,7.93,1.54,1.54,0,0,0-.69,1.7,9,9,0,0,1,0,4.59,1.51,1.51,0,0,0,.68,1.7A7,7,0,0,1,689,430.74a1.52,1.52,0,0,0,1.06,2.56,10.38,10.38,0,0,1,9.86,5.27,8.14,8.14,0,0,1,.57,7.41,8.36,8.36,0,0,1-4,3.78,1.49,1.49,0,0,0-.69,1.69c1.15,2.88.63,6.47-2.18,8.22-2.31,1.44-6.28,1.13-7.83-1.35C684.73,456.68,682.14,458.19,683.16,459.83Z"/>
            <path d="M688.4,413.16c-.87-5.7-6.94-9.12-12.37-8.4a1.17,1.17,0,0,0-1.13,1.13A1.13,1.13,0,0,0,676,407c4.56-.6,9.46,1.94,10.2,6.75a1.14,1.14,0,0,0,1.38.79,1.16,1.16,0,0,0,.79-1.39Z"/>
            <path d="M663.81,394.46a24.75,24.75,0,0,0-13.19-12.18A27.84,27.84,0,0,0,632,382c-.82.27-1.6.79-2.41,1-.23.07-.14.17-.38.1s-.66-.74-.77-.89a19.25,19.25,0,0,0-1.6-1.89,18,18,0,0,0-6.42-3.84,25.13,25.13,0,0,0-16.25-.15,16.45,16.45,0,0,0-11.08,13c-.22,1.42,1.94,2,2.17.6a14.17,14.17,0,0,1,9.16-11.32,23,23,0,0,1,15-.12,15.55,15.55,0,0,1,6,3.62c.87.92,1.51,2.24,2.61,2.93s1.84.32,2.79-.21a19.42,19.42,0,0,1,7-1.88,24.94,24.94,0,0,1,9,.46,22.63,22.63,0,0,1,15,12.13c.64,1.31,2.58.17,1.94-1.13Z"/>
            <path d="M674.12,407.9c3.73-1.49,8.1-3.58,10.23-7.19a12.35,12.35,0,0,0,.74-10.69c-2.53-6.91-10.73-10.71-17.75-9.21a11.66,11.66,0,0,0-9,8.67,1.13,1.13,0,0,0,2.17.59c1.75-7.14,9.69-8.72,15.7-6.08a12.11,12.11,0,0,1,6.3,5.62,10.7,10.7,0,0,1,.5,8.83c-1.63,3.77-5.86,5.85-9.47,7.29-1.33.53-.75,2.71.6,2.17Z"/>
            <path d="M646.88,381.17a14.62,14.62,0,0,1,8.72-12.52,1.14,1.14,0,0,0,.4-1.54,1.15,1.15,0,0,0-1.54-.4,17,17,0,0,0-9.83,14.46c-.11,1.45,2.14,1.44,2.25,0Z"/>
            <path d="M627.24,382.66a15,15,0,0,0,6.18-11.17c.3-5.28-2.8-10.05-7.07-12.91-1.21-.8-2.34,1.14-1.14,1.95,3.64,2.43,6.22,6.48,6,11a12.62,12.62,0,0,1-5.07,9.23c-1.15.85,0,2.81,1.14,1.94Z"/>
            <path d="M613.12,372.06a11,11,0,0,0-6.8-6.62,1.13,1.13,0,1,0-.6,2.17l.46.18c.22.08-.18-.09.06,0l.21.1a7.88,7.88,0,0,1,1,.56,7.35,7.35,0,0,1,.93.65,10.59,10.59,0,0,1,.85.79c.18.19.35.39.52.59s-.16-.21,0,0,.2.28.29.43a9.75,9.75,0,0,1,.57,1l.12.25c0,.07.16.28,0,.05a3,3,0,0,1,.16.42,1.12,1.12,0,0,0,2.17-.59Z"/>
            <path d="M597.28,383.37a13.6,13.6,0,0,0-12.78-5.87,1.18,1.18,0,0,0-1.13,1.13,1.13,1.13,0,0,0,1.13,1.12,11.49,11.49,0,0,1,6.65,1.1,11.3,11.3,0,0,1,2.77,2c.33.32.63.66.93,1a2.07,2.07,0,0,1,.2.27l.29.4c.81,1.19,2.76.06,1.94-1.14Z"/>
            <path class="k" d="M671.87,435.26a9.48,9.48,0,0,0,4.27-4.55c2.55-6.12-3.69-12.69-4.38-13.39a14.5,14.5,0,0,0-6.61-4,11.3,11.3,0,0,0-6.31-.19c-3.81,1.08-6.48,4.85-7.25,7.05,0,0-.23.66-.31.64s1.47-3.71.52-7.14a8.55,8.55,0,0,0-11.61-5.41"/>
            <path class="l" d="M623.79,409.08a9.58,9.58,0,0,1,9.51-4,12.3,12.3,0,0,1,8,4.77,11,11,0,0,1,1.76,4.42"/>
          </g>
        </g>
        <path class="m" d="M581.44,596.21a2.68,2.68,0,1,0,1.76,3.73A2.94,2.94,0,0,0,581.44,596.21Z"/>
        <path d="M582.13,594.73a4.3,4.3,0,1,0,2.55,5.9A4.57,4.57,0,0,0,582.13,594.73ZM579.21,601a2.68,2.68,0,1,1,4-1A2.95,2.95,0,0,1,579.21,601Z"/>
        <path d="M640.07,476.69c-1.19-.56-2.33-.38-2.71.43s.22,1.8,1.41,2.36,2.33.37,2.71-.44S641.26,477.24,640.07,476.69Z"/>
        <path class="m" d="M639.91,491.91a1.17,1.17,0,0,0,0,1,1.2,1.2,0,1,0,0-1Z"/>
        <path d="M641.22,489.85a2.12,2.12,0,1,0,.68,2.62A1.9,1.9,0,0,0,641.22,489.85Zm-1,2.24a.71.71,0,0,1,.08-.39.76.76,0,0,1,.25-.31.87.87,0,0,1-.09.39A.75.75,0,0,1,640.18,492.09Z"/>
        <g>
          <path class="m" d="M642.42,505.78a1.36,1.36,0,1,0,.66,1.81A1.36,1.36,0,0,0,642.42,505.78Z"/>
          <path d="M643.11,504.3a3,3,0,1,0,1.45,4A3,3,0,0,0,643.11,504.3Zm-1.84,3.95a1.36,1.36,0,1,1,1.81-.66A1.37,1.37,0,0,1,641.27,508.25Z"/>
        </g>
        <g>
          <path class="m" d="M619.76,511.36a3.61,3.61,0,1,0,4.93-2.1A3.81,3.81,0,0,0,619.76,511.36Z"/>
          <path d="M620.84,517.74c2.23,1,5-.3,6.3-3s.45-5.7-1.77-6.73-5,.29-6.3,3S618.62,516.7,620.84,517.74Zm5-3.59c-.87,1.86-2.79,2.8-4.29,2.11s-2-2.78-1.14-4.64,2.79-2.8,4.29-2.1S626.69,512.29,625.82,514.15Z"/>
        </g>
        <path class="m" d="M620.21,528.89a.85.85,0,0,0,.31.25.83.83,0,0,0,.39.08.85.85,0,0,0-.31-.25A.81.81,0,0,0,620.21,528.89Z"/>
        <path d="M621.29,527.49a1.76,1.76,0,1,0,1.16,2.45A1.92,1.92,0,0,0,621.29,527.49Zm-.77,1.65a.85.85,0,0,1-.31-.25.81.81,0,0,1,.39.08.85.85,0,0,1,.31.25A.83.83,0,0,1,620.52,529.14Z"/>
        <path class="m" d="M615.5,544.93a3,3,0,1,0-4,1.51A3.2,3.2,0,0,0,615.5,544.93Z"/>
        <path class="m" d="M595.41,553.8c-.58-.27-1.22-.16-1.41.24s.14,1,.72,1.24,1.23.16,1.42-.24S596,554.07,595.41,553.8Z"/>
        <path d="M597.62,555.73a2.84,2.84,0,1,0-3.59,1A2.65,2.65,0,0,0,597.62,555.73Zm-2.9-.45c-.58-.27-.91-.84-.72-1.24s.83-.51,1.41-.24.91.84.73,1.24S595.3,555.55,594.72,555.28Z"/>
        <path class="m" d="M594.49,570.38a.45.45,0,0,0,.6-.22.46.46,0,0,0-.22-.6.44.44,0,0,0-.6.22A.45.45,0,0,0,594.49,570.38Z"/>
        <path d="M592.79,569.09a2.08,2.08,0,1,0,2.77-1A2.08,2.08,0,0,0,592.79,569.09Zm2.08.47a.46.46,0,0,1,.22.6.45.45,0,1,1-.82-.38A.44.44,0,0,1,594.87,569.56Z"/>
        <path class="m" d="M578,579.6c-.24-.11-.77.15-1.08.8s-.16,1.23.08,1.34.77-.15,1.07-.8S578.21,579.71,578,579.6Z"/>
        <path d="M578.67,578.12a2.88,2.88,0,1,0,.86,3.51A2.56,2.56,0,0,0,578.67,578.12ZM577,581.74c-.24-.11-.38-.69-.08-1.34s.84-.91,1.08-.8.38.68.07,1.34S577.21,581.85,577,581.74Z"/>
        <path class="m" d="M656.28,489.24a1.42,1.42,0,1,0,1.1,2C657.7,490.57,657.21,489.67,656.28,489.24Z"/>
        <path d="M658.29,491.85a2.83,2.83,0,1,0-3.58,1A2.64,2.64,0,0,0,658.29,491.85Zm-2.89-.45c-.58-.27-.91-.83-.72-1.23s.83-.52,1.41-.25.91.84.72,1.24S656,491.67,655.4,491.4Z"/>
        <path d="M609.23,542.05c-1.07,2.29-.44,4.85,1.4,5.71s4.21-.31,5.28-2.6.44-4.86-1.4-5.71S610.3,539.75,609.23,542.05Zm5.4,2.52c-.7,1.51-2.2,2.31-3.34,1.78s-1.49-2.19-.78-3.71,2.21-2.31,3.34-1.78S615.34,543.05,614.63,544.57Z"/>
        <path class="j" d="M584.24,624.7a76.83,76.83,0,0,1-73-33.33"/>
      </g>
      <g>
        <g>
          <path class="b" d="M430.84,434.45l-4.95-.2a13.43,13.43,0,0,0-8.87,2.88c-2.25,1.87-2.47,3.7-4.87,4.36a6.34,6.34,0,0,1-2.92.06c-1.44-.33-1.86-1-4.13-2.55-2-1.33-2.93-2-4.09-2.21a6.58,6.58,0,0,0-4.56.83,6.83,6.83,0,0,0-2.63,3.46c-1.59,4.13,1,6.56-.77,9.27a4.33,4.33,0,0,1-3.59,2.07c-1-.11-1.2-.8-2.86-1.42-1-.37-2.32-.86-3.25-.32s-.59,1.51-1.43,3.76a8.49,8.49,0,0,1-2.32,3.87,5.85,5.85,0,0,1-8.84-1.29,5.81,5.81,0,0,1-.8-2.81,7.85,7.85,0,0,0-4.32-6.23c-3-1.31-6,.29-7.57,1.1-1.08.56-4.64,2.43-5.54,6-.67,2.63.84,3.45.08,6.4a8.41,8.41,0,0,1-3.45,5.06c-1.81,1.07-2.93.43-6.1,1.9a18.6,18.6,0,0,0-2.39,1.35,16.43,16.43,0,0,0-5.65,5.31,24.71,24.71,0,0,0-2.16,4.46,12.8,12.8,0,0,1-1.68,3.72,8.85,8.85,0,0,1-.89,1.12c2.53,5.17,6.21,12.53,10.88,21.31,5,9.39,7.5,14.09,10.94,19.5a212.65,212.65,0,0,0,17.25,23.2c6.12,7.34,11.78,13.38,14.27,16,7.22,7.68,10.59,10.64,16.17,17.77A71.07,71.07,0,0,1,408,594.71a88,88,0,0,1,4.37,11.15,187.69,187.69,0,0,1,5.13,18.33,69.86,69.86,0,0,0,17.05-.06A74.17,74.17,0,0,0,455,618.31a75.38,75.38,0,0,0,16.2-8.93,70.72,70.72,0,0,0,17.66-19c-1.84-2.43-4.32-5.84-7.11-10a106.64,106.64,0,0,1-7.31-12c-3.34-6.7-4.65-12.35-6.06-18.37-.37-1.6-.25-1.25-2.71-14.91-1.54-8.55-1.62-8.88-2.37-13.18-1.49-8.39-1.83-10.82-2.8-16.43-1.82-10.5-2.73-15.75-4-21.17-2.2-9.22-5-16.33-10.72-30.56-2.32-5.8-5.55-13.61-9.69-22.79a7.6,7.6,0,0,1-2,2.09A7.38,7.38,0,0,1,430.84,434.45Z"/>
          <path class="c" d="M435.9,430.64a12.41,12.41,0,0,1-4.64,2.66,13.32,13.32,0,0,1-2.59.51c-3.38.41-4-.42-6.54.05a11.6,11.6,0,0,0-4.05,1.61,15.49,15.49,0,0,0-3,2.59c-1.17,1.31-1.45,2.07-2.6,2.63a4.79,4.79,0,0,1-2.07.47c-4.35.12-7.08-5-11.45-4.59a6.2,6.2,0,0,0-3.32,1.46,7,7,0,0,0-2.16,5.1c0,.47.07,1.62.13,2.72a9.55,9.55,0,0,1,.07,1.55,5.35,5.35,0,0,1-1.79,3.09,4.34,4.34,0,0,1-1.85,1.23,4.07,4.07,0,0,1-2.07,0,5.17,5.17,0,0,1-1.53-.67c-1.19-.68-1.33-1.1-2-1.18a2.39,2.39,0,0,0-1.52.45c-1.87,1.23-.63,3.79-2.59,6.22a6.48,6.48,0,0,1-2.58,1.87,6.37,6.37,0,0,1-4.5.28,5.47,5.47,0,0,1-2.8-2.22,20.94,20.94,0,0,1-1-4h0c-.05,0-1-2.86-2.77-4.1-1.34-.91-2.9-.76-4.52-.6a12.29,12.29,0,0,0-6.66,2.88,8.26,8.26,0,0,0-3.1,4.56,11.48,11.48,0,0,0,0,3.1c.22,2.17.57,2.39.34,3.39-.38,1.65-1.75,2.53-1.41,3,.17.23.63.17.85.14.59-.09,1.22-.51,2.07-2a8.28,8.28,0,0,0,.6-1.2,20.62,20.62,0,0,1,.89-2.24,5,5,0,0,1,2.34-2,5.6,5.6,0,0,1,3.35-.57,5,5,0,0,1,3.19,1.75,10.38,10.38,0,0,1,1.09,2.2c.14.37.16.49.26.72a8.37,8.37,0,0,0,1.69,2.55,9.61,9.61,0,0,0,5.14,2.44,11.11,11.11,0,0,0,6.5-1.12,12.16,12.16,0,0,0,4.22-2.91,10,10,0,0,1,1.16-1.3,7.92,7.92,0,0,1,2.47-1.53,5.76,5.76,0,0,1,2.28-.48,12.85,12.85,0,0,1,1.63.25,10.89,10.89,0,0,0,2.52,0,16.15,16.15,0,0,0,3.33-.77,12.56,12.56,0,0,1,2.72-.92,3.53,3.53,0,0,1,2.14.22,3.27,3.27,0,0,1,1.33,1.34,4.37,4.37,0,0,1,.57,1.78c.29,2.8,1.38,5.45,2.07,8.18,0,0,1.3,5.19,3,10l.18.52c.76,2.16,1.07,3.08,1.07,3.08.31.92.36,1.09.84,2.45.62,1.73.94,2.59,1.75,4.73A169,169,0,0,1,418,507.16c.64,2.58,1.51,6.46,1.87,8l.94,4.21c3.19,13.8,4.16,15.55,6.75,26.81a137.26,137.26,0,0,1,3,20.6c.37,6.42.09,10.95,2.17,17.78,1.9,6.26,4.18,9.19,7,10.95a13.13,13.13,0,0,0,6.38,2.06,17.41,17.41,0,0,0,7.61-1.71c.52-.23,1.46-.79,3.42-1.77.87-.44,1.7-.84,2.45-.5a1.73,1.73,0,0,1,.83.83c.67,1.43-1.09,3.56-2,4.76a23.08,23.08,0,0,1-4.46,4.06,54.42,54.42,0,0,1-11,6.67l-.56.26a46.65,46.65,0,0,1-8.15,3,26.78,26.78,0,0,1-3.91.62.51.51,0,0,0-.37.14.39.39,0,0,0-.05.3c.09.39,1.55.51,2.18.51,6.9,0,15.72-4,15.72-4a112.64,112.64,0,0,0,14.67-8.27c1.67-1.13,3-2.18,3.23-2.32a78.12,78.12,0,0,0,6.25-5.31c7.14-6.75,11.91-11.27,10.71-14.64-.22-.62-.39-.5-1.77-2.2a43.9,43.9,0,0,1-4.5-7.21c-2.71-5-4.06-7.5-5.15-10.7-.46-1.36-.88-3.08-1.71-6.46-.45-1.82-.88-3.58-1.36-5.68,0,0-.57-2.48-1.07-4.92-1.23-5.87-2.25-14-3.6-22.85-.53-3.49-1.26-8.29-2.42-14.54-.21-1.16-1.08-5.81-2.38-11.92-.69-3.23-1-4.85-1.46-6.58a120.27,120.27,0,0,0-3.92-12.61c-3.76-10.45-6.6-17.49-6.6-17.49C442.58,446.94,439,438.05,435.9,430.64Z"/>
          <path class="d" d="M425.28,619.39c-2.83-1.53-3.78-4-7.36-14.7s-5.15-15.76-7.72-20.42c-1.91-3.46-4.17-6.8-4.17-6.8-1.43-2.12-2.62-3.68-3.16-4.38-7.51-9.77-11.52-14.44-19.58-24.31a204.39,204.39,0,0,1-21.73-34,164.33,164.33,0,0,1-15-47.1,15.42,15.42,0,0,0-5,1.52c-4,2-6.09,5.32-8.21,8.65a40,40,0,0,0-3.34,6.55c2.11,4.28,5.2,10.41,9.08,17.7,6.85,12.91,10.28,19.36,15.72,27.41a215.55,215.55,0,0,0,14.66,19.14c7.61,9,14.16,15.73,14.16,15.73,2.89,3,5.45,5.45,9.36,9.88,4.19,4.77,6.68,8.08,7.28,8.89a86.25,86.25,0,0,1,6.94,10.42c2.8,5.09,4.13,9.11,6.05,14.92a148.64,148.64,0,0,1,4.25,15.68,69,69,0,0,0,24.23-.9,72.84,72.84,0,0,0,15.92-5.58,80.1,80.1,0,0,0,14.58-8.8,77.08,77.08,0,0,0,17.28-18.5l-2.58-3a101.48,101.48,0,0,1-11.61,12.63c-4.76,4.38-11,10-20.63,14.49A61.45,61.45,0,0,1,434.62,620C428.79,620.7,426.82,620.22,425.28,619.39Z"/>
        </g>
        <path class="e" d="M427.4,407.22c2.84.5,6.87-2,7.71-5.86a7.94,7.94,0,0,0-5.66-9.06,9.7,9.7,0,0,0-.52-6.65c-2-4.09-6.94-5.5-10.62-5.11a12.14,12.14,0,0,0-8.2,4.85,8.67,8.67,0,0,0-3.61-5.94,8.92,8.92,0,0,0-8.1-.68,7.57,7.57,0,0,0-1-1.31,7.77,7.77,0,0,0-1.84-1.4l-1.29-.72a8.8,8.8,0,0,0-3.05-8.53,9.93,9.93,0,0,0-5.67-2.07,12.63,12.63,0,0,0-6.33,1.1,12.84,12.84,0,0,0-14.87-2,10.62,10.62,0,0,0-2.38-2.09,12.23,12.23,0,0,0-6.62-1.72,18.12,18.12,0,0,0-14.11,6.1,18.63,18.63,0,0,0-3,4.66,17.25,17.25,0,0,0-7.14-.75,18.52,18.52,0,0,0-8.8,3.6,19,19,0,0,0-5.69,5.63,18.51,18.51,0,0,0-2.84,8.54,12.82,12.82,0,0,0-9.3,9.1,13.12,13.12,0,0,0,2,10.37,18.59,18.59,0,0,0-5.2,4.26,15.14,15.14,0,0,0-3.49,6.33,13.8,13.8,0,0,0,0,6.75,13.32,13.32,0,0,0,4.06,6.51c-.27.36-.64.87-1,1.5a13,13,0,0,0-1.13,2.07,9.37,9.37,0,0,0-.55,3.31c.06,3.76,3.35,7,3.66,7.28-.28.23-4.21,3.66-3.49,8.69a9.61,9.61,0,0,0,3.84,6.21c.66.49,4.13,3.06,8.07,1.65a8.32,8.32,0,0,0,4.57-4.28,16.54,16.54,0,0,1,.57-6.85,19.16,19.16,0,0,1,3.61-6.4,42.89,42.89,0,0,1,5.11-5.21c1.78-1.63,4.09-3.73,7.43-6.29,1.21-.92,4.2-3.17,8.56-5.87,3.81-2.36,7.06-4,13.57-7.27,9.17-4.62,16.34-7.73,19.34-9,4.15-1.79,8.6-3.68,13.51-5.36a92.3,92.3,0,0,1,14.24-3.81c7.1-1.27,10.57-1,11.86-.82,3.16.35,5.91.66,8.71,2.53S425.33,406.85,427.4,407.22Z"/>
        <path class="e" d="M316.3,459a15.09,15.09,0,0,1,0-6.81c.9-3.79,3.17-6.23,6.81-10.16a60.08,60.08,0,0,1,5.56-5.25,81.91,81.91,0,0,1,8.4-6.21,249.34,249.34,0,0,1,24.33-13.46c7.53-3.73,11.84-5.85,18.22-8.42a127.45,127.45,0,0,1,16.22-5.44c5.89-1.51,8.83-2.27,12.8-2.26a34.29,34.29,0,0,1,16.17,4.29c.79,1.24,1.64,2.49,2.34,3.86a224.31,224.31,0,0,1,8.82,20.76,14.31,14.31,0,0,1-7.49,4.13c-3.91.67-5.42-1.09-8.68-.1-4.45,1.34-4,5.34-7.63,6.37-5.14,1.43-8.63-5.74-13.83-4.07a8.11,8.11,0,0,0-5.22,6c-.21,1.46.35,2,.05,4-.15,1-.59,3.84-2.39,4.81-2.42,1.29-4.85-2.26-7.35-1.13s-1.38,4.84-4.53,7.14c-1.74,1.27-4.49,1.9-6.13.82s-.88-3-2.54-6c-.29-.51-2-3.64-4.83-4.6-4.32-1.49-10.76,2.36-12.88,7.36-1.85,4.36.53,7.36-1.94,10.32-1.82,2.19-4.48,2.19-6.79,2.78-4,1-9.32,4.47-14.37,15.65Z"/>
        <path class="f" d="M302.65,431.43a11.55,11.55,0,0,0-1.3,2,10.45,10.45,0,0,0-1.4,4.15,6.54,6.54,0,0,0,.11,2.19,7,7,0,0,0,1.15,2.4,10.14,10.14,0,0,0,1.42,1.79,2,2,0,0,1,.78,1.16,1.64,1.64,0,0,1,0,.56c-.15.77-.94,1.18-1.37,1.47a5.64,5.64,0,0,0-1.72,2.71,7.82,7.82,0,0,0-.12,5.34,8.48,8.48,0,0,0,1.94,3.1,8.16,8.16,0,0,0,4,2.71,7.54,7.54,0,0,0,4.6-.24,7.77,7.77,0,0,0,3.88-3.32l-.36-2.51-.57.25a8,8,0,0,1-1.11.11,8.12,8.12,0,0,1-1.43-.13,9.84,9.84,0,0,1-3.54-1.07,6,6,0,0,1-1.54-1.4,4.7,4.7,0,0,1-1-2,5,5,0,0,1,0-1.52,5.43,5.43,0,0,1,.24-1.09,13.56,13.56,0,0,1,.85-1.69,4.34,4.34,0,0,0,.48-1.17,2.47,2.47,0,0,0,0-1.11c-.12-.51-.44-.76-.93-1.25a12,12,0,0,1-1.62-1.87,6,6,0,0,1-.84-2,6.16,6.16,0,0,1,0-2.43,8.28,8.28,0,0,1,.93-2.48,14.11,14.11,0,0,1,1.4-2.14,15.41,15.41,0,0,1,2.53-2.55,16,16,0,0,1,3.45-2.12,12.49,12.49,0,0,0-4.19.85A11.31,11.31,0,0,0,302.65,431.43Z"/>
        <path class="g" d="M311.79,407.17a10.71,10.71,0,0,0-6.92,2,14.67,14.67,0,0,0-4.42,4.34c-.7,1.06-4,6.05-2,11.45a11.36,11.36,0,0,0,3.62,5,20.9,20.9,0,0,1,1.81-1.49A25.85,25.85,0,0,1,306,427c-.49-.38-4-3.23-4-7.76a10.22,10.22,0,0,1,2.76-6.54,13,13,0,0,1,4.84-3.43,15.9,15.9,0,0,1,4.89-1.35A8.92,8.92,0,0,0,311.79,407.17Z"/>
        <path class="g" d="M325.9,391a13,13,0,0,0-9.68-2.79,12.43,12.43,0,0,0-2.58.62c-.38.14-.75.29-1.13.46a12.24,12.24,0,0,0-6.21,16.12,10.8,10.8,0,0,0,.76,1.38,14.76,14.76,0,0,1,1.75-.09,11.21,11.21,0,0,1,.14-5.35,11.78,11.78,0,0,1,4.3-6.15,14.17,14.17,0,0,1,6.09-2.72,16.35,16.35,0,0,1,8.3.49A11.74,11.74,0,0,0,325.9,391Z"/>
        <path class="h" d="M321.41,375.2a17.51,17.51,0,0,0-6,6.51,15.33,15.33,0,0,0-1.58,6,13.44,13.44,0,0,1,2.07-.45,14.41,14.41,0,0,1,2.53-.12,14.59,14.59,0,0,1,2.77.35,11.88,11.88,0,0,1,2.39-6,12.81,12.81,0,0,1,7.53-4.87,11.3,11.3,0,0,1,6.36.57,9.55,9.55,0,0,1-.12-3.64,9.87,9.87,0,0,1,.48-1.81,12.54,12.54,0,0,0-4.84-.88,15.6,15.6,0,0,0-5.32,1.12A24.53,24.53,0,0,0,321.41,375.2Z"/>
        <path class="g" d="M347.21,361.44a15.15,15.15,0,0,0-8,9.13,15.73,15.73,0,0,0-.12,9.27c.15.49.32,1,.51,1.46s.23.55.32.73a4,4,0,0,0,1.37,1.41,13.58,13.58,0,0,1,1.15-8.31,14.34,14.34,0,0,1,7.05-6.42,19,19,0,0,1,11.58-1.58,14.23,14.23,0,0,1,2.74-3.22A15.34,15.34,0,0,0,347.21,361.44Z"/>
        <path class="f" d="M364.28,364.71c-.21.09-.4.21-.6.31a20.83,20.83,0,0,0-2.21,1.44,12.77,12.77,0,0,0-4.56,6.24,9.79,9.79,0,0,0,.24,5.38c.35-.8,3.31-7.27,9.93-8.67a11.12,11.12,0,0,1,8.26,1,9.87,9.87,0,0,1,3.34,3.55,10.58,10.58,0,0,1,.92,7.61,12.07,12.07,0,0,0,2-3.93,10.5,10.5,0,0,0,.28-1.39,11.7,11.7,0,0,0,.09-2.51,11.08,11.08,0,0,0-1-3.78,10.7,10.7,0,0,0-.92-1.58,11.05,11.05,0,0,0-1.58-1.83A12.93,12.93,0,0,0,364.28,364.71Z"/>
        <path class="h" d="M381.05,366.15c-.23.11-.45.23-.67.36l.54.85.83,1.37a6.71,6.71,0,0,1,4.12,1.1,6.87,6.87,0,0,1,2.81,4,15.31,15.31,0,0,1,6,.81,13.45,13.45,0,0,0-.83-2.35C391.29,366.8,385.55,364.05,381.05,366.15Z"/>
        <path class="f" d="M426.38,383.55a8.86,8.86,0,0,0-5.24-2.15,11,11,0,0,0-8.06,2.21,11.9,11.9,0,0,0-2,1.94c-.7.67-1.08.72-1.3.64-.69-.27-.09-1.93-1.05-3.66a6.06,6.06,0,0,0-2.25-2.13,6.94,6.94,0,0,0-2.91-1.22,19.76,19.76,0,0,0-3.36.14c-1.41.11-1.63.16-2.07,0-.86-.27-1.11-.81-2.11-1.68A13.46,13.46,0,0,0,393.6,376a9.62,9.62,0,0,0-4.64-.94c-4.37.29-6.93,4.1-7.22,4.54l-.57,2.9a11.87,11.87,0,0,1,.94-.93,11.45,11.45,0,0,1,4.6-2.62,8.19,8.19,0,0,1,3.38-.34,7.52,7.52,0,0,1,3.05,1.11,7.38,7.38,0,0,1,2,1.95,5.33,5.33,0,0,0,2.33,1.07c1.91.34,2.53-.77,4.45-.56a5.85,5.85,0,0,1,3.95,2.39,9.78,9.78,0,0,1,.86,1.62,8.43,8.43,0,0,0,.59,1.53,3.9,3.9,0,0,0,1,1.13c1.32.8,3.09-.07,3.39-.21,1-.49.67-.74,2-1.54a8.78,8.78,0,0,1,2.79-1.07l.54-.08a7.43,7.43,0,0,1,4.94,1.06c.42.26,2.87,1.87,3.19,4.48.22,1.78-.74,2.58-.12,3.48.8,1.16,2.68.23,4.16,1.59a4,4,0,0,1,1.12,2.77c0,2.12-2.19,4.27-5.38,4.82a4.34,4.34,0,0,0,1,1.19,4.39,4.39,0,0,0,1.88.92,7.21,7.21,0,0,0,4-1.59,6.36,6.36,0,0,0,2.3-3.64,6.06,6.06,0,0,0-.27-3.27,7.19,7.19,0,0,0-2.5-3.43,7.33,7.33,0,0,0-1.89-1,2.15,2.15,0,0,1-.68-1,3.56,3.56,0,0,1,.24-1.88,5.31,5.31,0,0,0-.42-2.78A8.8,8.8,0,0,0,426.38,383.55Z"/>
        <path class="a" d="M312.63,420.48c0-6.62,4.55-11,5.95-12.33,6.3-6.1,14.47-5.87,16.13-5.79a24.6,24.6,0,0,1,3.64-9.29,25.19,25.19,0,0,1,8.62-8,22.76,22.76,0,0,1,13-3.13c2.25.2,4.92.8,4.91,1.35,0,.27-1.32.6-3.93,1.24-3.84.95-4.32,1.07-5,1.25a26,26,0,0,0-5.35,2.07,20.91,20.91,0,0,0-5.78,4.61,22.35,22.35,0,0,0-3.85,6.39c-.44,1.12-1.3,3.54-1.6,4.4a16.89,16.89,0,0,1-1,2.69C337,408,334,407,329.66,408a17.45,17.45,0,0,0-8.14,4.27,16.56,16.56,0,0,0-4.48,8.06,22.28,22.28,0,0,0-.41,6.94c.2,2.88.77,4.25.52,4.34C316.64,431.82,312.61,426.86,312.63,420.48Z"/>
        <path class="a" d="M379.83,393.14a9.8,9.8,0,0,0-3.25,3.08,9.92,9.92,0,0,0-1.24,6.73,6.2,6.2,0,0,0,.71,2.95,6.3,6.3,0,0,0,1.93,2.21,12.28,12.28,0,0,1,.44-4.83,11,11,0,0,1,4.92-6.53,11.53,11.53,0,0,1,6-1.22,15.33,15.33,0,0,1,4.53.74,10.67,10.67,0,0,1,3.27,1.54,9.42,9.42,0,0,1,2.87,3.43,3,3,0,0,0,.9-1.31,4.19,4.19,0,0,0-.19-2.52,8.51,8.51,0,0,0-1.24-3.21,6.67,6.67,0,0,0-2.16-1.81,16.49,16.49,0,0,0-6.35-2.05A17.81,17.81,0,0,0,379.83,393.14Z"/>
        <path class="a" d="M350.33,420.15c.38.26,1.06-.07,1.66-.46a11.12,11.12,0,0,1,2.71-5.7c4.08-4.45,10.37-3.52,10.94-3.42a9.08,9.08,0,0,0-3.55-1.43,10.42,10.42,0,0,0-9.38,3.61C350.35,415.46,349.41,419.53,350.33,420.15Z"/>
        <path class="a" d="M363.2,408.82a10.85,10.85,0,0,1,3.79,1.56.8.8,0,0,0,.2-.37,1.19,1.19,0,0,0-.31-.95,3.32,3.32,0,0,0-1.21-1c-1-.56-1.83-.51-1.86-.8s.53-.4.5-.53-2.43.16-3.73,1.15c-.1.08-.22.18-.21.29C360.41,408.52,361.92,408.56,363.2,408.82Z"/>
        <path class="a" d="M360.68,407.62l1.35,1.25a8.26,8.26,0,0,1,4.86-3.09A8.58,8.58,0,0,1,375.1,409c.29,0,1.09-.05,1.2-.41s-.23-.55-.41-.74c-1.07-1.1-.79-1.34-1.78-2.4a8.53,8.53,0,0,0-3.76-2.5,8,8,0,0,0-5.66.56A8.59,8.59,0,0,0,360.68,407.62Z"/>
        <path class="a" d="M392.13,450.07c.44-.68.06-1.52-.24-3a17.65,17.65,0,0,1-.26-4.7,3.75,3.75,0,0,0-.81.54,3.91,3.91,0,0,0-.78.87c-1,1.44-.91,2.87-1.61,3.1s-1.23-.22-2.88-1.79c-2.83-2.67-5.9,1.56-7,5.27s-5,1.52-6.9-4-10.95-9.28-15.76-7.43-11.66,14.22-11.33,19.66-5.3,4.87-9.45,6.8-8.44-5.25-9.13-10.12,4.91-9.08,10.35-11.61c7.55-3.52,3.08-6.73,7.46-11.07,6.49-6.43,16.68-10.46,20.08-11.21a4.66,4.66,0,0,0,1.26-.44c2.31-1.19,3.29-4.08,3.73-6.85l-2.26,1L364,416.34l-.1.05c-.84.37-1.7.77-2.58,1.18-5.75,2.68-11.22,5.53-16.27,8.46-17.14,10-26.68,21.07-28.67,25.73a8.31,8.31,0,0,0-.84,3.62c.87,2.82,1.92,5.8,3.18,8.88a103.12,103.12,0,0,0,10.37,19.16,26.41,26.41,0,0,1,12.28-15.65c5.3-2.92,7.4-1.4,9.09-3.92,2.22-3.33-1-6.63,1.43-11.31a11.66,11.66,0,0,1,5.26-4.89c.62-.31,6.1-3.12,9.9-.73,2.24,1.41,3.83,4.57,4.47,6.79a8.85,8.85,0,0,0,2.34,4.37,3,3,0,0,0,1.36.69,3.34,3.34,0,0,0,2.18-.35c1.75-.87,1.54-2.72,3.25-5.32.75-1.14,2.36-3.59,4.68-3.72a4.83,4.83,0,0,1,3.46,1.49C390,451,391.57,451,392.13,450.07Z"/>
        <path class="i" d="M417.53,625.75a88.39,88.39,0,0,0,10.7,0,78,78,0,0,0,25.67-5.54,78.77,78.77,0,0,0,20.65-12.61,80.74,80.74,0,0,0,14.9-16.53c1.69,1.81,3,3.39,4,4.57a22.45,22.45,0,0,1,2.57,3.51,16.69,16.69,0,0,1,1.67,4.24,29.54,29.54,0,0,1-2.74,9.29c-3,6-7.22,9.37-12.45,13.34-6.68,5.06-12.38,7.69-18.24,10.39-9.4,4.33-15.1,5.57-16.71,5.91a59.77,59.77,0,0,1-10.6,1.17,30.65,30.65,0,0,1-8.13-.6,26.58,26.58,0,0,1-6.68-2.54,35.2,35.2,0,0,1-3.64-8.82A36,36,0,0,1,417.53,625.75Z"/>
        <g>
          <path d="M324.71,479.47c.73,1.35,1.42,2.75,2.26,4a3.33,3.33,0,0,0,1.76,1.65c2.19.58,3.12-2.14,3.73-3.65,2.27-5.57,6-10.77,11.89-12.83,1.45-.51,3-.59,4.44-1.14a7.79,7.79,0,0,0,3.65-2.67,6.51,6.51,0,0,0,1.09-4.38c-.15-1.59-.69-3.19-.38-4.8.84-4.44,7.09-8.15,11.41-7.44,3,.5,4.64,3.89,5,6.63a5.87,5.87,0,0,0,4.84,5.39,6.84,6.84,0,0,0,7.27-3.2,14.06,14.06,0,0,0,1.13-3.81,3.8,3.8,0,0,1,.94-1.94c.61-.55,1.2-.14,1.8.23,1.37.86,2.66,1.83,4.37,1.58a5.48,5.48,0,0,0,3.68-2.65c1.55-2.41.34-4.87.64-7.5s1.7-5.15,4.62-5.56a7.41,7.41,0,0,1,3.85.8,20.56,20.56,0,0,1,2.61,1.81c1.9,1.38,4.36,2.78,6.8,2.27s3.43-3.13,5.16-4.65a9.8,9.8,0,0,1,7.82-2.62,14.44,14.44,0,0,0,8.36-1,16.11,16.11,0,0,0,4.18-3.07,1.49,1.49,0,0,0,.38-1.46c-2.53-6.79-5.09-13.61-8.61-20a22.21,22.21,0,0,0-5-6.7,17.2,17.2,0,0,0-9.29-3.51,41.53,41.53,0,0,0-10.45,0,83.27,83.27,0,0,0-11.37,2.51,158.49,158.49,0,0,0-17,6,263,263,0,0,0-31.88,15.33,113,113,0,0,0-14.05,9.38c-4.51,3.59-9,7.42-12.41,12.1a20,20,0,0,0-3.63,7.94,14.28,14.28,0,0,0,1.11,8.64c2.36,5.54,5.43,10.76,8.19,16.1l1.13,2.16c.91,1.7,3.5.19,2.59-1.52-2.26-4.24-4.54-8.5-6.74-12.78-1.34-2.59-3-5.41-3.47-8.32a12.73,12.73,0,0,1,1.38-7.41c2.47-5.05,7-9,11.23-12.54a100.93,100.93,0,0,1,12-8.66,225.84,225.84,0,0,1,29.64-15.13c5.42-2.35,10.91-4.59,16.52-6.46,6.42-2.15,13.28-4.28,20.08-4.64a30.9,30.9,0,0,1,10.79,1.05,12.61,12.61,0,0,1,6.88,5.93c4,6.68,6.77,14,9.48,21.29l.39-1.46a10.65,10.65,0,0,1-7.82,3.46c-1.38,0-2.74-.37-4.13-.37a11,11,0,0,0-5,1.26,16.12,16.12,0,0,0-5.81,5.07c-1.17,1.6-2.4,1.31-4.1.38-2.27-1.24-4-3.09-6.5-3.85a8.48,8.48,0,0,0-7.74,1.36c-2.25,1.82-3.09,4.69-3.26,7.48a25.6,25.6,0,0,0,.31,3.6c.09,1.13-.76,2.85-2,3s-2.58-1.47-3.69-1.89a3.88,3.88,0,0,0-4.15.89,7.61,7.61,0,0,0-1.87,3.95c-.25,1.36-.45,2.62-1.63,3.53-1.67,1.29-5,1-5.51-1.44a21.7,21.7,0,0,0-.78-3.73,11.26,11.26,0,0,0-3-4.38c-4.15-3.64-10.36-1.54-14.23,1.49a11.62,11.62,0,0,0-4.29,6,10.88,10.88,0,0,0,0,4.51c.24,1.53.54,3.07-.59,4.34s-2.56,1.37-4,1.69a19.84,19.84,0,0,0-4.56,1.63,22.37,22.37,0,0,0-7.69,6.58c-2,2.61-2.91,5.52-4.33,8.39-.08.16-.18.32-.27.48s-.1,0,0,.07,1.16-.11,1.09.18a2.6,2.6,0,0,0-.26-.32A37.08,37.08,0,0,1,327.3,478C326.39,476.25,323.8,477.76,324.71,479.47Z"/>
          <g>
            <path class="j" d="M355.12,420.06c2.66-1.38,4.92-2.52,6.33-3.22l2.39-1.18c4.74-2.31,7.68-3.75,11.61-5.41,2.44-1,6.51-2.74,12-4.5a121.75,121.75,0,0,1,15.2-3.77,43.38,43.38,0,0,1,9-.88,22,22,0,0,1,7.11,1.11,20.43,20.43,0,0,1,3.6,1.65,15.31,15.31,0,0,1,2.54,1.76c1.45,1.28,2.23,2.72,3.59,5.34,2,3.86,3,6.36,3,6.36,2,4.23,3.37,8.57,5.44,13.27,0,0,.57,1.37,1.67,4.05,1,2.46,3.8,9.16,6.6,16.13,3.06,7.59,5.36,13.34,7.27,18.59s3.43,10,4.9,15.58c.44,1.67.82,3.19,1.17,4.72.88,3.83,1.42,6.8,1.71,8.45,3.72,20.81,4,22.36,4.29,24.43,1.39,8.92,1.21,9,2.2,14.48,0,0,1,5.73,3.13,15.13.08.33.21.92.4,1.68.37,1.5.84,3.21,1.44,5.06a73.06,73.06,0,0,0,7.63,16.23c1.41,2.27,2.81,4.27,4.1,6.12l.7,1,1.18,1.7,1.49,2.17,1.73,2.5,2.55,3.68c1.31,1.81,2.82,3.66,4.4,5.61a10.33,10.33,0,0,1,2,3.34,10.7,10.7,0,0,1,.44,1.87,10.32,10.32,0,0,1,0,2.39,16,16,0,0,1-1.23,4.7,27.37,27.37,0,0,1-3.26,5.8,28.92,28.92,0,0,1-2.06,2.47,46.66,46.66,0,0,1-6.3,5.82c-2.32,1.82-4.77,3.51-7,5s-4.31,2.63-5.84,3.49-2.54,1.38-2.71,1.47l-1.3.65c-7,3.41-9.2,4.34-9.2,4.34a62.62,62.62,0,0,1-11.22,3.47,58.17,58.17,0,0,1-9.87,1.24c-1.78.05-3,0-5.09-.13a36,36,0,0,1-7.23-1.06,8,8,0,0,1-1.73-.66,8.55,8.55,0,0,1-2.5-2,12.83,12.83,0,0,1-2.54-5.45c-1.16-5.08-1.8-8.89-2.31-11.06-.79-3.34-1.58-6.33-2.3-8.93-.51-1.81-1.56-5.39-2.94-9.32a77.2,77.2,0,0,0-4.84-11.4c-.72-1.29-1.42-2.45-2.05-3.45s-1.21-1.87-1.69-2.55l-1.17-1.75c-.49-.71-1.07-1.54-1.72-2.44-1-1.42-2.41-3.21-4.4-5.55s-4.62-5.23-8.15-8.84c-1.19-1.22-1.08-1.07-2.46-2.47-.61-.62-3.27-3.33-6.66-7-2.29-2.5-9.64-10.55-16.35-19.24-2.67-3.47-5-6.68-5.31-7.16-.91-1.26-1.83-2.58-2.79-4-1.43-2.12-2.51-3.82-3.05-4.67-2.1-3.34-3.63-6-4.4-7.43-6.65-11.87-10.73-20-10.73-20s-12.43-24.68-14.67-28.44c0,0-.06-.11-.14-.23-.33-.57-1.08-1.87-2-3.63l-.46-.95a53.63,53.63,0,0,1-2.41-6.18,7.5,7.5,0,0,1-.37-1.47,7.83,7.83,0,0,1,.42-3.81,21.31,21.31,0,0,1,1.44-3.65,23.07,23.07,0,0,1,2.26-3.57,41.44,41.44,0,0,1,4.17-4.53c1.34-1.35,2.37-2.39,3.92-3.72,1.4-1.21,2.48-2,4.12-3.27,0,0,2.23-1.68,4.22-3.07C341,427.37,347.17,424.18,355.12,420.06Z"/>
            <g>
              <path d="M427,408.67c4.36.62,8.74-2.8,9.59-7.07,1-4.82-2.23-9.27-6.74-10.75l1,1.85a10.78,10.78,0,0,0-1.58-9.25,11.65,11.65,0,0,0-7.28-4.24,13.48,13.48,0,0,0-13.22,5.42l2.8.76a10.2,10.2,0,0,0-4.54-7.36,10.34,10.34,0,0,0-9.43-.56l2.05.54a12.07,12.07,0,0,0-4.7-4l.69,1.7a10.47,10.47,0,0,0-4.81-11c-3.73-2.2-8.59-1.91-12.44-.21l1.82.23a14.59,14.59,0,0,0-16.69-2.25l1.82.24c-4-4.65-11-5.13-16.51-3.35a19.9,19.9,0,0,0-12,10.61l1.69-.69c-6.06-1.93-12.07-.48-17.19,3.06a20.52,20.52,0,0,0-9.18,15.4l1.1-1.45a14.55,14.55,0,0,0-10.2,9.65,14.25,14.25,0,0,0,2,12l.54-2.06c-4.89,2.77-9,7.61-9.71,13.3a14.73,14.73,0,0,0,4.78,12.91l-.24-1.82c-2,2.72-3.39,5.69-2.75,9.15a13.34,13.34,0,0,0,3.94,6.83v-2.12a11.1,11.1,0,0,0-3,12.85c1.94,4.26,7,7.36,11.72,6.52a9.43,9.43,0,0,0,6.34-4.66,5,5,0,0,0,.41-3.05,14.87,14.87,0,0,1,.85-5.42c1.63-4.62,5.7-8.12,9.21-11.3a101.78,101.78,0,0,1,14.18-10.68c5.24-3.28,10.84-6,16.38-8.72,10.92-5.4,22.19-10.63,33.84-14.27A67.37,67.37,0,0,1,410.55,402a31.36,31.36,0,0,1,5.39.44,14.09,14.09,0,0,1,4.85,1.57,14.81,14.81,0,0,1,3.39,2.93,5.43,5.43,0,0,0,2.82,1.72c1.88.4,2.69-2.49.8-2.9-1-.21-1.49-1-2.16-1.67a14,14,0,0,0-4.07-3.06,23.72,23.72,0,0,0-8.31-1.92c-5-.49-10.26.47-15.15,1.54-11.33,2.48-22.09,7.28-32.6,12.1-11.26,5.16-22.71,10.52-32.7,17.93a93.68,93.68,0,0,0-12.6,11c-3.61,3.85-6.16,8.6-6.08,14,0,.34,0,.67.05,1s0,.39.05.58l.14-.29c-.26.37-.43.8-.7,1.16a6.35,6.35,0,0,1-3.28,2.37,6.58,6.58,0,0,1-4.67-.51,10.82,10.82,0,0,1-2.06-1.3,7.7,7.7,0,0,1-2.79-7.55,9.16,9.16,0,0,1,3-4.82,1.51,1.51,0,0,0,0-2.12,10.62,10.62,0,0,1-3.09-5.15c-.61-2.75.8-5.07,2.37-7.19a1.51,1.51,0,0,0-.23-1.82,11.89,11.89,0,0,1-4-10.34c.57-4.8,4.21-8.85,8.28-11.16a1.51,1.51,0,0,0,.54-2.05,11,11,0,0,1,6.39-17.26,1.57,1.57,0,0,0,1.1-1.45,17.4,17.4,0,0,1,7.88-12.95c4.45-3,9.44-4.29,14.69-2.62a1.52,1.52,0,0,0,1.7-.69,16.93,16.93,0,0,1,9.87-9.12c4.64-1.58,10.48-1.48,13.89,2.47a1.51,1.51,0,0,0,1.81.23,11.49,11.49,0,0,1,13.06,1.78,1.56,1.56,0,0,0,1.81.24,11,11,0,0,1,9.06,0,7.31,7.31,0,0,1,3.79,7.79,1.55,1.55,0,0,0,.69,1.69,9.1,9.1,0,0,1,3.62,2.9,1.57,1.57,0,0,0,2.06.53c-.57.24.27-.08.45-.13a8.49,8.49,0,0,1,1.4-.29,7,7,0,0,1,4.54,1,6.79,6.79,0,0,1,2.52,3,7,7,0,0,1,.4,1.2c0,.15.21,1.14.14.56a1.51,1.51,0,0,0,2.79.75c.17-.23-.25.3,0,0l.24-.29c.21-.24.43-.48.66-.71a11.22,11.22,0,0,1,2.12-1.7,9.92,9.92,0,0,1,6.49-1.38,9.15,9.15,0,0,1,5.71,2.84,7.65,7.65,0,0,1,1.37,7,1.52,1.52,0,0,0,1.05,1.84c2.92,1,5.21,3.88,4.64,7.06-.43,2.48-3.14,5.37-5.89,5a1.57,1.57,0,0,0-1.85,1.05A1.52,1.52,0,0,0,427,408.67Z"/>
              <path d="M394.86,374.74c-5.08-3.09-11.58-.57-14.6,4.18-.78,1.22,1.17,2.35,1.94,1.13,2.32-3.63,7.46-5.83,11.52-3.36,1.24.75,2.37-1.2,1.14-1.95Z"/>
              <path d="M364.74,381.52A24.87,24.87,0,0,0,347,383.69a28,28,0,0,0-11.74,12.84,17.81,17.81,0,0,0-1.13,2.92,5.46,5.46,0,0,1-.22,1.11c-.21.34-1.13.18-1.62.16a16.67,16.67,0,0,0-7.81,1.73,24.82,24.82,0,0,0-11.49,11.9,16.69,16.69,0,0,0,2.48,18.21c.95,1.09,2.53-.5,1.59-1.59a14.34,14.34,0,0,1-2.13-15.48,22.81,22.81,0,0,1,10.88-11.19,17.92,17.92,0,0,1,2.9-1A16.92,16.92,0,0,1,333,403a3,3,0,0,0,2.75-1.06,8.7,8.7,0,0,0,.64-2.3,25.23,25.23,0,0,1,9.17-12.42,22.61,22.61,0,0,1,18.6-3.53,1.13,1.13,0,0,0,.6-2.17Z"/>
              <path d="M381.61,382.07c1.24-3.76,2.42-8.5,1-12.38a12.42,12.42,0,0,0-7.62-7.32c-6.74-2.56-15,1.21-18.37,7.38a11.69,11.69,0,0,0,.64,12.68c.85,1.16,2.8,0,1.95-1.13-4.27-5.83-.72-12.87,5.09-15.85a12.18,12.18,0,0,1,8.63-1.38,10.64,10.64,0,0,1,7.19,5.49,7.79,7.79,0,0,1,.84,4.39,28.43,28.43,0,0,1-1.49,7.52c-.45,1.38,1.72,2,2.17.6Z"/>
              <path d="M343.64,386a15.94,15.94,0,0,1-4.42-8c-.08-.36-.14-.72-.2-1.09s0,.25,0,.07c0-.39-.06-.78-.08-1.17a14.62,14.62,0,0,1,.61-4.51,1.13,1.13,0,0,0-2.17-.6,17,17,0,0,0,4.67,16.88c1,1,2.63-.58,1.59-1.59Z"/>
              <path d="M332.1,401.74a14.93,14.93,0,0,0-4.35-11.48c-3.83-3.77-9.57-4.62-14.61-3.15a1.13,1.13,0,0,0,.6,2.17c4.36-1.27,9.31-.6,12.59,2.74a12.76,12.76,0,0,1,3.52,9.72c-.09,1.45,2.16,1.44,2.25,0Z"/>
              <path d="M314.71,405.87a10.84,10.84,0,0,0-9.2,1,1.13,1.13,0,0,0,1.14,1.94,8.62,8.62,0,0,1,7.46-.75,1.14,1.14,0,0,0,1.39-.78,1.17,1.17,0,0,0-.79-1.39Z"/>
              <path d="M313.18,425.32a13.6,13.6,0,0,0-12.63,6.19c-.79,1.23,1.16,2.35,1.94,1.14a11.25,11.25,0,0,1,10.69-5.08,1.13,1.13,0,0,0,1.12-1.12,1.15,1.15,0,0,0-1.12-1.13Z"/>
              <path class="k" d="M401.06,401.56a9.38,9.38,0,0,0-.74-6.2c-3.05-5.88-12.09-5.33-13.08-5.25a14.48,14.48,0,0,0-7.32,2.47,11.36,11.36,0,0,0-4.21,4.72c-1.61,3.61-.44,8.08.75,10.08,0,0,.36.6.29.65s-1.89-3.51-5.14-5a8.54,8.54,0,0,0-11.6,5.41"/>
              <path class="l" d="M350.1,421.55a9.57,9.57,0,0,1,3.06-9.84,12.3,12.3,0,0,1,8.78-3,11.13,11.13,0,0,1,4.52,1.49"/>
            </g>
          </g>
        </g>
        <g>
          <path class="m" d="M466.23,574.29a2.68,2.68,0,1,0,4,1A2.94,2.94,0,0,0,466.23,574.29Z"/>
          <path d="M465.54,572.81a4.3,4.3,0,1,0,6.16,1.83A4.55,4.55,0,0,0,465.54,572.81Zm2.92,6.25a2.68,2.68,0,1,1,1.76-3.73A2.94,2.94,0,0,1,468.46,579.06Z"/>
          <path d="M412.36,452.54c-1.19.55-1.78,1.55-1.41,2.36s1.52,1,2.71.43,1.78-1.54,1.4-2.35S413.55,452,412.36,452.54Z"/>
          <path class="m" d="M423.91,462.45a1.24,1.24,0,0,0,.74.64,1.2,1.2,0,0,0-.75-1.61A1.21,1.21,0,0,0,423.91,462.45Z"/>
          <path d="M423.18,460.12a2.12,2.12,0,1,0,2.44,1.16A1.91,1.91,0,0,0,423.18,460.12Zm1.05,2.24a.76.76,0,0,1-.25-.31.72.72,0,0,1-.08-.39.75.75,0,0,1,.24.31A.85.85,0,0,1,424.23,462.36Z"/>
          <g>
            <path class="m" d="M436.16,469.44a1.36,1.36,0,1,0,1.8.66A1.35,1.35,0,0,0,436.16,469.44Z"/>
            <path d="M435.47,468a3,3,0,1,0,4,1.45A3,3,0,0,0,435.47,468Zm1.84,4a1.36,1.36,0,1,1-1.15-2.47,1.36,1.36,0,0,1,1.15,2.47Z"/>
          </g>
          <g>
            <path class="m" d="M425.87,490.39a3.6,3.6,0,1,0,1.56-5.13A3.79,3.79,0,0,0,425.87,490.39Z"/>
            <path d="M431.44,493.66c2.23-1,3-4.06,1.78-6.73s-4.07-4-6.3-3-3,4.05-1.77,6.73S429.22,494.69,431.44,493.66Zm.46-6.12c.86,1.86.35,3.94-1.15,4.64s-3.42-.25-4.28-2.11-.36-3.94,1.14-4.63S431,485.68,431.9,487.54Z"/>
          </g>
          <path class="m" d="M439.58,501.31a.71.71,0,0,0,.39-.08.69.69,0,0,0,.31-.25.9.9,0,0,0-.39.09A.75.75,0,0,0,439.58,501.31Z"/>
          <path d="M439.2,499.59a1.75,1.75,0,1,0,2.62.68A1.9,1.9,0,0,0,439.2,499.59Zm.77,1.64a.71.71,0,0,1-.39.08.75.75,0,0,1,.31-.24.9.9,0,0,1,.39-.09A.69.69,0,0,1,440,501.23Z"/>
          <path class="m" d="M448.84,515.23a3,3,0,1,0-1.41,4A3.18,3.18,0,0,0,448.84,515.23Z"/>
          <path class="m" d="M442.72,536.32c-.58.27-.91.84-.72,1.24s.83.51,1.41.24.91-.84.73-1.24S443.3,536.05,442.72,536.32Z"/>
          <path d="M445.61,535.87a2.84,2.84,0,1,0-1.51,3.41A2.65,2.65,0,0,0,445.61,535.87Zm-2.2,1.93c-.58.27-1.22.16-1.41-.24s.14-1,.72-1.24,1.23-.16,1.42.24S444,537.53,443.41,537.8Z"/>
          <path class="m" d="M454.83,547.69a.46.46,0,0,0-.39-.83.46.46,0,0,0,.39.83Z"/>
          <path d="M452.75,548.16a2.09,2.09,0,1,0,1-2.78A2.09,2.09,0,0,0,452.75,548.16Zm1.69-1.3a.46.46,0,0,1,.39.83.46.46,0,0,1-.39-.83Z"/>
          <path class="m" d="M451.28,566.26c-.24.11-.38.69-.08,1.34s.84.91,1.08.8.38-.69.07-1.34S451.51,566.15,451.28,566.26Z"/>
          <path d="M450.59,564.78a2.88,2.88,0,1,0,3.24,1.59A2.57,2.57,0,0,0,450.59,564.78Zm1.69,3.62c-.24.11-.77-.15-1.08-.8s-.16-1.23.08-1.34.77.15,1.07.8S452.51,568.29,452.28,568.4Z"/>
          <path class="m" d="M432.39,448.19a1.43,1.43,0,1,0,2.25.45A1.66,1.66,0,0,0,432.39,448.19Z"/>
          <path d="M435.69,448.33a2.84,2.84,0,1,0-1.52,3.41A2.66,2.66,0,0,0,435.69,448.33Zm-2.21,1.93c-.57.27-1.22.16-1.41-.24s.15-1,.72-1.24,1.23-.16,1.42.24S434.06,450,433.48,450.26Z"/>
          <path d="M442.6,518.18c1.07,2.29,3.44,3.46,5.28,2.6s2.47-3.42,1.4-5.72-3.44-3.46-5.28-2.6S441.53,515.89,442.6,518.18Zm5.4-2.52c.71,1.52.36,3.18-.78,3.71s-2.63-.27-3.34-1.79-.35-3.17.78-3.7S447.3,514.15,448,515.66Z"/>
        </g>
        <path class="j" d="M489.85,590.46A76.81,76.81,0,0,1,417.4,625"/>
      </g>
    </g>
  </g>
</svg>
