<svg xmlns="http://www.w3.org/2000/svg" viewBox="0 0 1000 1000">
  <defs>
    <style>
      .a {
        fill: #d8d8d8;
      }

      .b {
        fill: #f0a800;
      }

      .c {
        fill: #ffd600;
      }

      .d {
        fill: #8d5103;
      }

      .e {
        fill: #fafafa;
      }

      .f {
        fill: #cecece;
      }

      .g {
        fill: #c4c4c4;
      }

      .h {
        fill: #bababa;
      }

      .i {
        fill: #301f13;
      }

      .j, .k, .l {
        fill: none;
        stroke: #000;
      }

      .j, .k {
        stroke-miterlimit: 10;
      }

      .j {
        stroke-width: 3px;
      }

      .k, .l {
        stroke-linecap: round;
        stroke-width: 2px;
      }

      .l {
        stroke-linejoin: round;
      }

      .m {
        fill: #f0f0c0;
      }
    </style>
  </defs>
  <g>
    <path class="a" d="M500,765.61a265.63,265.63,0,1,1,187.81-77.8A263.84,263.84,0,0,1,500,765.61Z"/>
    <path d="M500,762.23a262.21,262.21,0,1,1,185.43-76.8A260.57,260.57,0,0,1,500,762.23ZM500,240a260,260,0,1,0,183.84,76.15A258.25,258.25,0,0,0,500,240Z"/>
    <g>
      <g>
        <g>
          <path class="b" d="M681.77,497.22l-3.33-4.3a14.59,14.59,0,0,0-8.66-5.42c-3.15-.57-4.84.53-7.09-1a6.86,6.86,0,0,1-2.11-2.4c-.74-1.44-.47-2.27-.77-5.26-.26-2.58-.39-3.86-1-5a7.17,7.17,0,0,0-3.91-3.24,7.43,7.43,0,0,0-4.75.23c-4.59,1.58-4.78,5.5-8.34,5.88-1.47.16-3.43-.3-4.26-1.55-.61-.91-.18-1.57-.83-3.4-.39-1.1-.9-2.56-2-3s-1.69.57-4.17,1.45a9.32,9.32,0,0,1-4.88.78,6.4,6.4,0,0,1-5.15-8.34,6.25,6.25,0,0,1,1.8-2.64,9.05,9.05,0,0,0,1.58-2.28,8.69,8.69,0,0,0,.61-5.74c-1-3.42-4.49-4.85-6.26-5.58-1.23-.51-5.31-2.19-8.91-.46-2.69,1.29-2.31,3.13-5.32,4.58-.55.26-3.63,1.74-6.68.67-2.18-.77-2.42-2.16-5.89-3.78a20.7,20.7,0,0,0-2.82-1.06,18.13,18.13,0,0,0-8.44-1,26.64,26.64,0,0,0-5.27,1.33,14.06,14.06,0,0,1-4.31,1.22,11.12,11.12,0,0,1-1.57,0c-2.55,5.76-6.15,14-10.22,24.15-4.37,10.82-6.55,16.23-8.67,22.93a233.14,233.14,0,0,0-7.33,30.83c-1.86,10.31-2.94,19.32-3.41,23.28-1.36,11.48-1.47,16.39-3.52,26.11A77.59,77.59,0,0,1,531.1,591a95.82,95.82,0,0,1-6.28,11.53A206.55,206.55,0,0,1,513,619.73,76.84,76.84,0,0,0,525.1,634a81.1,81.1,0,0,0,19.32,13.09,82.26,82.26,0,0,0,18.92,7.32,77.72,77.72,0,0,0,28.35,1.48c.75-3.26,1.86-7.75,3.42-13,2-6.89,3-10.33,4.9-14.58,3.27-7.52,7.09-12.61,11.16-18,1.08-1.43.86-1.09,10.61-12.78,6.1-7.32,6.31-7.62,9.39-11.28,6-7.16,7.8-9.16,11.83-13.93,7.53-8.92,11.3-13.39,14.94-18.29,6.19-8.35,10.16-15.74,18.11-30.54,3.24-6,7.52-14.25,12.32-24.2a8.25,8.25,0,0,1-3.15-.17A8.42,8.42,0,0,1,681.77,497.22Z"/>
          <path class="c" d="M688.54,498.78a13.75,13.75,0,0,1-5.51-2,14.55,14.55,0,0,1-2.25-1.81c-2.73-2.55-2.47-3.67-4.65-5.47a12.68,12.68,0,0,0-4.21-2.26,17,17,0,0,0-4.29-.69c-1.92-.06-2.76.24-4-.33a5.45,5.45,0,0,1-1.86-1.41c-3.16-3.57-.75-9.49-4.2-12.86a7,7,0,0,0-3.57-1.75,7.68,7.68,0,0,0-5.8,1.78c-.4.34-1.32,1.2-2.19,2a12.26,12.26,0,0,1-1.26,1.15,5.88,5.88,0,0,1-3.86.67,4.76,4.76,0,0,1-2.33-.69,4.3,4.3,0,0,1-1.49-1.7,5.52,5.52,0,0,1-.52-1.76c-.27-1.48,0-1.9-.42-2.51a2.57,2.57,0,0,0-1.45-1c-2.35-.71-3.62,2.14-7,2.2a7.13,7.13,0,0,1-3.39-.85,6.88,6.88,0,0,1-3.4-3.58,6,6,0,0,1-.11-3.91,22.18,22.18,0,0,1,2.7-3.66h0c-.06,0,1.73-2.81,1.49-5.22-.18-1.76-1.41-3-2.68-4.21a13.52,13.52,0,0,0-7.12-3.57c-1.39-.22-3.86-.61-6,.62a12.46,12.46,0,0,0-2.58,2.21c-1.66,1.72-1.6,2.16-2.6,2.68-1.66.84-3.36.31-3.51.93-.08.3.3.64.48.81.48.43,1.28.66,3.1.36a10.68,10.68,0,0,0,1.43-.35,20.14,20.14,0,0,1,2.51-.82,5.31,5.31,0,0,1,3.31.57,6.08,6.08,0,0,1,2.84,2.4,5.44,5.44,0,0,1,.78,3.92,11.66,11.66,0,0,1-1.08,2.46c-.21.38-.3.48-.42.72a9.08,9.08,0,0,0-1,3.22,10.53,10.53,0,0,0,1.57,6,12.2,12.2,0,0,0,5.53,4.67,13.34,13.34,0,0,0,5.41,1.49,11.24,11.24,0,0,1,1.91.06,8.82,8.82,0,0,1,3,1,6.17,6.17,0,0,1,2,1.59,12.37,12.37,0,0,1,.94,1.53,11.72,11.72,0,0,0,1.8,2.11,17.31,17.31,0,0,0,3,2.25,13.85,13.85,0,0,1,2.68,1.64,3.85,3.85,0,0,1,1.33,1.95,3.69,3.69,0,0,1-.19,2.07,5,5,0,0,1-1.09,1.73c-2.14,2.21-3.6,5-5.41,7.5,0,0-3.44,4.75-6.29,9.56l-.31.53c-1.28,2.15-1.83,3.05-1.83,3.05-.55.92-.66,1.08-1.46,2.44-1,1.74-1.52,2.62-2.74,4.81a184.87,184.87,0,0,1-10.59,16.53c-1.71,2.36-4.35,5.82-5.43,7.24l-2.87,3.75c-9.35,12.41-10.13,14.46-17.77,24.56a148,148,0,0,1-15.17,17c-5.13,4.84-9.13,7.8-13.4,14.35-3.92,6-4.77,10-4.27,13.59A14.16,14.16,0,0,0,555.5,625a19.19,19.19,0,0,0,6.79,5.18c.57.27,1.7.67,3.9,1.62,1,.43,1.9.84,2.15,1.71a2,2,0,0,1-.11,1.28c-.74,1.57-3.77,1.59-5.42,1.66a25.81,25.81,0,0,1-6.56-.88A60.21,60.21,0,0,1,542.88,631l-.61-.29A50.7,50.7,0,0,1,534,626a28.83,28.83,0,0,1-3.27-2.85.68.68,0,0,0-.38-.21.42.42,0,0,0-.29.17c-.27.35.66,1.67,1.1,2.2,4.87,5.78,14.47,10.36,14.47,10.36a123.36,123.36,0,0,0,17.28,6.49c2.12.6,4,1,4.22,1.08a87.67,87.67,0,0,0,8.86,1.5c10.71,1.24,17.86,2.06,19.85-1.32.37-.63.14-.68.6-3a47.33,47.33,0,0,1,2.88-8.85c2.29-5.8,3.44-8.7,5.36-11.87.82-1.35,2-2.92,4.21-6,1.22-1.66,2.39-3.26,3.82-5.15,0,0,1.69-2.22,3.37-4.36,4.07-5.17,10.19-11.77,16.66-19.13,2.56-2.9,6.07-6.9,10.5-12.27.83-1,4.13-5,8.34-10.4,2.23-2.86,3.35-4.28,4.49-5.86a134.6,134.6,0,0,0,7.84-12.18c6.12-10.52,10-17.87,10-17.87C679.55,515.87,684.46,506.56,688.54,498.78Z"/>
          <path class="d" d="M522.55,622.87c-.72-3.46.69-6,7.15-16.54s9.61-15.44,11.71-20.87c1.56-4.05,2.77-8.3,2.77-8.3.77-2.7,1.25-4.8,1.45-5.74,2.91-13.19,4-19.85,6.62-33.57a223.43,223.43,0,0,1,13.22-42.2,180.7,180.7,0,0,1,29-45.79,17.15,17.15,0,0,0-4.79-3.12c-4.51-1.94-8.76-1.37-13-.79a43.19,43.19,0,0,0-7.86,1.8c-2.1,4.79-5.07,11.7-8.47,20.1-6,14.85-9,22.28-11.93,32.51a237.77,237.77,0,0,0-5.75,25.8c-2.2,12.74-3.23,23-3.23,23-.45,4.51-.73,8.42-1.7,14.82-1,6.88-2.08,11.3-2.33,12.38a94.67,94.67,0,0,1-3.87,13.17c-2.3,5.94-4.73,9.89-8.26,15.6A161.81,161.81,0,0,1,513,619.73a75.59,75.59,0,0,0,17.83,19.71,79.82,79.82,0,0,0,15.9,9.44,88.56,88.56,0,0,0,17.67,6,84.88,84.88,0,0,0,27.7,1.48c.24-1.43.47-2.85.71-4.28a111.8,111.8,0,0,1-18.8-.85c-7-.91-16.13-2.16-26.71-7.12a67.23,67.23,0,0,1-18.71-13C523.92,626.74,522.94,624.74,522.55,622.87Z"/>
        </g>
        <path class="e" d="M702.21,475.14c1.59,2.74,6.55,4.34,10.36,2.34a8.71,8.71,0,0,0,3.62-11.14,10.55,10.55,0,0,0,5.21-5.12c2-4.57-.26-9.7-3.18-12.52a13.39,13.39,0,0,0-9.86-3.47,9.51,9.51,0,0,0,2.45-7.21,9.81,9.81,0,0,0-5.14-7.28,8.4,8.4,0,0,0,.25-4.32l-.3-1.6a9.65,9.65,0,0,0,5-8.57,10.86,10.86,0,0,0-2.26-6.22,14,14,0,0,0-5.38-4.54,14,14,0,0,0-8.79-13.9,11.53,11.53,0,0,0,.08-3.47,13.44,13.44,0,0,0-3.22-6.78,19.79,19.79,0,0,0-6.74-5.46A19.94,19.94,0,0,0,670,374.56a18.85,18.85,0,0,0-4.4-6.53,20.42,20.42,0,0,0-9.22-4.86,21,21,0,0,0-8.75-.8,20.19,20.19,0,0,0-9.17,3.63,14,14,0,0,0-14.19-1.4,14.32,14.32,0,0,0-7.29,9,20.65,20.65,0,0,0-7.25-1.37,16.4,16.4,0,0,0-7.77,1.54,15,15,0,0,0-5.66,4.76,14.55,14.55,0,0,0-2.61,8c-.49,0-1.18.08-2,.19a14.8,14.8,0,0,0-2.53.52A10.08,10.08,0,0,0,586,389.1c-3.11,2.7-3.5,7.73-3.53,8.19-.39-.07-6-1-9.75,3.2a10.54,10.54,0,0,0-2.52,7.6c.06.9.35,5.62,4.3,8a9.26,9.26,0,0,0,6.82.82,17.94,17.94,0,0,1,6.16-4.36,20.93,20.93,0,0,1,7.91-1.47,45.92,45.92,0,0,1,8,.62c2.63.34,6,.8,10.52,1.8,1.63.37,5.63,1.3,11,3.05,4.66,1.54,8.33,3.12,15.66,6.28,10.34,4.44,18,8.28,21.21,9.88,4.42,2.23,9.14,4.63,14,7.57a101.19,101.19,0,0,1,13.23,9.27c6.07,5.07,8.26,8.2,9.05,9.38,1.93,2.9,3.61,5.43,4,9.11S701.06,473.14,702.21,475.14Z"/>
        <path class="e" d="M580.46,418.31a16.42,16.42,0,0,1,5.69-4.83c3.81-1.91,7.47-1.73,13.33-1.44a67.39,67.39,0,0,1,8.32,1,88.33,88.33,0,0,1,11.14,2.68,272.82,272.82,0,0,1,28.45,10.95c8.44,3.69,13.26,5.81,19.9,9.36a139.63,139.63,0,0,1,16,9.79c5.42,3.88,8.13,5.82,10.91,9.16a37.57,37.57,0,0,1,7.79,16.6,48.73,48.73,0,0,1-1.59,4.68c-1.6,3.79-4.8,10.47-11.21,22a15.77,15.77,0,0,1-8.75-3.39c-3.32-2.81-2.91-5.32-6-7.36-4.27-2.79-7.28.44-10.73-1.92-4.83-3.31-1.26-11.29-6.32-14.48a8.9,8.9,0,0,0-8.7-.18c-1.36.85-1.42,1.71-3.3,2.84-.92.56-3.65,2.21-5.72,1.38-2.79-1.12-1.52-5.66-4.24-7s-5,2.26-9.18,1.23c-2.29-.56-4.76-2.43-5-4.57s1.9-2.85,3.22-6.33c.22-.6,1.61-4.28.45-7.3-1.79-4.68-9.55-7.37-15.25-5.63-5,1.52-5.8,5.64-10,5.65-3.12,0-5-2.23-7.11-3.75-3.69-2.64-10.33-4.67-23.27-1Q574.85,432.39,580.46,418.31Z"/>
        <path class="f" d="M594,387.44a12.49,12.49,0,0,0-2.62.32,11.58,11.58,0,0,0-4.47,1.76,7.11,7.11,0,0,0-1.76,1.63,7.71,7.71,0,0,0-1.21,2.67,10.79,10.79,0,0,0-.49,2.44,2.38,2.38,0,0,1-.43,1.48,1.71,1.71,0,0,1-.48.39,2.91,2.91,0,0,1-2.19-.11c-1.06-.28-1.94,0-3.49.46a8.52,8.52,0,0,0-4.56,3.66A9.15,9.15,0,0,0,571,406a9,9,0,0,0,.53,5.26,8.26,8.26,0,0,0,3.44,3.7,8.47,8.47,0,0,0,5.52.92l1.86-2.07-.61-.31a6.78,6.78,0,0,1-.88-.85,8.52,8.52,0,0,1-.89-1.29,10.59,10.59,0,0,1-1.6-3.73,6.53,6.53,0,0,1,.09-2.28,5.15,5.15,0,0,1,1-2.24,5.38,5.38,0,0,1,1.25-1.1,5.77,5.77,0,0,1,1.08-.57,14.73,14.73,0,0,1,2-.47,5.44,5.44,0,0,0,1.31-.42,2.76,2.76,0,0,0,1-.76,2.93,2.93,0,0,0,.39-1.67,12.89,12.89,0,0,1,.43-2.68,6.5,6.5,0,0,1,1.13-2.14,6.82,6.82,0,0,1,2.05-1.72,9,9,0,0,1,2.73-1,15.21,15.21,0,0,1,2.78-.34,17.53,17.53,0,0,1,3.93.33,18,18,0,0,1,4.21,1.4,13.85,13.85,0,0,0-3.67-2.91A12.32,12.32,0,0,0,594,387.44Z"/>
        <path class="g" d="M620.78,378a11.66,11.66,0,0,0-6.58-4.38,16,16,0,0,0-6.76-.65c-1.38.16-7.88.92-11,6.36a12.45,12.45,0,0,0-1.62,6.53c.78.11,1.63.26,2.53.47s1.93.52,2.75.8c0-.67-.13-5.67,3.69-8.83a11.24,11.24,0,0,1,7.44-2.3,14.44,14.44,0,0,1,6.29,1.65,17.51,17.51,0,0,1,4.58,3.16A9.33,9.33,0,0,0,620.78,378Z"/>
        <path class="g" d="M644.33,378.45a14.24,14.24,0,0,0-4.47-10.1,14.4,14.4,0,0,0-2.34-1.72c-.38-.22-.78-.43-1.18-.62a13.41,13.41,0,0,0-17.92,6.14,12.69,12.69,0,0,0-.62,1.61,17.24,17.24,0,0,1,1.31,1.4,12.4,12.4,0,0,1,4.59-3.65,13,13,0,0,1,8.19-.72,15.21,15.21,0,0,1,6.58,3.2,17.75,17.75,0,0,1,5.43,7.31A11.23,11.23,0,0,0,644.33,378.45Z"/>
        <path class="h" d="M654.41,363.57a19.17,19.17,0,0,0-9.72-.49,16.86,16.86,0,0,0-6.14,2.9,15.19,15.19,0,0,1,1.83,1.41,16.12,16.12,0,0,1,1.89,2.05,16.6,16.6,0,0,1,1.66,2.58,12.88,12.88,0,0,1,6.71-2.23,14,14,0,0,1,9.41,2.89,12.46,12.46,0,0,1,4,5.74,10.43,10.43,0,0,1,3-2.66,10.91,10.91,0,0,1,1.85-.88,13.92,13.92,0,0,0-2.67-4.68,17.34,17.34,0,0,0-4.69-3.68A26.84,26.84,0,0,0,654.41,363.57Z"/>
        <path class="g" d="M684.15,375.54a16.6,16.6,0,0,0-13.31-.3,17.2,17.2,0,0,0-7.87,6.44c-.3.47-.59.95-.86,1.45s-.31.58-.39.79a4.18,4.18,0,0,0-.22,2.14,14.87,14.87,0,0,1,7.78-4.89,15.77,15.77,0,0,1,10.37,1.39,20.88,20.88,0,0,1,9.48,8.61,15.69,15.69,0,0,1,4.64,0A16.79,16.79,0,0,0,684.15,375.54Z"/>
        <path class="f" d="M693.44,392.18c-.23-.11-.46-.19-.69-.29a21.38,21.38,0,0,0-2.77-.84,13.9,13.9,0,0,0-8.44.57,10.74,10.74,0,0,0-4.36,4c.92-.27,8.44-2.35,14.28,2.23,1,.81,4.31,3.33,4.94,7.68a10.73,10.73,0,0,1-.63,5.3A11.66,11.66,0,0,1,690,417a12.86,12.86,0,0,0,4.72-1.07,10.6,10.6,0,0,0,1.37-.74,11.94,11.94,0,0,0,2.18-1.7,12.07,12.07,0,0,0,2.47-3.48,11.36,11.36,0,0,0,.68-1.9,11.65,11.65,0,0,0,.42-2.61A14.15,14.15,0,0,0,693.44,392.18Z"/>
        <path class="h" d="M704.05,407.28c-.26-.12-.52-.22-.78-.31-.11.35-.23.7-.34,1-.19.56-.37,1.11-.56,1.66a7.42,7.42,0,0,1,2,4.24,7.53,7.53,0,0,1-1.37,5.16,17,17,0,0,1,2.26,3,16.82,16.82,0,0,1,1.28,2.62,14.69,14.69,0,0,0,1.39-2.35C710.71,416.34,709,409.58,704.05,407.28Z"/>
        <path class="f" d="M721.37,457.6a9.69,9.69,0,0,0-1.89-5.91,12.2,12.2,0,0,0-3.93-3.8,12.88,12.88,0,0,0-3.6-1.42,13.35,13.35,0,0,0-3.05-.32c-1.06-.11-1.37-.4-1.45-.65-.27-.77,1.56-1.43,2.33-3.45a6.74,6.74,0,0,0,.2-3.39,7.66,7.66,0,0,0-1-3.31,23,23,0,0,0-2.49-2.72c-1.09-1.11-1.28-1.25-1.48-1.72-.38-.92-.1-1.51-.07-3a15.15,15.15,0,0,0-.34-3.17,10.62,10.62,0,0,0-2.48-4.56c-3.32-3.46-8.33-2.93-8.9-2.86l-2.84,1.56c.34,0,.84.05,1.44.14a12.47,12.47,0,0,1,5.45,2,8.77,8.77,0,0,1,2.66,2.6,8,8,0,0,1,1,6.41,6,6,0,0,0,.74,2.71c1.06,1.85,2.43,1.58,3.6,3.34a6.38,6.38,0,0,1,.79,5,10.36,10.36,0,0,1-.76,1.87,9.28,9.28,0,0,0-.87,1.57,4,4,0,0,0-.21,1.67c.25,1.67,2.23,2.55,2.57,2.7,1.1.49,1.09,0,2.72.62a9.66,9.66,0,0,1,2.87,1.6l.45.39a8.28,8.28,0,0,1,2.59,4.9c.07.54.44,3.73-1.52,5.83-1.34,1.45-2.69,1.2-3,2.35-.41,1.49,1.7,2.42,1.59,4.62a4.38,4.38,0,0,1-1.53,2.9c-1.8,1.46-5.13,1.17-7.84-1.13a4.8,4.8,0,0,0,.25,3.9,7.79,7.79,0,0,0,4.16,2.24,7,7,0,0,0,4.68-.62,6.76,6.76,0,0,0,2.56-2.54,7.8,7.8,0,0,0,1.12-4.51,7.89,7.89,0,0,0-.47-2.33,2.46,2.46,0,0,1,.39-1.3c.46-.66,1.11-.78,1.75-1.12a5.88,5.88,0,0,0,2.05-2.31A9.68,9.68,0,0,0,721.37,457.6Z"/>
        <path class="a" d="M610.2,388.11c5.58-4.65,12.43-3.92,14.55-3.7,9.56,1,15.13,8,16.24,9.47a26.9,26.9,0,0,1,10.36-3.5A27.65,27.65,0,0,1,664.16,392,25,25,0,0,1,676,400.7c1.41,2,2.79,4.69,2.32,5.07-.23.18-1.42-.68-3.81-2.43-3.5-2.55-3.94-2.87-4.54-3.28a28.21,28.21,0,0,0-5.51-3,23,23,0,0,0-7.95-1.6,24.32,24.32,0,0,0-8.07,1.27c-1.25.42-3.89,1.41-4.82,1.76a18.56,18.56,0,0,1-3,1.07c-2.78.25-4-3-8-5.9a19.19,19.19,0,0,0-9.32-3.83,18.09,18.09,0,0,0-9.93,1.92,24.7,24.7,0,0,0-6.12,4.53c-2.27,2.21-3,3.65-3.28,3.51C603.51,399.46,604.83,392.58,610.2,388.11Z"/>
        <path class="a" d="M680.52,425.27a10,10,0,0,0-11.4,3.14,6.71,6.71,0,0,0-2,2.68,6.9,6.9,0,0,0-.5,3.17,13.29,13.29,0,0,1,4.37-3,12.08,12.08,0,0,1,8.94-.47,12.63,12.63,0,0,1,5.27,4.2,16.62,16.62,0,0,1,2.57,4.32,11.56,11.56,0,0,1,1,3.83,10.39,10.39,0,0,1-.85,4.83,3.41,3.41,0,0,0,1.73-.16c.39-.15.92-.45,2-1.94a9.21,9.21,0,0,0,1.82-3.3,7.06,7.06,0,0,0,0-3.1,18,18,0,0,0-2.75-6.77A19.54,19.54,0,0,0,680.52,425.27Z"/>
        <path class="a" d="M637.05,419.53c.05.5.81.84,1.55,1.07a12.23,12.23,0,0,1,6.7-1.74c6.61.29,10.26,6.23,10.58,6.78a10.09,10.09,0,0,0-1.3-4,11.45,11.45,0,0,0-9.64-5.33C641,416.25,636.92,418.32,637.05,419.53Z"/>
        <path class="a" d="M655.63,422.35a12,12,0,0,1,1.36,4.29,1.05,1.05,0,0,0,.45-.09,1.3,1.3,0,0,0,.58-.94,3.81,3.81,0,0,0,0-1.75c-.27-1.27-.87-1.89-.65-2.13s.71.17.8,0-1.85-1.92-3.59-2.32c-.14,0-.31-.06-.4,0C653.92,419.8,655,421.1,655.63,422.35Z"/>
        <path class="a" d="M654.86,419.39c0,.67-.07,1.34-.1,2a9.12,9.12,0,0,1,6,1.91,9.39,9.39,0,0,1,3.05,9.18c.22.25.81.89,1.19.73s.3-.57.33-.86c.17-1.68.58-1.61.76-3.19a9.33,9.33,0,0,0-.54-4.92,8.75,8.75,0,0,0-4.47-4.36A9.37,9.37,0,0,0,654.86,419.39Z"/>
        <path class="a" d="M641.37,475.72c.89-.12,1.33-1,2.38-2.34a19.1,19.1,0,0,1,3.76-3.53,4.16,4.16,0,0,0-1-.31,4.26,4.26,0,0,0-1.27,0c-1.9.2-3.07,1.25-3.74.83s-.69-1.19-.54-3.68c.26-4.26-5.46-3.86-9.36-2.18s-4.77-3.1-1.52-8.59.07-15.73-4.88-18.47-20.16.23-24.49,4.34-7.82-1-12.37-3.14-1.54-10.79,2.06-14.8,11.09-2.27,17,.51c8.28,3.86,7.82-2.16,14.55-1.54,10,.92,20.54,6.64,23.57,9a5.4,5.4,0,0,0,1.26.75c2.63,1.1,5.74-.11,8.38-1.71l-2.47-1.16-2.82-1.3-.12,0c-.9-.44-1.84-.88-2.81-1.33-6.3-2.94-12.55-5.53-18.57-7.71-20.44-7.37-36.49-7.55-41.8-5.94a8.93,8.93,0,0,0-3.64,1.85c-1.76,2.72-3.52,5.69-5.21,8.92A113.12,113.12,0,0,0,569,446.3a28.18,28.18,0,0,1,6.35-2,28.47,28.47,0,0,1,15.45,1.27c6.19,2.39,6.38,5.22,9.69,4.86,4.37-.47,4.87-5.49,10.51-6.76a12.67,12.67,0,0,1,7.81,1c.71.29,6.92,2.92,7.59,7.8.4,2.87-1.13,6.43-2.56,8.53-.44.66-2,2.85-2,5a3.37,3.37,0,0,0,.37,1.63,3.71,3.71,0,0,0,1.83,1.58c2,.87,3.38-.61,6.76-1,1.49-.18,4.68-.55,6.43,1.3a5.39,5.39,0,0,1,1.18,4C639.12,474.59,640.23,475.87,641.37,475.72Z"/>
        <path class="i" d="M511.75,620.84a92.76,92.76,0,0,0,7.5,9A85.34,85.34,0,0,0,542,647.51,86.56,86.56,0,0,0,567.13,656a88.48,88.48,0,0,0,24.38.87c-.33,2.7-.7,4.93-1,6.59a24.59,24.59,0,0,1-1.13,4.64,18,18,0,0,1-2.39,4.39,32.22,32.22,0,0,1-9.72,4.24c-7.16,1.79-13,.54-20-1.06-8.95-2-15.17-5-21.57-8-10.26-4.85-15.32-8.75-16.74-9.87a65,65,0,0,1-8.45-8.08,32.94,32.94,0,0,1-5.22-7.25,28.79,28.79,0,0,1-2.58-7.4,37.82,37.82,0,0,1,9-14.2Z"/>
        <path d="M569.29,440c-.64,1.58-1.35,3.17-1.83,4.81a2.85,2.85,0,0,0,.23,2.83c1.32,1.5,3.65.52,5.2,0,5.94-1.92,12.47-2.55,18.22.37,3.25,1.66,5.76,5,9.76,4.67a7,7,0,0,0,4.27-1.95c1.12-1,1.94-2.37,3.13-3.33,4.15-3.38,11.89-.69,14.87,3.13,2,2.59,1.12,6.37-.8,8.78a14.71,14.71,0,0,0-2.32,3,6.3,6.3,0,0,0,.1,5,7.35,7.35,0,0,0,7.25,4.52,10.93,10.93,0,0,0,4.37-1.66,5.07,5.07,0,0,1,2.46-.76c.93,0,1.21.59,1.37,1.44.31,1.65.21,3.38,1.39,4.73a5.4,5.4,0,0,0,4.16,1.6,6.24,6.24,0,0,0,4.06-1.46,32.74,32.74,0,0,1,3.22-3.12c2.53-1.73,5.69-2.61,8.23-.4,2.09,1.81,2.42,4.37,2.56,7s.56,5.77,2.64,7.59,4.8.82,7.3,1.14a11,11,0,0,1,8.23,4.91c1.75,2.69,3.73,4.94,6.74,6.23a18.09,18.09,0,0,0,5.52,1.31,1.48,1.48,0,0,0,1.3-.74c3.89-6.87,7.77-13.78,10.6-21.17,1.15-3,2.26-6.08,2.12-9.34a19.39,19.39,0,0,0-3.91-10.22,47,47,0,0,0-7-8.22,93.86,93.86,0,0,0-9.71-7.48,170.11,170.11,0,0,0-17.13-10.22,289.39,289.39,0,0,0-35.44-16.05,121.28,121.28,0,0,0-17.79-5.23c-6.26-1.27-12.81-2.43-19.22-1.9a22.59,22.59,0,0,0-9,2.53,15.24,15.24,0,0,0-6.32,6.8c-3,5.94-5.25,12.27-7.81,18.42-.35.83-.7,1.67-1,2.51-.72,1.79,2.18,2.57,2.89.8,2-4.95,4-9.91,6-14.82,1.19-2.83,2.4-6.12,4.41-8.49a14,14,0,0,1,7.14-4.13c6-1.61,12.75-.51,18.8.55a115.4,115.4,0,0,1,16.07,4.1,249.17,249.17,0,0,1,33.48,14.26c5.9,3,11.77,6.06,17.39,9.54,6.27,3.88,12.79,8.13,17.8,13.61a38.08,38.08,0,0,1,6,8.42,13.08,13.08,0,0,1,.9,9.3c-1.84,6.9-5.42,13.29-8.83,19.52-1,1.8-2,3.6-3,5.39l1.29-.74a11.8,11.8,0,0,1-8.33-4.09c-1-1.24-1.71-2.67-2.73-3.9a11.64,11.64,0,0,0-4.53-3.2,19.42,19.42,0,0,0-8.61-1.24c-2.1.08-2.67-1.78-3-3.72-.5-2.81-.19-5.43-1.43-8.11a9,9,0,0,0-6.71-5.15c-3.38-.47-6.79,1.26-9.2,3.54-.83.78-1.51,2-2.61,2.48s-2.75.48-3.38-.54a5.79,5.79,0,0,1-.45-2.22,7.56,7.56,0,0,0-.67-2.65,4.21,4.21,0,0,0-4.09-2.11c-3.1.21-5.67,3.51-8.84,2a4.47,4.47,0,0,1-2.35-2.88,3.1,3.1,0,0,1,1.05-3.27,12.11,12.11,0,0,0,3.51-9.49c-.68-5.8-7.45-9.08-12.61-9.7a10.88,10.88,0,0,0-8.07,1.89c-2.33,1.8-3.83,5.55-7.36,4.57-1.63-.45-2.72-1.66-4.06-2.6a20.11,20.11,0,0,0-3.77-2.09,24,24,0,0,0-9.5-1.88,31.5,31.5,0,0,0-9.65,1.75l-1.53.48a7.33,7.33,0,0,1-.93.22c-.32,0-.14,0-.14,0,0-.19.58.68.54.6.08.16.07.16,0,.21a2.84,2.84,0,0,0,.2-.75c.5-1.6,1.18-3.15,1.8-4.7C572.9,439,570,438.2,569.29,440Z"/>
        <g>
          <path class="j" d="M640.5,423.48c3,1.26,5.58,2.37,7.16,3l2.67,1.18c5.29,2.35,8.57,3.81,12.73,5.93,2.59,1.33,6.89,3.54,12.26,6.93a134.12,134.12,0,0,1,13.87,10.11,47.5,47.5,0,0,1,7.09,6.95,24.34,24.34,0,0,1,4.07,6.75,21.84,21.84,0,0,1,1.15,4.18,17.3,17.3,0,0,1,.32,3.38c-.06,2.11-.71,3.79-2,6.77-1.84,4.4-3.26,7-3.26,7-2.16,4.63-4.82,8.87-7.31,13.92,0,0-.75,1.44-2.22,4.26-1.35,2.59-5,9.64-8.89,16.91-4.22,7.91-7.43,13.9-10.49,19.2s-6,9.92-9.64,15.09c-1.09,1.54-2.1,2.94-3.14,4.31-2.59,3.44-4.7,6-5.88,7.39-14.86,17.79-16,19.09-17.5,20.82C625,595,624.83,595,620.93,599.65c0,0-4.07,4.9-10.5,13.29-.22.29-.62.81-1.13,1.51-1,1.37-2.1,3-3.23,4.78a77.73,77.73,0,0,0-4.77,8.86,79.55,79.55,0,0,0-3.49,9c-.91,2.78-1.6,5.36-2.25,7.76-.11.4-.22.78-.36,1.3s-.33,1.2-.6,2.19c-.09.34-.42,1.53-.77,2.78s-.7,2.59-.88,3.21c-.85,3.11-1.27,4.66-1.29,4.74-.6,2.37-1.09,4.94-1.61,7.65a11.48,11.48,0,0,1-1.4,4,10.75,10.75,0,0,1-1.27,1.69,11.6,11.6,0,0,1-2,1.7,18,18,0,0,1-4.81,2.28,30,30,0,0,1-7.17,1.35,27.67,27.67,0,0,1-3.53,0,50.48,50.48,0,0,1-9.32-1.18c-3.17-.67-6.31-1.54-9.1-2.41s-5.25-1.76-7.05-2.44-2.95-1.17-3.14-1.24l-1.47-.63c-7.76-3.45-10.13-4.67-10.13-4.67a69.48,69.48,0,0,1-10.82-7,64.27,64.27,0,0,1-8-7.41c-1.29-1.47-2.12-2.57-3.47-4.37a39.86,39.86,0,0,1-4.2-6.82,9,9,0,0,1-.67-1.92,9.17,9.17,0,0,1-.07-3.51,14,14,0,0,1,2.79-6c3.44-4.55,6.19-7.78,7.65-9.74,2.25-3,4.21-5.78,5.88-8.21,1.17-1.7,3.43-5.12,5.76-9a84.83,84.83,0,0,0,6.16-12.1c.58-1.51,1.06-2.91,1.45-4.16s.71-2.33,1-3.21c.16-.55.38-1.3.64-2.21s.54-2,.83-3.17c.46-1.87,1-4.28,1.57-7.61s1.14-7.56,1.68-13.06c.18-1.86.14-1.67.34-3.81.09-1,.49-5.1,1.22-10.55.49-3.69,2.06-15.54,4.63-27.29,1-4.69,2.11-8.88,2.27-9.51.42-1.65.88-3.36,1.4-5.16.77-2.7,1.44-4.81,1.77-5.85,1.32-4.12,2.52-7.32,3.14-8.94,5.28-13.94,9.2-23.07,9.2-23.07s12-27.83,13.55-32.36c0,0,0-.13.09-.28.24-.67.81-2.22,1.67-4.2.15-.34.3-.68.48-1.06a54.23,54.23,0,0,1,3.49-6.37,8.07,8.07,0,0,1,1-1.36,8.57,8.57,0,0,1,3.5-2.33,23.4,23.4,0,0,1,4.07-1.36,27.22,27.22,0,0,1,4.59-.62,46,46,0,0,1,6.75.31c2.07.18,3.67.32,5.88.67,2,.33,3.44.66,5.65,1.17,0,0,3,.68,5.55,1.37C624.42,416.8,631.43,419.71,640.5,423.48Z"/>
          <g>
            <path d="M700.92,475.89c2.52,4.07,8.52,5,12.55,2.81,4.45-2.46,6-8.18,4.16-12.76l-.69,1.7a11.25,11.25,0,0,0,5.31-15.87,14.47,14.47,0,0,0-13.89-8l1.06,2.56a10.78,10.78,0,0,0,2.48-10.38,11.32,11.32,0,0,0-5.47-6.47l.69,1.69a13.38,13.38,0,0,0,0-6.71l-.69,1.7A11.28,11.28,0,0,0,712,414.43c-.75-4.41-4.28-8.31-8.2-10.23l.74,1.29a15.81,15.81,0,0,0-9.89-15.35l1,1.84c1.07-6.6-3-12.48-8.28-16.06a21.68,21.68,0,0,0-17.81-2.81l1.84,1.05a20.47,20.47,0,0,0-6.17-8.39,23.9,23.9,0,0,0-8.61-4.08,22.18,22.18,0,0,0-19,3h1.51a15.58,15.58,0,0,0-17-.66,15.89,15.89,0,0,0-6.66,9.16l1.85-1.05C611.5,370,604.26,370,599,373.73a16.16,16.16,0,0,0-6.89,12.79l1.5-1.5c-4,.24-7.67,1.21-10.13,4.56a14.87,14.87,0,0,0-2.59,7.71l1.9-1.45c-5.14-.85-10.75,1.41-13,6.29-2,4.35-1.45,10.32,2.06,13.79a10.22,10.22,0,0,0,9.18,2.52c1.26-.24,1.94-1.24,2.88-2a15.6,15.6,0,0,1,5-2.87c5.09-1.76,10.78-.9,16-.17a112.93,112.93,0,0,1,19.3,4.51,205.64,205.64,0,0,1,19.07,7.74c12.12,5.36,24.35,11.1,35.5,18.28,5.89,3.8,11.71,8.2,16.27,13.56a34.08,34.08,0,0,1,3.5,5.08,14.47,14.47,0,0,1,1.94,5.22,17.43,17.43,0,0,1-.14,4.62,5.59,5.59,0,0,0,.6,3.52c.91,1.71,3.5.19,2.59-1.51a4.83,4.83,0,0,1-.07-2.94,15.51,15.51,0,0,0-.2-5.13c-.64-3.12-2.38-5.88-4.16-8.47-3.17-4.6-7.6-8.33-12-11.72-10.11-7.8-21.73-13.5-33.24-18.94C647,424,640.1,420.92,633.12,418a116.08,116.08,0,0,0-17.35-5.67,103.73,103.73,0,0,0-18.2-2.8c-5.76-.32-11.45,1-15.89,4.82a6.55,6.55,0,0,0-1.29,1.23c.18-.29.49-.15,0-.08-.23,0-.46.08-.7.1a7.16,7.16,0,0,1-4.89-1.19,8.15,8.15,0,0,1-3-5.79,9.34,9.34,0,0,1,1.74-6.77,9,9,0,0,1,7.07-3.21,11.83,11.83,0,0,1,1.19,0l.43,0c.18,0-.38-.06-.11,0a1.53,1.53,0,0,0,1.9-1.45,12.78,12.78,0,0,1,1.8-5.65c1.79-2.78,4.85-3.44,7.92-3.62a1.54,1.54,0,0,0,1.5-1.5,12.88,12.88,0,0,1,5.72-10.42c4.59-3.08,10.64-2.94,15.67-1.06a1.51,1.51,0,0,0,1.84-1.05,12.17,12.17,0,0,1,19.29-6.7,1.44,1.44,0,0,0,1.51,0,19.16,19.16,0,0,1,16.4-2.77,21.78,21.78,0,0,1,7.31,3.22,17.06,17.06,0,0,1,5.62,7.22,1.55,1.55,0,0,0,1.85,1.05,18.62,18.62,0,0,1,14.94,2.14c4.3,2.7,8.32,7.66,7.45,13a1.56,1.56,0,0,0,1,1.84,13.65,13.65,0,0,1,5.47,4.44,12.93,12.93,0,0,1,2.22,8,1.48,1.48,0,0,0,.74,1.3,12.37,12.37,0,0,1,6.67,7.69,8.21,8.21,0,0,1-4,9,1.55,1.55,0,0,0-.69,1.69,9.88,9.88,0,0,1,.05,5.12,1.52,1.52,0,0,0,.69,1.69,7.79,7.79,0,0,1,2.39,12.14,1.52,1.52,0,0,0,1.06,2.56,11.53,11.53,0,0,1,10.95,5.88,9,9,0,0,1,.63,8.21,9.23,9.23,0,0,1-4.51,4.23,1.49,1.49,0,0,0-.69,1.69c1.3,3.23.67,7.26-2.49,9.2-2.6,1.59-7,1.22-8.74-1.56C702.49,472.74,699.9,474.25,700.92,475.89Z"/>
            <path d="M706.42,424.83c-.94-6.2-7.54-9.91-13.45-9.13a1.16,1.16,0,0,0-1.12,1.13c0,.54.51,1.2,1.12,1.12,5-.66,10.47,2.16,11.28,7.48a1.13,1.13,0,1,0,2.17-.6Z"/>
            <path d="M679.49,404.36a27,27,0,0,0-14.26-13.25,30.43,30.43,0,0,0-20.24-.46c-1,.32-2,1-2.93,1.26-.61.19-.85-.32-1.26-.83a24.06,24.06,0,0,0-1.64-2,19.06,19.06,0,0,0-7-4.29,27.38,27.38,0,0,0-17.92-.24,17.92,17.92,0,0,0-12.08,14.2c-.23,1.42,1.94,2,2.17.6a15.61,15.61,0,0,1,10-12.46,25.35,25.35,0,0,1,16.5-.18,16.91,16.91,0,0,1,6.78,4.06c1,1,1.65,2.47,2.86,3.2s2,.23,3-.34a21.19,21.19,0,0,1,7.75-2,27.85,27.85,0,0,1,9.76.52,24.88,24.88,0,0,1,16.49,13.36c.64,1.3,2.58.16,2-1.13Z"/>
            <path d="M690.85,418.93c4.07-1.62,8.86-3.91,11.16-7.85a13.39,13.39,0,0,0,.88-11.36c-2.61-7.55-11.46-11.84-19.12-10.34a12.73,12.73,0,0,0-10.11,9.49c-.34,1.4,1.83,2,2.17.59a10.37,10.37,0,0,1,7.71-7.72,14.85,14.85,0,0,1,9.9,1.1,13.19,13.19,0,0,1,6.8,6.28,11.69,11.69,0,0,1,.42,9.66c-1.81,4.12-6.44,6.4-10.41,8-1.33.53-.75,2.71.6,2.17Z"/>
            <path d="M660.91,389.73a16.23,16.23,0,0,1,9.61-13.82,1.13,1.13,0,0,0,.4-1.54,1.16,1.16,0,0,0-1.54-.4,18.5,18.5,0,0,0-10.72,15.76c-.11,1.45,2.14,1.44,2.25,0Z"/>
            <path d="M639.43,391.28a16.4,16.4,0,0,0,6.72-12.16c.34-5.75-3-10.94-7.69-14.05-1.21-.81-2.34,1.14-1.14,1.94,4,2.69,6.87,7.16,6.58,12.11a13.94,13.94,0,0,1-5.6,10.21c-1.16.85,0,2.81,1.13,1.95Z"/>
            <path d="M623.9,379.77a11.85,11.85,0,0,0-7.38-7.17,1.12,1.12,0,0,0-1.38.78,1.15,1.15,0,0,0,.78,1.39l.51.19c.23.08-.15-.08.09,0l.24.1a12.14,12.14,0,0,1,1.12.61,9.66,9.66,0,0,1,2,1.6c.2.21.39.43.57.65s-.14-.2,0,0,.22.3.32.46a9.83,9.83,0,0,1,.62,1.09,2.39,2.39,0,0,1,.13.28s.13.32,0,.07c.06.16.13.31.18.47a1.14,1.14,0,0,0,1.38.78,1.13,1.13,0,0,0,.79-1.38Z"/>
            <path d="M606.55,392.2a14.81,14.81,0,0,0-13.92-6.38,1.16,1.16,0,0,0-1.12,1.13,1.12,1.12,0,0,0,1.12,1.12,12.62,12.62,0,0,1,7.35,1.22,12.43,12.43,0,0,1,3,2.19,11.57,11.57,0,0,1,1.58,1.86c.81,1.18,2.76.06,1.94-1.14Z"/>
            <path class="k" d="M688.41,449a10.36,10.36,0,0,0,4.68-5c2.79-6.71-4-13.92-4.8-14.69a15.88,15.88,0,0,0-7.24-4.41,12.56,12.56,0,0,0-6.92-.21c-4.17,1.2-7.1,5.32-8,7.73,0,0-.25.73-.34.7s1.61-4.06.57-7.82a9.36,9.36,0,0,0-12.72-5.93"/>
            <path class="l" d="M635.71,420.33A10.49,10.49,0,0,1,646.13,416a13.5,13.5,0,0,1,8.74,5.23A12.14,12.14,0,0,1,656.8,426"/>
          </g>
        </g>
        <path class="m" d="M589.28,625.48a3.23,3.23,0,0,0-4.38,1.14c-.67,1.44.2,3.27,1.94,4.08s3.7.3,4.37-1.14S591,626.29,589.28,625.48Z"/>
        <path d="M590,623.85c-2.63-1.22-5.66-.32-6.75,2s.17,5.24,2.8,6.46,5.66.33,6.75-2S592.67,625.08,590,623.85Zm-3.19,6.85c-1.74-.81-2.61-2.64-1.94-4.08a3.23,3.23,0,0,1,4.38-1.14c1.73.81,2.6,2.64,1.93,4.08S588.58,631.51,586.84,630.7Z"/>
        <path d="M653.55,494.44c-1.3-.61-2.55-.41-3,.48s.23,2,1.54,2.58,2.55.41,3-.48S654.86,495.05,653.55,494.44Z"/>
        <path class="m" d="M653.38,511.13a1.29,1.29,0,0,0,0,1.07,1.32,1.32,0,1,0,0-1.07Z"/>
        <path d="M654.82,508.87a2.33,2.33,0,1,0,.74,2.87A2.09,2.09,0,0,0,654.82,508.87Zm-1.15,2.46a.89.89,0,0,1,.09-.43.77.77,0,0,1,.27-.34.89.89,0,0,1-.09.43A.91.91,0,0,1,653.67,511.33Z"/>
        <g>
          <path class="m" d="M656.13,526.34a1.49,1.49,0,1,0,.72,2A1.48,1.48,0,0,0,656.13,526.34Z"/>
          <path d="M656.89,524.72a3.28,3.28,0,1,0,1.58,4.36A3.28,3.28,0,0,0,656.89,524.72Zm-2,4.32a1.49,1.49,0,1,1,2-.72A1.49,1.49,0,0,1,654.87,529Z"/>
        </g>
        <g>
          <path class="m" d="M631.29,532.45a3.95,3.95,0,1,0,5.41-2.29A4.17,4.17,0,0,0,631.29,532.45Z"/>
          <path d="M632.47,539.44c2.44,1.14,5.54-.32,6.91-3.25s.49-6.24-2-7.38-5.53.32-6.9,3.25S630,538.31,632.47,539.44Zm5.46-3.93c-.95,2-3.06,3.08-4.7,2.31s-2.2-3-1.25-5.08,3.06-3.07,4.7-2.31S638.88,533.48,637.93,535.51Z"/>
        </g>
        <path class="m" d="M631.78,551.67a.83.83,0,0,0,.34.27.78.78,0,0,0,.43.09.83.83,0,0,0-.34-.27A.89.89,0,0,0,631.78,551.67Z"/>
        <path d="M633,550.14a1.92,1.92,0,1,0,1.28,2.68A2.09,2.09,0,0,0,633,550.14Zm-.84,1.8a.83.83,0,0,1-.34-.27.89.89,0,0,1,.43.09.83.83,0,0,1,.34.27A.78.78,0,0,1,632.12,551.94Z"/>
        <path class="m" d="M626.61,569.25a3.27,3.27,0,1,0-4.38,1.66A3.49,3.49,0,0,0,626.61,569.25Z"/>
        <path class="m" d="M604.6,579c-.64-.3-1.35-.18-1.55.26s.15,1.06.79,1.36,1.34.17,1.55-.27S605.23,579.27,604.6,579Z"/>
        <path d="M607,581.09a3.11,3.11,0,1,0-3.93,1.13A2.91,2.91,0,0,0,607,581.09Zm-3.17-.49c-.64-.3-1-.92-.79-1.36s.91-.56,1.55-.26,1,.91.79,1.35S604.47,580.89,603.84,580.6Z"/>
        <path class="m" d="M603.58,597.15a.5.5,0,1,0,.42-.9.5.5,0,0,0-.66.24A.49.49,0,0,0,603.58,597.15Z"/>
        <path d="M601.72,595.74a2.28,2.28,0,1,0,3-1.11A2.29,2.29,0,0,0,601.72,595.74Zm2.28.51a.5.5,0,1,1-.66.24A.5.5,0,0,1,604,596.25Z"/>
        <path class="m" d="M585.48,607.26c-.26-.12-.84.16-1.18.88s-.17,1.34.09,1.46.84-.16,1.18-.87S585.74,607.38,585.48,607.26Z"/>
        <path d="M586.24,605.64c-1.27-.59-2.83.18-3.56,1.74s-.31,3.26,1,3.85,2.83-.18,3.56-1.75S587.5,606.23,586.24,605.64Zm-1.85,4c-.26-.12-.42-.75-.09-1.46s.92-1,1.18-.88.42.75.09,1.47S584.65,609.72,584.39,609.6Z"/>
        <path class="m" d="M671.32,508.2a1.56,1.56,0,1,0-1.26,2.7,1.56,1.56,0,1,0,1.26-2.7Z"/>
        <path d="M673.53,511.07a3.11,3.11,0,1,0-3.93,1.13A2.91,2.91,0,0,0,673.53,511.07Zm-3.17-.49c-.64-.3-1-.92-.79-1.36s.91-.56,1.54-.27,1,.92.8,1.36S671,510.87,670.36,510.58Z"/>
        <path d="M619.75,566.09c-1.18,2.52-.49,5.33,1.53,6.27s4.61-.34,5.79-2.85.48-5.33-1.54-6.27S620.92,563.58,619.75,566.09Zm5.91,2.76c-.77,1.67-2.41,2.54-3.66,2s-1.63-2.4-.85-4.06,2.41-2.54,3.66-2S626.44,567.19,625.66,568.85Z"/>
        <path class="j" d="M592.34,656.7a84.19,84.19,0,0,1-80-36.54"/>
      </g>
      <g>
        <g>
          <path class="b" d="M424.19,448.14l-5.44-.21a14.59,14.59,0,0,0-9.71,3.15c-2.47,2.05-2.71,4.05-5.35,4.77a6.81,6.81,0,0,1-3.19.07c-1.59-.35-2-1.09-4.53-2.79-2.14-1.46-3.21-2.18-4.49-2.42a7.15,7.15,0,0,0-5,.91,7.37,7.37,0,0,0-2.87,3.79c-1.75,4.53,1.13,7.2-.86,10.16-.83,1.24-2.44,2.43-3.93,2.27-1.09-.12-1.32-.87-3.14-1.55-1.09-.41-2.54-1-3.56-.36s-.65,1.66-1.56,4.13A9.51,9.51,0,0,1,368,474.3a6.41,6.41,0,0,1-9.7-1.42,6.25,6.25,0,0,1-.87-3.08,8.93,8.93,0,0,0-.73-2.67,8.67,8.67,0,0,0-4-4.16c-3.25-1.44-6.6.32-8.3,1.21-1.18.62-5.08,2.66-6.07,6.53-.74,2.89.91,3.78.08,7-.15.58-1,3.9-3.78,5.54-2,1.18-3.21.47-6.68,2.09a20.46,20.46,0,0,0-2.62,1.48,18,18,0,0,0-6.2,5.81,27.13,27.13,0,0,0-2.37,4.89,12.06,12.06,0,0,1-2.81,5.32c2.77,5.66,6.8,13.73,11.92,23.35,5.49,10.3,8.23,15.45,12,21.38A232.43,232.43,0,0,0,356.79,573c6.7,8.05,12.9,14.67,15.64,17.58,7.92,8.42,11.6,11.66,17.73,19.48a77.07,77.07,0,0,1,9,13.75,95,95,0,0,1,4.8,12.22,208.49,208.49,0,0,1,5.62,20.09,76.67,76.67,0,0,0,18.69-.06,81.13,81.13,0,0,0,22.45-6.39,82.59,82.59,0,0,0,17.77-9.78,77.56,77.56,0,0,0,19.35-20.78c-2-2.66-4.74-6.4-7.79-11-4-6-6-9-8-13.13-3.66-7.34-5.1-13.53-6.64-20.14-.4-1.74-.27-1.36-3-16.34-1.68-9.37-1.77-9.73-2.6-14.44-1.63-9.2-2-11.87-3.07-18-2-11.51-3-17.26-4.41-23.2-2.41-10.11-5.52-17.91-11.75-33.5-2.54-6.36-6.08-14.92-10.62-25a8.3,8.3,0,0,1-5.77,3.76Z"/>
          <path class="c" d="M429.73,444a13.7,13.7,0,0,1-5.09,2.92,14.75,14.75,0,0,1-2.83.56c-3.71.45-4.4-.47-7.18.05a12.68,12.68,0,0,0-4.43,1.77,16.85,16.85,0,0,0-3.29,2.84c-1.29,1.44-1.6,2.27-2.85,2.89a5.38,5.38,0,0,1-2.28.51c-4.76.13-7.75-5.52-12.55-5a6.8,6.8,0,0,0-3.63,1.61,7.69,7.69,0,0,0-2.37,5.58c0,.52.08,1.79.15,3a11.48,11.48,0,0,1,.07,1.7,5.92,5.92,0,0,1-2,3.39,4.79,4.79,0,0,1-2,1.34,4.41,4.41,0,0,1-2.27.05,6.08,6.08,0,0,1-1.68-.73c-1.3-.75-1.46-1.22-2.19-1.3a2.56,2.56,0,0,0-1.66.49c-2.06,1.35-.7,4.16-2.85,6.82a7,7,0,0,1-2.83,2.05,6.91,6.91,0,0,1-4.93.31,6.1,6.1,0,0,1-3.07-2.43,22.63,22.63,0,0,1-1.07-4.43h0c-.06,0-1-3.12-3-4.49-1.47-1-3.18-.83-5-.66a13.51,13.51,0,0,0-7.3,3.16c-1.06.93-2.95,2.57-3.39,5a12.09,12.09,0,0,0,0,3.4c.24,2.38.62,2.62.37,3.72-.42,1.81-1.91,2.77-1.54,3.28.19.26.69.19.93.15.64-.09,1.34-.55,2.27-2.14a9.76,9.76,0,0,0,.65-1.32,24.69,24.69,0,0,1,1-2.45,5.4,5.4,0,0,1,2.57-2.17,6.08,6.08,0,0,1,3.66-.63,5.46,5.46,0,0,1,3.51,1.92,11.59,11.59,0,0,1,1.19,2.41c.16.41.17.54.28.79a9.3,9.3,0,0,0,1.86,2.8,10.58,10.58,0,0,0,5.64,2.68,12.22,12.22,0,0,0,7.12-1.24,13.19,13.19,0,0,0,4.62-3.19,11.32,11.32,0,0,1,1.28-1.42,8.72,8.72,0,0,1,2.7-1.68,6.38,6.38,0,0,1,2.51-.52,13.5,13.5,0,0,1,1.77.27,11.31,11.31,0,0,0,2.77,0,16.92,16.92,0,0,0,3.66-.84,13.72,13.72,0,0,1,3-1,3.84,3.84,0,0,1,2.35.24,3.59,3.59,0,0,1,1.46,1.47,4.87,4.87,0,0,1,.63,1.94c.31,3.07,1.51,6,2.26,9,0,0,1.43,5.69,3.29,11l.2.58c.83,2.37,1.17,3.37,1.17,3.37.34,1,.4,1.2.93,2.68.68,1.9,1,2.85,1.92,5.2a186.3,186.3,0,0,1,5.86,18.73c.7,2.83,1.65,7.08,2,8.82.48,2.15.83,3.73,1,4.6,3.51,15.14,4.57,17.05,7.4,29.4a149.09,149.09,0,0,1,3.3,22.58c.41,7,.11,12,2.38,19.49,2.09,6.86,4.58,10.08,7.66,12a14.27,14.27,0,0,0,7,2.27,19.12,19.12,0,0,0,8.33-1.88c.57-.25,1.6-.87,3.75-1.94,1-.48,1.87-.92,2.69-.55a1.92,1.92,0,0,1,.91.91c.73,1.57-1.2,3.91-2.22,5.22a24.69,24.69,0,0,1-4.89,4.45,60.06,60.06,0,0,1-12.08,7.32l-.61.27a50.6,50.6,0,0,1-8.93,3.34,30.5,30.5,0,0,1-4.29.68.56.56,0,0,0-.41.15.45.45,0,0,0-.05.33c.1.43,1.7.57,2.39.56,7.56,0,17.24-4.42,17.24-4.42a123.47,123.47,0,0,0,16.08-9.06c1.82-1.24,3.33-2.39,3.54-2.55A83.43,83.43,0,0,0,469.2,624C477,616.62,482.26,611.67,481,608c-.24-.68-.43-.54-1.94-2.41a46.86,46.86,0,0,1-4.93-7.9c-3-5.48-4.46-8.22-5.65-11.73-.51-1.5-1-3.38-1.88-7.08-.49-2-1-3.93-1.49-6.23,0,0-.62-2.72-1.18-5.39-1.34-6.44-2.46-15.37-3.93-25.06-.59-3.82-1.39-9.08-2.66-15.93-.23-1.27-1.18-6.37-2.61-13.06-.75-3.56-1.12-5.33-1.59-7.22a138.47,138.47,0,0,0-4.3-13.83c-4.13-11.45-7.25-19.17-7.25-19.17C437.05,461.83,433.07,452.09,429.73,444Z"/>
          <path class="d" d="M418.09,650.88c-3.11-1.67-4.15-4.38-8.07-16.11s-5.64-17.29-8.46-22.39c-2.1-3.8-4.57-7.45-4.57-7.45-1.57-2.33-2.88-4-3.47-4.81-8.24-10.7-12.63-15.82-21.46-26.64a223.4,223.4,0,0,1-23.83-37.26,180.38,180.38,0,0,1-16.45-51.63,17,17,0,0,0-5.47,1.67c-4.38,2.2-6.68,5.83-9,9.49a43.65,43.65,0,0,0-3.67,7.17c2.32,4.69,5.71,11.41,10,19.41,7.52,14.15,11.28,21.22,17.23,30a236.34,236.34,0,0,0,16.07,21c8.35,9.87,15.53,17.24,15.53,17.24,3.16,3.25,6,6,10.26,10.83,4.6,5.23,7.32,8.86,8,9.75a93.32,93.32,0,0,1,7.61,11.42c3.07,5.58,4.53,10,6.63,16.35a163.75,163.75,0,0,1,4.66,17.19,75.66,75.66,0,0,0,26.56-1A80.34,80.34,0,0,0,453.59,649a88.35,88.35,0,0,0,16-9.65,84.7,84.7,0,0,0,18.94-20.27l-2.82-3.29A111.63,111.63,0,0,1,473,629.68c-5.22,4.81-12,11-22.63,15.89a67.15,67.15,0,0,1-22,6C421.94,652.32,419.78,651.79,418.09,650.88Z"/>
        </g>
        <path class="e" d="M420.41,418.29c3.12.55,7.53-2.22,8.45-6.42a8.71,8.71,0,0,0-6.2-9.94,10.63,10.63,0,0,0-.57-7.29c-2.22-4.48-7.6-6-11.64-5.6a13.36,13.36,0,0,0-9,5.32,9.46,9.46,0,0,0-3.95-6.51,9.76,9.76,0,0,0-8.88-.75,8.87,8.87,0,0,0-1.12-1.44,8.38,8.38,0,0,0-2-1.53l-1.41-.79a9.83,9.83,0,0,0-.52-5.51,9.72,9.72,0,0,0-2.83-3.84,10.73,10.73,0,0,0-6.21-2.26,13.83,13.83,0,0,0-6.94,1.2,14.08,14.08,0,0,0-16.3-2.21,11.83,11.83,0,0,0-2.61-2.29,13.44,13.44,0,0,0-7.26-1.89,20,20,0,0,0-18.76,11.81,18.87,18.87,0,0,0-7.83-.83,20.41,20.41,0,0,0-9.65,3.94,21.35,21.35,0,0,0-6.24,6.18A20.25,20.25,0,0,0,295.8,397a14,14,0,0,0-10.19,10,14.29,14.29,0,0,0,2.2,11.36,20.76,20.76,0,0,0-5.7,4.67,16.45,16.45,0,0,0-3.82,6.95,15,15,0,0,0,0,7.4,14.63,14.63,0,0,0,4.44,7.13c-.3.39-.69.95-1.13,1.64a16.14,16.14,0,0,0-1.23,2.27,10.29,10.29,0,0,0-.61,3.64c.07,4.12,3.68,7.65,4,8-.3.25-4.6,4-3.82,9.52a10.54,10.54,0,0,0,4.21,6.82c.73.54,4.53,3.35,8.85,1.81a9.18,9.18,0,0,0,5-4.69,18,18,0,0,1,.62-7.52,21,21,0,0,1,4-7,47.85,47.85,0,0,1,5.6-5.71c2-1.78,4.48-4.09,8.14-6.89,1.33-1,4.61-3.48,9.39-6.45,4.17-2.58,7.74-4.37,14.87-8,10.05-5.07,17.92-8.47,21.21-9.89,4.55-2,9.42-4,14.81-5.88A100.87,100.87,0,0,1,392.24,412c7.78-1.4,11.58-1.06,13-.91,3.46.39,6.47.73,9.55,2.78S418.14,417.89,420.41,418.29Z"/>
        <path class="e" d="M298.62,475a16.37,16.37,0,0,1,0-7.46c1-4.15,3.47-6.84,7.45-11.14a65.05,65.05,0,0,1,6.11-5.75,85.86,85.86,0,0,1,9.21-6.81A272.51,272.51,0,0,1,348,429.11c8.25-4.09,13-6.42,20-9.23a138.77,138.77,0,0,1,17.78-6c6.45-1.65,9.68-2.48,14-2.47a37.65,37.65,0,0,1,17.73,4.7c.87,1.36,1.79,2.73,2.56,4.23a245,245,0,0,1,9.68,22.76,15.66,15.66,0,0,1-8.22,4.52c-4.28.75-5.94-1.18-9.51-.1-4.88,1.47-4.35,5.86-8.37,7-5.64,1.57-9.45-6.29-15.16-4.46a8.9,8.9,0,0,0-5.72,6.54c-.23,1.59.39,2.19,0,4.36-.16,1.06-.65,4.21-2.62,5.27-2.65,1.42-5.31-2.47-8.06-1.23s-1.5,5.29-5,7.81c-1.91,1.4-4.92,2.09-6.72.9s-1-3.28-2.79-6.53c-.31-.55-2.23-4-5.29-5-4.74-1.63-11.8,2.58-14.12,8.07-2,4.78.59,8.07-2.12,11.32-2,2.4-4.92,2.39-7.45,3-4.39,1.13-10.21,4.9-15.75,17.15Z"/>
        <path class="f" d="M283.65,444.83a12.83,12.83,0,0,0-1.43,2.21,11.5,11.5,0,0,0-1.52,4.56,6.73,6.73,0,0,0,.12,2.39,7.6,7.6,0,0,0,1.26,2.64,10.89,10.89,0,0,0,1.56,1.95,2.4,2.4,0,0,1,.85,1.28,1.73,1.73,0,0,1,0,.62c-.17.83-1,1.29-1.5,1.61-.9.63-1.26,1.48-1.89,3a8.58,8.58,0,0,0-.13,5.85,9.24,9.24,0,0,0,2.12,3.39,9,9,0,0,0,4.38,3,8.24,8.24,0,0,0,5-.27,8.38,8.38,0,0,0,4.25-3.63l-.39-2.75-.63.27a7.71,7.71,0,0,1-1.21.12,8.94,8.94,0,0,1-1.57-.15,10.44,10.44,0,0,1-3.88-1.17,6.46,6.46,0,0,1-1.69-1.53,5.17,5.17,0,0,1-1.08-2.2,5.26,5.26,0,0,1-.05-1.65,6.17,6.17,0,0,1,.26-1.2,15.86,15.86,0,0,1,.94-1.86A5.36,5.36,0,0,0,288,460a2.82,2.82,0,0,0,0-1.22c-.14-.55-.49-.83-1-1.37a13.48,13.48,0,0,1-1.77-2.05,6.56,6.56,0,0,1-.92-2.24,6.72,6.72,0,0,1,0-2.67,9,9,0,0,1,1-2.71,15.4,15.4,0,0,1,1.53-2.35,17.66,17.66,0,0,1,2.78-2.8,17.24,17.24,0,0,1,3.78-2.32,13.66,13.66,0,0,0-4.6.93A12.5,12.5,0,0,0,283.65,444.83Z"/>
        <path class="g" d="M293.67,418.24a11.72,11.72,0,0,0-7.59,2.23,16.25,16.25,0,0,0-4.84,4.75c-.76,1.17-4.36,6.64-2.22,12.56a12.47,12.47,0,0,0,4,5.43c.59-.53,1.25-1.08,2-1.63a28.39,28.39,0,0,1,2.38-1.6c-.53-.41-4.43-3.54-4.39-8.5a11.17,11.17,0,0,1,3-7.17,14.43,14.43,0,0,1,5.3-3.77,17.87,17.87,0,0,1,5.36-1.48A9.88,9.88,0,0,0,293.67,418.24Z"/>
        <path class="g" d="M309.14,400.48a13.72,13.72,0,0,0-13.44-2.38c-.41.15-.83.32-1.23.51a13.4,13.4,0,0,0-6.81,17.67,11.6,11.6,0,0,0,.83,1.51,17.65,17.65,0,0,1,1.92-.11,12.31,12.31,0,0,1,.15-5.86,13,13,0,0,1,4.72-6.74,15.35,15.35,0,0,1,6.67-3,17.82,17.82,0,0,1,9.1.54A11.73,11.73,0,0,0,309.14,400.48Z"/>
        <path class="h" d="M304.22,383.19a19.22,19.22,0,0,0-6.62,7.14,16.69,16.69,0,0,0-1.73,6.56,14.23,14.23,0,0,1,2.26-.49,15.46,15.46,0,0,1,2.78-.14,17.06,17.06,0,0,1,3,.39,12.84,12.84,0,0,1,2.61-6.57,14,14,0,0,1,8.26-5.35,12.41,12.41,0,0,1,7,.63,10.34,10.34,0,0,1-.12-4,11.5,11.5,0,0,1,.51-2,13.88,13.88,0,0,0-5.3-1,17.13,17.13,0,0,0-5.83,1.24A26.72,26.72,0,0,0,304.22,383.19Z"/>
        <path class="g" d="M332.51,368.1a16.64,16.64,0,0,0-8.79,10,17.2,17.2,0,0,0-.8,4.23,17,17,0,0,0,.68,5.93,13.82,13.82,0,0,0,.56,1.6,5.79,5.79,0,0,0,.35.8,4.2,4.2,0,0,0,1.49,1.55,14.91,14.91,0,0,1,1.26-9.11,15.73,15.73,0,0,1,7.73-7,20.88,20.88,0,0,1,12.69-1.73,15.62,15.62,0,0,1,3-3.53A16.83,16.83,0,0,0,332.51,368.1Z"/>
        <path class="f" d="M351.22,371.69c-.23.1-.44.23-.66.34a21.36,21.36,0,0,0-2.42,1.58,14,14,0,0,0-5,6.83,10.79,10.79,0,0,0,.26,5.91c.38-.88,3.63-8,10.88-9.51,1.29-.27,5.33-1.16,9.06,1.15a10.81,10.81,0,0,1,3.66,3.89,11.63,11.63,0,0,1,1,8.35,13,13,0,0,0,2.22-4.31,14.45,14.45,0,0,0,.32-1.52,12.75,12.75,0,0,0,.09-2.76,12,12,0,0,0-1.08-4.14,13,13,0,0,0-1-1.74,12.75,12.75,0,0,0-1.73-2A14.19,14.19,0,0,0,351.22,371.69Z"/>
        <path class="h" d="M369.61,373.26c-.26.12-.5.26-.74.4.19.31.39.62.58.94l.92,1.49a7.44,7.44,0,0,1,4.52,1.21,7.53,7.53,0,0,1,3.07,4.37,17.26,17.26,0,0,1,3.74.18,17.52,17.52,0,0,1,2.84.71,14.35,14.35,0,0,0-.91-2.57C380.83,374,374.54,371,369.61,373.26Z"/>
        <path class="f" d="M419.29,392.34a9.69,9.69,0,0,0-5.74-2.35,12.1,12.1,0,0,0-5.44.57,12.66,12.66,0,0,0-3.4,1.85,13,13,0,0,0-2.21,2.13c-.76.73-1.18.78-1.43.69-.76-.29-.09-2.11-1.14-4a6.81,6.81,0,0,0-2.47-2.33,7.66,7.66,0,0,0-3.2-1.34,21.73,21.73,0,0,0-3.68.15c-1.54.13-1.78.18-2.26,0-.95-.3-1.23-.89-2.32-1.85a15.06,15.06,0,0,0-2.64-1.77,10.5,10.5,0,0,0-5.09-1c-4.79.31-7.6,4.49-7.91,5l-.63,3.17c.23-.25.58-.61,1-1a12.43,12.43,0,0,1,5.05-2.88,8.92,8.92,0,0,1,3.7-.37,8.06,8.06,0,0,1,5.56,3.35,6,6,0,0,0,2.55,1.18c2.1.37,2.78-.84,4.88-.61a6.33,6.33,0,0,1,4.33,2.61,10,10,0,0,1,.94,1.78,9.34,9.34,0,0,0,.66,1.68,3.94,3.94,0,0,0,1.13,1.23c1.45.88,3.39-.07,3.72-.23,1.09-.53.74-.81,2.23-1.68a9.73,9.73,0,0,1,3.07-1.18l.59-.09a8.23,8.23,0,0,1,5.41,1.17c.46.29,3.15,2.05,3.5,4.91.24,2-.81,2.83-.14,3.81.88,1.28,2.95.26,4.56,1.75a4.35,4.35,0,0,1,1.24,3c0,2.32-2.4,4.68-5.9,5.28a4.89,4.89,0,0,0,1.08,1.3,4.69,4.69,0,0,0,2.06,1,7.81,7.81,0,0,0,4.4-1.74,7,7,0,0,0,2.52-4,6.78,6.78,0,0,0-.29-3.59,7.94,7.94,0,0,0-2.74-3.76,8.53,8.53,0,0,0-2.08-1.14,2.38,2.38,0,0,1-.75-1.13,4,4,0,0,1,.27-2.06,5.87,5.87,0,0,0-.46-3.05A9.6,9.6,0,0,0,419.29,392.34Z"/>
        <path class="a" d="M294.6,432.83c0-7.26,5-12,6.52-13.52,6.9-6.69,15.86-6.44,17.69-6.35a27,27,0,0,1,4-10.19,27.58,27.58,0,0,1,9.45-8.79,24.85,24.85,0,0,1,14.28-3.43c2.46.22,5.38.87,5.38,1.47,0,.3-1.45.66-4.32,1.37-4.2,1-4.72,1.16-5.42,1.37a27.89,27.89,0,0,0-5.88,2.26,23.08,23.08,0,0,0-6.33,5.06,24.58,24.58,0,0,0-4.22,7c-.48,1.23-1.42,3.88-1.75,4.82a19.47,19.47,0,0,1-1.08,3c-1.6,2.29-4.89,1.19-9.64,2.3a19.13,19.13,0,0,0-8.92,4.67,18.24,18.24,0,0,0-4.91,8.84,24.74,24.74,0,0,0-.46,7.61c.23,3.16.86,4.65.58,4.76C299,445.25,294.57,439.82,294.6,432.83Z"/>
        <path class="a" d="M368.27,402.86a10,10,0,0,0-4.93,10.74,6.87,6.87,0,0,0,2.89,5.66,13.28,13.28,0,0,1,.49-5.29,12,12,0,0,1,5.39-7.15,12.59,12.59,0,0,1,6.61-1.34,16.5,16.5,0,0,1,4.95.81,11.51,11.51,0,0,1,3.59,1.68,10.43,10.43,0,0,1,3.15,3.76,3.47,3.47,0,0,0,1-1.43c.13-.39.24-1-.22-2.76a9.18,9.18,0,0,0-1.36-3.52,7.11,7.11,0,0,0-2.37-2,17.86,17.86,0,0,0-7-2.24A19.46,19.46,0,0,0,368.27,402.86Z"/>
        <path class="a" d="M335.93,432.47c.41.28,1.16-.09,1.81-.51a12.2,12.2,0,0,1,3-6.24c4.47-4.89,11.36-3.86,12-3.76a10.14,10.14,0,0,0-3.89-1.57,11.46,11.46,0,0,0-10.29,4C336,427.33,334.92,431.79,335.93,432.47Z"/>
        <path class="a" d="M350,420a11.92,11.92,0,0,1,4.16,1.72,1,1,0,0,0,.22-.41,1.31,1.31,0,0,0-.34-1,3.79,3.79,0,0,0-1.33-1.15c-1.14-.61-2-.55-2-.87s.59-.44.55-.58-2.67.18-4.09,1.26c-.11.08-.24.2-.23.32C347,419.72,348.63,419.76,350,420Z"/>
        <path class="a" d="M347.27,418.72l1.48,1.38a9,9,0,0,1,5.32-3.39,9.41,9.41,0,0,1,9,3.57c.33,0,1.2,0,1.32-.44s-.24-.6-.45-.81c-1.17-1.21-.86-1.48-1.95-2.63a9.23,9.23,0,0,0-4.12-2.75,8.75,8.75,0,0,0-6.21.62A9.4,9.4,0,0,0,347.27,418.72Z"/>
        <path class="a" d="M381.75,465.27c.48-.76.06-1.68-.26-3.33a19,19,0,0,1-.3-5.15,5,5,0,0,0-.88.59,4.34,4.34,0,0,0-.85.95c-1.06,1.58-1,3.15-1.77,3.4-.61.19-1.35-.24-3.16-2-3.1-2.94-6.47,1.7-7.68,5.77s-5.45,1.66-7.56-4.36-12-10.16-17.28-8.14-12.79,15.59-12.43,21.56-5.81,5.33-10.35,7.45-9.25-5.75-10-11.09,5.38-10,11.35-12.74c8.27-3.86,3.37-7.37,8.17-12.13,7.11-7,18.29-11.47,22-12.29a5.48,5.48,0,0,0,1.39-.48c2.53-1.31,3.61-4.47,4.08-7.51L353.74,427l-2.81,1.34-.11,0c-.91.41-1.86.84-2.82,1.3-6.31,2.93-12.31,6.06-17.85,9.27-18.78,10.92-29.24,23.1-31.42,28.21a9,9,0,0,0-.92,4c.95,3.09,2.1,6.35,3.48,9.73a113.56,113.56,0,0,0,11.37,21,29.06,29.06,0,0,1,13.47-17.17c5.8-3.2,8.1-1.53,9.95-4.29,2.44-3.65-1.07-7.26,1.58-12.4a12.72,12.72,0,0,1,5.76-5.35c.69-.35,6.69-3.42,10.86-.81,2.45,1.54,4.2,5,4.89,7.45.22.77.89,3.38,2.57,4.79a3.44,3.44,0,0,0,1.49.75,3.69,3.69,0,0,0,2.39-.38c1.92-.95,1.69-3,3.56-5.83.83-1.26,2.59-3.94,5.13-4.09a5.37,5.37,0,0,1,3.8,1.65C379.44,466.27,381.13,466.24,381.75,465.27Z"/>
        <path class="i" d="M409.6,657.85a92.93,92.93,0,0,0,11.72,0,85.12,85.12,0,0,0,28.15-6.07A86.28,86.28,0,0,0,472.1,638a88.89,88.89,0,0,0,16.34-18.12c1.85,2,3.32,3.71,4.4,5a25.19,25.19,0,0,1,2.82,3.84,18.19,18.19,0,0,1,1.83,4.66,32.38,32.38,0,0,1-3,10.17c-3.23,6.64-7.92,10.28-13.66,14.63-7.31,5.55-13.57,8.43-20,11.39-10.31,4.75-16.55,6.11-18.32,6.48a65.22,65.22,0,0,1-11.61,1.28,32.9,32.9,0,0,1-8.92-.66,28.74,28.74,0,0,1-7.32-2.78,38.29,38.29,0,0,1-4-9.67A37.13,37.13,0,0,1,409.6,657.85Z"/>
        <g>
          <path d="M308,497.42c.79,1.47,1.54,3,2.45,4.4a3.53,3.53,0,0,0,1.9,1.77c2.35.56,3.3-2.49,3.95-4.09,2.48-6.13,6.71-11.8,13.17-14,1.58-.55,3.31-.64,4.85-1.25a8.2,8.2,0,0,0,3.95-3,7.26,7.26,0,0,0,1-5c-.21-1.7-.73-3.42-.31-5.14.63-2.57,2.8-4.6,5-5.94s5-2.48,7.64-2.06c3.2.51,5.15,4.06,5.54,7a7.13,7.13,0,0,0,1.17,3.7,6.64,6.64,0,0,0,3.92,2.45,7.36,7.36,0,0,0,8-3.42,14.89,14.89,0,0,0,1.2-4.07,4.9,4.9,0,0,1,1-2.14c.64-.68,1.24-.5,2-.07,1.48.87,2.82,2.06,4.64,1.94a5.73,5.73,0,0,0,4.16-2.68,5.79,5.79,0,0,0,1.05-3.88,20.44,20.44,0,0,1-.26-4.35c.3-3,1.74-5.72,4.91-6.31,2.33-.44,4.87.82,6.86,2.37s5,3.48,7.84,2.95c2.69-.49,3.74-3.32,5.6-5a10.9,10.9,0,0,1,8.6-3c3.29.36,6.23.39,9.28-1.07a17.3,17.3,0,0,0,4.54-3.34,1.49,1.49,0,0,0,.39-1.46c-2.75-7.37-5.53-14.8-9.35-21.69-1.48-2.67-3-5.42-5.42-7.4a18.86,18.86,0,0,0-10.38-3.9,46.18,46.18,0,0,0-11.57.1,93.88,93.88,0,0,0-12.28,2.75,172.62,172.62,0,0,0-18.73,6.6A286.28,286.28,0,0,0,329.34,436a123.43,123.43,0,0,0-15.25,10.19c-4.93,3.91-9.82,8.1-13.56,13.21a22.05,22.05,0,0,0-3.93,8.42,15.27,15.27,0,0,0,1.08,9.49c2.59,6.11,6,11.87,9,17.75.41.8.83,1.61,1.26,2.41.91,1.7,3.5.19,2.59-1.52-2.48-4.64-5-9.29-7.37-14-1.49-2.89-3.36-6.08-3.87-9.33a14.17,14.17,0,0,1,1.49-8c2.67-5.54,7.61-9.85,12.23-13.76a109.51,109.51,0,0,1,13.25-9.6,247.35,247.35,0,0,1,32.38-16.55c6-2.6,12.05-5.08,18.24-7.16,3.52-1.18,7.1-2.23,10.71-3.12a60.7,60.7,0,0,1,11.65-2c6.59-.31,14.24.29,18.3,6.17s6.7,12.72,9.29,19.35q1.08,2.79,2.12,5.58l.39-1.46a11.83,11.83,0,0,1-8.71,3.84c-1.58-.05-3.13-.44-4.72-.41a12.07,12.07,0,0,0-5.28,1.42,18.76,18.76,0,0,0-6.38,5.7c-1.28,1.68-2.92,1.11-4.67.12-2.53-1.42-4.42-3.49-7.33-4.22a9.08,9.08,0,0,0-8.46,2c-2.23,2.11-3.05,5.43-3,8.41,0,1.24.45,2.49.37,3.71s-1.16,2.81-2.42,2.89c-.77.05-1.57-.65-2.17-1a8.07,8.07,0,0,0-2.26-1.16,4.1,4.1,0,0,0-4.25,1.33,8.85,8.85,0,0,0-1.84,4.4,5.09,5.09,0,0,1-1.93,3.66c-2,1.38-5.62.87-6.13-1.83a20.68,20.68,0,0,0-.93-4.25,12.32,12.32,0,0,0-3-4.4c-4.52-4.09-11.34-1.76-15.58,1.57a10.65,10.65,0,0,0-4.56,11.62c.28,1.67.48,3.37-.79,4.71a6.76,6.76,0,0,1-3.93,1.72,21.62,21.62,0,0,0-5,1.67,23,23,0,0,0-7,5.14,30,30,0,0,0-5.69,9.23c-.4,1-.82,1.9-1.28,2.84,0,0,0-.07.07,0s-.3,0,0,0,.6.1.79.09c.34,0,.15.15.06,0s-.28-.41-.38-.58c-.88-1.38-1.62-2.86-2.39-4.3C309.65,494.2,307.05,495.71,308,497.42Z"/>
          <g>
            <path class="j" d="M341.17,432.36c2.92-1.51,5.4-2.75,6.94-3.52l2.62-1.29c5.2-2.54,8.43-4.12,12.73-5.94,2.68-1.13,7.14-3,13.18-4.93a131.3,131.3,0,0,1,16.67-4.13,46.54,46.54,0,0,1,9.87-1,24.28,24.28,0,0,1,7.8,1.22,22.91,22.91,0,0,1,3.94,1.8,18.39,18.39,0,0,1,2.79,1.94c1.58,1.4,2.44,3,3.93,5.85,2.2,4.23,3.26,7,3.26,7,2.16,4.64,3.68,9.4,6,14.55l1.83,4.44c1.12,2.7,4.16,10,7.24,17.68,3.35,8.32,5.88,14.62,8,20.38s3.75,11,5.37,17.08c.48,1.83.89,3.5,1.28,5.18,1,4.19,1.56,7.45,1.88,9.26,4.07,22.81,4.35,24.51,4.7,26.78,1.52,9.78,1.32,9.87,2.41,15.88,0,0,1.14,6.27,3.43,16.58.08.36.23,1,.43,1.84.41,1.65.93,3.52,1.59,5.55a81.1,81.1,0,0,0,3.72,9.35,83.17,83.17,0,0,0,4.64,8.45c1.55,2.48,3.08,4.67,4.49,6.7l.78,1.12c.3.45.7,1,1.29,1.87.19.29.89,1.3,1.63,2.37l1.9,2.74c1.82,2.65,2.74,4,2.79,4,1.44,2,3.09,4,4.83,6.16a11.36,11.36,0,0,1,2.18,3.65,11.21,11.21,0,0,1,.48,2.06,11.68,11.68,0,0,1,0,2.62,18.22,18.22,0,0,1-1.34,5.15,30.15,30.15,0,0,1-3.58,6.36,29.77,29.77,0,0,1-2.26,2.7,50.62,50.62,0,0,1-6.9,6.38c-2.55,2-5.24,3.85-7.7,5.43s-4.72,2.89-6.4,3.83-2.79,1.51-3,1.61c0,0-.7.36-1.43.71-7.63,3.74-10.09,4.76-10.09,4.76a68.14,68.14,0,0,1-12.29,3.8A64.24,64.24,0,0,1,432,677.78c-1.95.05-3.32,0-5.57-.15a39.45,39.45,0,0,1-7.93-1.16,9,9,0,0,1-1.89-.73,9.16,9.16,0,0,1-2.74-2.2,14,14,0,0,1-2.79-6c-1.27-5.56-2-9.74-2.54-12.12-.86-3.66-1.72-6.94-2.52-9.78-.55-2-1.71-5.92-3.21-10.23a85.57,85.57,0,0,0-5.31-12.49c-.79-1.42-1.56-2.69-2.25-3.79s-1.33-2-1.85-2.79l-1.29-1.92c-.53-.78-1.17-1.68-1.89-2.67-1.13-1.56-2.63-3.52-4.82-6.09s-5.06-5.73-8.93-9.69c-1.3-1.34-1.19-1.17-2.69-2.71-.68-.68-3.59-3.65-7.31-7.71-2.51-2.75-10.57-11.57-17.92-21.1-2.93-3.8-5.45-7.31-5.82-7.84-1-1.39-2-2.84-3.06-4.39-1.57-2.33-2.76-4.19-3.34-5.12-2.31-3.66-4-6.64-4.83-8.14-7.28-13-11.76-21.89-11.76-21.89S306.06,490,303.61,485.92l-.15-.26c-.37-.61-1.19-2-2.15-4-.17-.33-.33-.66-.51-1a58.1,58.1,0,0,1-2.64-6.77,8,8,0,0,1-.41-1.62,8.46,8.46,0,0,1,.47-4.17,22.81,22.81,0,0,1,1.57-4,27.18,27.18,0,0,1,2.48-3.9,44,44,0,0,1,4.57-5c1.47-1.47,2.6-2.62,4.29-4.07s2.72-2.22,4.53-3.59c0,0,2.44-1.84,4.62-3.37C325.72,440.38,332.46,436.88,341.17,432.36Z"/>
            <g>
              <path d="M420,419.73c4.7.69,9.42-3,10.33-7.63,1-5.2-2.4-10-7.29-11.62l1.05,1.85a11.7,11.7,0,0,0-1.61-9.89,12.59,12.59,0,0,0-8.05-4.72,14.58,14.58,0,0,0-14.28,5.88l2.79.76a10.93,10.93,0,0,0-5.07-8.05,11.23,11.23,0,0,0-10-.51l2.05.54a13.06,13.06,0,0,0-5.1-4.3l.69,1.7a11.28,11.28,0,0,0-5.44-12c-4-2.23-9.15-1.93-13.26-.11l1.82.24a15.81,15.81,0,0,0-18.12-2.44l1.82.23c-4.4-5.11-12.07-5.58-18.13-3.57a21.68,21.68,0,0,0-12.86,11.5l1.7-.69a20.37,20.37,0,0,0-10.73-.47,23.81,23.81,0,0,0-8.09,3.87A22.29,22.29,0,0,0,294.3,397l1.1-1.45a15.78,15.78,0,0,0-11.14,10.68,15.52,15.52,0,0,0,2.26,12.87l.53-2.05c-5.28,3-9.73,8.22-10.55,14.37a16,16,0,0,0,5.18,14.13l-.23-1.82c-2.25,3-3.75,6.33-2.95,10.17a14.57,14.57,0,0,0,4.22,7.17V459a12,12,0,0,0-3.16,14.23c2.31,4.68,8.27,8.09,13.44,6.56a10.4,10.4,0,0,0,6.2-5.26c.58-1.14.16-2.62.19-3.88a15.74,15.74,0,0,1,1.31-5.9,22.2,22.2,0,0,1,2.67-4.3c.1-.14.79-1,.38-.5l.17-.21c.22-.26.43-.52.66-.77a79.69,79.69,0,0,1,6.27-6.06,110.31,110.31,0,0,1,15.78-11.75c5.76-3.56,11.91-6.51,18-9.5,11.86-5.84,24.08-11.5,36.73-15.42C388,414.14,395,412.5,402,412.43a35,35,0,0,1,6.05.51,15.56,15.56,0,0,1,5.07,1.65,16.06,16.06,0,0,1,3.87,3.29,5.72,5.72,0,0,0,3,1.85c1.89.4,2.69-2.49.8-2.89-1.14-.24-1.71-1.12-2.48-1.92a15.55,15.55,0,0,0-4.25-3.22,25.47,25.47,0,0,0-9.19-2.15c-5.53-.53-11.3.53-16.67,1.71-12.36,2.73-24.09,7.95-35.55,13.21-6.86,3.14-13.63,6.49-20.33,10a116.81,116.81,0,0,0-15.49,9.65A102.82,102.82,0,0,0,303,456.2c-3.9,4.17-6.67,9.29-6.62,15.12,0,.41-.13,1.55.12,1.88-.08-.1.34-.62,0-.1-.11.19-.21.38-.33.57a7.65,7.65,0,0,1-2.74,2.65c-2.67,1.48-5.73.68-8.11-1a10.45,10.45,0,0,1-1.76-1.55,8.62,8.62,0,0,1-2-3.88,9,9,0,0,1,2.05-7.59,10.55,10.55,0,0,1,1.23-1.27,1.51,1.51,0,0,0,0-2.12,12,12,0,0,1-3.37-5.49c-.78-3.14.77-5.78,2.57-8.21a1.5,1.5,0,0,0-.24-1.82,13.16,13.16,0,0,1-4.35-11.66c.71-5.22,4.67-9.62,9.12-12.13a1.52,1.52,0,0,0,.54-2.05,12.17,12.17,0,0,1,7.09-19.14,1.55,1.55,0,0,0,1.1-1.45,19.13,19.13,0,0,1,8.61-14.24,21.45,21.45,0,0,1,6.8-3.34,17.23,17.23,0,0,1,9.52.37,1.51,1.51,0,0,0,1.7-.69,18.7,18.7,0,0,1,10.76-10c5.16-1.8,11.71-1.72,15.51,2.69A1.51,1.51,0,0,0,352,372a12.73,12.73,0,0,1,14.49,2,1.57,1.57,0,0,0,1.82.23,12.27,12.27,0,0,1,9.88-.08,8.17,8.17,0,0,1,4.41,8.8,1.55,1.55,0,0,0,.69,1.69,10.07,10.07,0,0,1,4,3.23,1.57,1.57,0,0,0,2.06.53c-.61.26.42-.12.59-.17a9.6,9.6,0,0,1,1.68-.33,7.68,7.68,0,0,1,4.71,1,7.51,7.51,0,0,1,2.93,3.33,8.77,8.77,0,0,1,.52,1.49c.05.19.22,1.2.14.64a1.52,1.52,0,0,0,2.8.75c.1-.14.12-.15,0,0l.27-.33c.25-.3.51-.58.78-.85a12.23,12.23,0,0,1,2.33-1.85,11,11,0,0,1,7.21-1.52,10.1,10.1,0,0,1,6.37,3.19,8.52,8.52,0,0,1,1.5,7.78,1.54,1.54,0,0,0,1.05,1.85c3.29,1.07,5.84,4.36,5.19,7.92-.51,2.8-3.55,6-6.64,5.54C418.92,416.57,418.11,419.46,420,419.73Z"/>
              <path d="M384.68,382.78c-5.52-3.36-12.57-.62-15.85,4.54-.78,1.22,1.17,2.35,1.94,1.13,2.61-4.1,8.31-6.44,12.78-3.73,1.24.76,2.37-1.19,1.13-1.94Z"/>
              <path d="M351.69,390.22a27.08,27.08,0,0,0-19.29,2.31,30.39,30.39,0,0,0-13,14.23,18.63,18.63,0,0,0-1.2,3.17,5,5,0,0,1-.21,1.14c-.27.44-1.28.23-1.78.21a17.89,17.89,0,0,0-8.47,1.82,27,27,0,0,0-12.66,13c-3.05,6.81-2.26,14.2,2.67,19.89.95,1.09,2.53-.5,1.59-1.59A15.79,15.79,0,0,1,297,427.33a25.17,25.17,0,0,1,11.48-12.1,16.56,16.56,0,0,1,8.13-1.69c1.24,0,2.66,0,3.33-1.24a12.41,12.41,0,0,0,.62-2.36,27.78,27.78,0,0,1,9.93-13.54,24.87,24.87,0,0,1,20.64-4,1.13,1.13,0,0,0,.6-2.17Z"/>
              <path d="M370.11,390.69c1.39-4.18,2.66-9.41,1-13.7a13.58,13.58,0,0,0-8.32-7.81c-7.38-2.76-16.38,1.49-20,8.25a12.66,12.66,0,0,0,.8,13.63c.84,1.16,2.8,0,1.94-1.13-4.72-6.44-.78-14.24,5.64-17.54a13.43,13.43,0,0,1,9.6-1.48,11.85,11.85,0,0,1,7.76,5.82,8.79,8.79,0,0,1,1.05,5,30.61,30.61,0,0,1-1.64,8.36c-.45,1.38,1.72,2,2.17.6Z"/>
              <path d="M328.51,395.1a17.6,17.6,0,0,1-4.87-8.8c-.09-.4-.16-.79-.22-1.19s0,.22,0,0c0-.43-.07-.86-.09-1.29a16.32,16.32,0,0,1,.67-5,1.13,1.13,0,0,0-2.17-.6,18.52,18.52,0,0,0,5.09,18.39c1,1,2.63-.58,1.59-1.59Z"/>
              <path d="M315.83,412.29a16.31,16.31,0,0,0-4.73-12.52c-4.18-4.1-10.42-5-15.91-3.42a1.13,1.13,0,0,0,.6,2.17c4.81-1.41,10.28-.66,13.9,3a14.12,14.12,0,0,1,3.89,10.74c-.09,1.44,2.16,1.44,2.25,0Z"/>
              <path d="M296.85,416.92a11.75,11.75,0,0,0-10,1.06,1.12,1.12,0,0,0,1.13,1.94,9.61,9.61,0,0,1,8.27-.83,1.13,1.13,0,0,0,.6-2.17Z"/>
              <path d="M295.2,438.24A14.82,14.82,0,0,0,281.44,445c-.78,1.22,1.16,2.35,1.95,1.13a12.65,12.65,0,0,1,11.81-5.62,1.13,1.13,0,0,0,1.12-1.12,1.15,1.15,0,0,0-1.12-1.13Z"/>
              <path class="k" d="M391.54,412.08a10.36,10.36,0,0,0-.81-6.79c-3.34-6.45-13.26-5.84-14.34-5.76a15.92,15.92,0,0,0-8,2.71,12.56,12.56,0,0,0-4.61,5.17c-1.77,4-.49,8.86.82,11,0,0,.39.66.31.72s-2.07-3.85-5.62-5.47a9.38,9.38,0,0,0-12.73,5.94"/>
              <path class="l" d="M335.68,434A10.49,10.49,0,0,1,339,423.21a13.48,13.48,0,0,1,9.62-3.33,12.26,12.26,0,0,1,5,1.63"/>
            </g>
          </g>
        </g>
        <g>
          <path class="m" d="M463,601.44c-1.74.81-2.61,2.64-1.93,4.08a3.23,3.23,0,0,0,4.37,1.15c1.74-.82,2.61-2.65,1.93-4.09S464.72,600.63,463,601.44Z"/>
          <path d="M462.23,599.82a5,5,0,0,0-2.81,6.46c1.09,2.33,4.12,3.24,6.76,2s3.89-4.13,2.8-6.46S464.86,598.59,462.23,599.82Zm3.19,6.85a3.23,3.23,0,0,1-4.37-1.15c-.68-1.44.19-3.27,1.93-4.08s3.7-.3,4.37,1.14S467.16,605.85,465.42,606.67Z"/>
          <path d="M403.92,468c-1.3.61-1.95,1.7-1.54,2.58s1.66,1.09,3,.49,1.95-1.7,1.54-2.59S405.23,467.36,403.92,468Z"/>
          <path class="m" d="M416.59,478.84a.59.59,0,1,0,0-1.07A1.31,1.31,0,0,0,416.59,478.84Z"/>
          <path d="M415.79,476.28a2.33,2.33,0,1,0,2.67,1.27A2.1,2.1,0,0,0,415.79,476.28Zm1.14,2.46a1,1,0,0,1-.27-.34.89.89,0,0,1-.09-.43.77.77,0,0,1,.27.34A.78.78,0,0,1,416.93,478.74Z"/>
          <g>
            <path class="m" d="M430,486.5a1.49,1.49,0,1,0,2,.72A1.5,1.5,0,0,0,430,486.5Z"/>
            <path d="M429.25,484.88a3.28,3.28,0,1,0,4.37,1.59A3.28,3.28,0,0,0,429.25,484.88Zm2,4.32a1.49,1.49,0,1,1,.72-2A1.49,1.49,0,0,1,431.27,489.2Z"/>
          </g>
          <g>
            <path class="m" d="M418.73,509.46a4,4,0,1,0,1.71-5.62A4.18,4.18,0,0,0,418.73,509.46Z"/>
            <path d="M424.85,513.05c2.43-1.14,3.31-4.45,1.94-7.38s-4.46-4.39-6.9-3.26-3.31,4.45-1.95,7.38S422.41,514.18,424.85,513.05Zm.49-6.71c1,2,.39,4.32-1.25,5.08s-3.75-.27-4.7-2.3-.39-4.32,1.25-5.09S424.39,504.3,425.34,506.34Z"/>
          </g>
          <path class="m" d="M433.76,521.44a1,1,0,1,0,.35-.27A.89.89,0,0,0,433.76,521.44Z"/>
          <path d="M433.35,519.55a1.92,1.92,0,1,0,2.87.74A2.09,2.09,0,0,0,433.35,519.55Zm.84,1.8a.23.23,0,1,1,.35-.27A.89.89,0,0,1,434.19,521.35Z"/>
          <path class="m" d="M443.91,536.7a3.27,3.27,0,1,0-1.54,4.42A3.49,3.49,0,0,0,443.91,536.7Z"/>
          <path class="m" d="M437.21,559.81c-.64.3-1,.92-.79,1.36s.91.56,1.54.27,1-.92.8-1.36S437.84,559.52,437.21,559.81Z"/>
          <path d="M440.38,559.32a3.11,3.11,0,1,0-1.66,3.74A2.91,2.91,0,0,0,440.38,559.32ZM438,561.44c-.63.29-1.34.17-1.54-.27s.15-1.06.79-1.36,1.34-.17,1.55.27S438.6,561.14,438,561.44Z"/>
          <path class="m" d="M450.48,572.28a.5.5,0,1,0-.42-.9.49.49,0,0,0-.24.66A.51.51,0,0,0,450.48,572.28Z"/>
          <path d="M448.2,572.79a2.28,2.28,0,1,0,1.1-3A2.29,2.29,0,0,0,448.2,572.79Zm1.86-1.41a.5.5,0,1,1,.42.9.51.51,0,0,1-.66-.24A.49.49,0,0,1,450.06,571.38Z"/>
          <path class="m" d="M446.59,592.64c-.26.12-.42.75-.08,1.46s.92,1,1.17.88.42-.75.09-1.46S446.85,592.52,446.59,592.64Z"/>
          <path d="M445.83,591c-1.26.59-1.68,2.27-.95,3.84s2.3,2.33,3.56,1.74,1.68-2.27.95-3.84S447.1,590.43,445.83,591Zm1.85,4c-.25.12-.84-.16-1.17-.88s-.18-1.34.08-1.46.84.16,1.18.88S447.94,594.86,447.68,595Z"/>
          <path class="m" d="M425.88,463.2c-1,.48-1.56,1.47-1.21,2.22a1.84,1.84,0,0,0,2.47.49c1-.48,1.56-1.47,1.21-2.21A1.82,1.82,0,0,0,425.88,463.2Z"/>
          <path d="M429.5,463.36a3.11,3.11,0,1,0-1.66,3.73A2.9,2.9,0,0,0,429.5,463.36Zm-2.42,2.11a1.17,1.17,0,0,1-1.55-.27c-.2-.43.16-1.06.8-1.35s1.34-.18,1.55.26S427.72,465.17,427.08,465.47Z"/>
          <path d="M437.08,539.93c1.17,2.51,3.77,3.79,5.79,2.85s2.7-3.75,1.53-6.27-3.77-3.79-5.79-2.85S435.91,537.41,437.08,539.93Zm5.92-2.76c.77,1.66.39,3.48-.86,4.06s-2.88-.3-3.66-2-.39-3.48.86-4.06S442.22,535.51,443,537.17Z"/>
        </g>
        <path class="j" d="M488.88,619.16A84.24,84.24,0,0,1,409.45,657"/>
      </g>
    </g>
    <g>
      <path d="M201.77,610V553.48l6.92.08c1.29,0,2.6,0,3.93-.14l4.32-.26c1.54-.09,3.28-.14,5.2-.14a37.33,37.33,0,0,1,12.66,1.77,12.56,12.56,0,0,1,9.08,12.75,16.24,16.24,0,0,1-.93,5.57,11.62,11.62,0,0,1-2.83,4.41,11,11,0,0,1-4.75,2.64,14,14,0,0,1,5.87,2.09,12.05,12.05,0,0,1,4.1,4.38,12.83,12.83,0,0,1,1.5,6.29,19.22,19.22,0,0,1-2.09,9.14,14.14,14.14,0,0,1-7.18,6.23q-5.08,2.26-14.14,2.27-3.9,0-8-.21l-6.48-.33Zm14.06-33.51c.31,0,.7.09,1.18.13l1.54.1,1.54,0c.48,0,.89,0,1.22,0q4.51,0,6.78-1.77t2.26-6.21q0-3.52-2.49-4.92a15,15,0,0,0-7.16-1.39l-1.56,0c-.68,0-1.35.07-2,.14a3.74,3.74,0,0,0-1.32.28Zm0,23.94a4.91,4.91,0,0,0,1.71.49,25.48,25.48,0,0,0,2.65.27c.95,0,1.8.07,2.56.07q4.86,0,7.26-1.91c1.59-1.28,2.39-3.41,2.39-6.37a6.7,6.7,0,0,0-2.37-5.55c-1.59-1.26-4.16-1.9-7.74-1.9l-1.63,0-1.94.06c-.66,0-1.25.06-1.76.09a9.15,9.15,0,0,0-1.13.14Z"/>
      <path d="M255.73,610V553.56h35.72v10.56H269.79v11.93h16.72v10.26H269.79v12.92h23.87V610Z"/>
      <path d="M302.55,610V553.56h35.72v10.56H316.61v11.93h16.72v10.26H316.61v12.92h23.86V610Z"/>
      <path d="M363.5,610H349.37V553.56h4.86c2,0,4.36-.1,7-.31s6-.3,10-.3a34.28,34.28,0,0,1,7.45.82,20.34,20.34,0,0,1,6.8,2.81,14.46,14.46,0,0,1,4.94,5.49,18.63,18.63,0,0,1,1.87,8.81,20.75,20.75,0,0,1-1.92,9.52,14.08,14.08,0,0,1-5.3,5.78,21.39,21.39,0,0,1-7.83,2.72l-3,.53a38.61,38.61,0,0,1-3.93.44q-2.44.17-6.86.17Zm0-29.79c.51.08,1.19.14,2.05.19s1.74.08,2.63.1l2.24,0q4.33,0,6.31-2.76a11.17,11.17,0,0,0,2-6.67,10.64,10.64,0,0,0-.74-4,6.2,6.2,0,0,0-2.74-3.06,11.39,11.39,0,0,0-5.71-1.18,27.24,27.24,0,0,0-3.1.18,20,20,0,0,0-2.91.51Zm17,29.79a7.43,7.43,0,0,1-.86-1.38q-.39-.82-1.2-2.64a55.28,55.28,0,0,1-2.05-5.34q-.92-2.8-1.84-5.23a15.17,15.17,0,0,0-2.15-4,3.83,3.83,0,0,0-3-1.58l3.27-2.58,9-1.22a9.4,9.4,0,0,1,3.7,3.12,29.88,29.88,0,0,1,2.89,5c.87,1.88,1.74,3.85,2.6,5.89a53.59,53.59,0,0,0,2.89,5.83c.38.68.77,1.37,1.18,2.05s.8,1.37,1.18,2Z"/>
      <path d="M413.51,581.9a33.23,33.23,0,0,1,2.2-12.59,25,25,0,0,1,6.16-9.07,26,26,0,0,1,9.19-5.47A34.42,34.42,0,0,1,442.39,553a41.32,41.32,0,0,1,6.55.43c1.76.3,3.28.62,4.56,1s2.49.65,3.63.88l-1.82,12.16c-.53-.36-1.29-.79-2.26-1.31a17,17,0,0,0-3.8-1.37,23.94,23.94,0,0,0-5.72-.59,15.69,15.69,0,0,0-7.83,2,14,14,0,0,0-5.55,5.74,19.14,19.14,0,0,0-2,9.25,24.32,24.32,0,0,0,1.81,9.76,14.36,14.36,0,0,0,5.37,6.52,15.84,15.84,0,0,0,8.86,2.34,21.09,21.09,0,0,0,4.86-.59,27.71,27.71,0,0,0,4.45-1.43,11.72,11.72,0,0,0,2.92-1.63v11.63c-1,.4-2.09.83-3.4,1.29a31,31,0,0,1-10.43,1.67q-9.35,0-15.83-3.53a23.55,23.55,0,0,1-9.84-10A32.48,32.48,0,0,1,413.51,581.9Z"/>
      <path d="M488.6,610.63a26.23,26.23,0,0,1-14.27-3.4,22.64,22.64,0,0,1-9-10.14,35.28,35.28,0,0,1-2.91-15.57q.19-10,3.71-16.24a21.77,21.77,0,0,1,9.59-9.16A33.88,33.88,0,0,1,489.66,553a24.66,24.66,0,0,1,13.76,3.25,22.36,22.36,0,0,1,8.76,10A35.07,35.07,0,0,1,515,581.68q-.18,10-3.57,16.37a21.62,21.62,0,0,1-9.27,9.39A30.54,30.54,0,0,1,488.6,610.63Zm.22-10.18a10,10,0,0,0,8.63-4.43q3.15-4.42,3.15-14.72a32.44,32.44,0,0,0-1.21-9.35,13.44,13.44,0,0,0-3.69-6.27,8.92,8.92,0,0,0-6.27-2.24,12,12,0,0,0-6.31,1.71,11.65,11.65,0,0,0-4.54,5.73q-1.68,4-1.69,11a31.5,31.5,0,0,0,1.33,9.58,14.6,14.6,0,0,0,4,6.57A9.48,9.48,0,0,0,488.82,600.45Z"/>
      <path d="M520.82,610l6.54-56.46h19.07l6.84,29,2.59,13.23,2-13.23,6.08-29h18.47l7,56.46H575.84l-2.35-29.71L572.65,564l-3.49,16.72-7.6,29.57H549l-8.21-29.57L537.08,564l-1,16.27L533.89,610Z"/>
      <path d="M598.11,610V553.56h5.55q3.87,0,7.77-.31t8.11-.3a31.76,31.76,0,0,1,11.67,1.92,14.73,14.73,0,0,1,7.47,6.29q2.6,4.37,2.6,11.7,0,10-5.95,15.47t-17.23,5.43c-1.47,0-2.65,0-3.53,0s-1.64,0-2.25,0V610Zm14.21-26.75c.81.08,1.69.15,2.63.21s2,.1,3.15.1a10.58,10.58,0,0,0,4.77-1.05,7.53,7.53,0,0,0,3.34-3.42,13.67,13.67,0,0,0,1.24-6.33,11.06,11.06,0,0,0-2.34-7.35q-2.34-2.79-7.32-2.6c-.86,0-1.78,0-2.77.09s-1.89.16-2.7.29Z"/>
      <path d="M653.74,610H638.92l19.69-56.84h16L694.48,610h-15L668.18,572l-1.82-7.37-1.9,7.37Zm-2.5-10.56,1.59-9.88h25.92l1.52,9.88Z"/>
      <path d="M699.88,610V553.56H713.1l19.3,31,7.22,15.2H737l-2.28-21.35V553.56H747.6V610H733.39l-18.31-30.24-8.29-17.33h3.12l2.81,23.18V610Z"/>
      <path d="M770.33,610V587.53l1.21,5-19.83-39h15.5l8.36,18.24,3.42,9h-1.9l2.89-9,8.51-18.24h15l-20,39.06,1.29-5.09V610Z"/>
    </g>
  </g>
</svg>
