<svg xmlns="http://www.w3.org/2000/svg" viewBox="0 0 1000 1000">
  <defs>
    <style>
      .a {
        fill: #d8d8d8;
      }

      .b {
        fill: #f0a800;
      }

      .c {
        fill: #301f13;
      }

      .d {
        fill: #ffd600;
      }

      .e {
        fill: #8d5103;
      }

      .f {
        fill: #fafafa;
      }

      .g {
        fill: #cecece;
      }

      .h {
        fill: #c4c4c4;
      }

      .i {
        fill: #bababa;
      }

      .j, .k, .l {
        fill: none;
        stroke: #000;
      }

      .j, .k {
        stroke-miterlimit: 10;
      }

      .j {
        stroke-width: 3px;
      }

      .k, .l {
        stroke-linecap: round;
        stroke-width: 2px;
      }

      .l {
        stroke-linejoin: round;
      }

      .m {
        fill: #f0f0c0;
      }
    </style>
  </defs>
  <path class="a" d="M500,772.36a272.35,272.35,0,1,1,192.59-79.77A270.59,270.59,0,0,1,500,772.36Z"/>
  <path class="b" d="M500,765.61a265.63,265.63,0,1,1,187.81-77.8A263.84,263.84,0,0,1,500,765.61Z"/>
  <path class="c" d="M500,713.84a213.85,213.85,0,1,1,151.2-62.63A212.48,212.48,0,0,1,500,713.84Z"/>
  <path class="a" d="M500,708.21a208.2,208.2,0,1,1,147.23-61A206.89,206.89,0,0,1,500,708.21Z"/>
  <path class="d" d="M500,762.23a262.21,262.21,0,1,1,185.43-76.8A260.57,260.57,0,0,1,500,762.23ZM500,240a260,260,0,1,0,183.84,76.15A258.25,258.25,0,0,0,500,240Z"/>
  <g>
    <path d="M382.65,662.28V640l2.73,0c.5,0,1,0,1.55,0l1.7-.11c.61,0,1.29-.05,2.06-.05a14.62,14.62,0,0,1,5,.7,5.34,5.34,0,0,1,2.74,2,5.43,5.43,0,0,1,.85,3,6.55,6.55,0,0,1-.37,2.2,4.7,4.7,0,0,1-1.12,1.74,4.37,4.37,0,0,1-1.88,1,5.47,5.47,0,0,1,2.32.83,4.64,4.64,0,0,1,1.62,1.73,5,5,0,0,1,.6,2.48,7.66,7.66,0,0,1-.83,3.61,5.68,5.68,0,0,1-2.84,2.46,14.15,14.15,0,0,1-5.58.89c-1,0-2.08,0-3.17-.08l-2.56-.13Zm5.54-13.23a4.24,4.24,0,0,0,.47.05l.61,0,.61,0h.47a4.27,4.27,0,0,0,2.68-.7,2.92,2.92,0,0,0,.89-2.45,2,2,0,0,0-1-1.94,5.8,5.8,0,0,0-2.82-.55l-.62,0c-.27,0-.53,0-.79.05a1.51,1.51,0,0,0-.52.11Zm0,9.45a2,2,0,0,0,.68.2c.32,0,.67.08,1,.1l1,0a4.49,4.49,0,0,0,2.87-.76,3,3,0,0,0,.94-2.51,2.65,2.65,0,0,0-.93-2.19,4.93,4.93,0,0,0-3.05-.75h-.65l-.77,0-.69,0a3,3,0,0,0-.45,0Z"/>
    <path d="M403.94,662.28V640H418v4.17H409.5v4.71h6.59v4H409.5V658h9.42v4.26Z"/>
    <path d="M422.42,662.28V640h14.1v4.17H428v4.71h6.59v4H428V658h9.42v4.26Z"/>
    <path d="M446.48,662.28H440.9V640h1.92c.81,0,1.73,0,2.77-.12s2.37-.12,4-.12a14,14,0,0,1,2.94.32,8.31,8.31,0,0,1,2.69,1.11,5.78,5.78,0,0,1,1.95,2.17,7.36,7.36,0,0,1,.73,3.48,8.31,8.31,0,0,1-.75,3.76,5.58,5.58,0,0,1-2.1,2.28,8.52,8.52,0,0,1-3.08,1.07l-1.17.21a14.24,14.24,0,0,1-1.56.17c-.64,0-1.54.07-2.71.07Zm0-11.76c.2,0,.47.06.81.08s.69,0,1,0h.88a2.87,2.87,0,0,0,2.5-1.09,4.44,4.44,0,0,0,.77-2.63,4.17,4.17,0,0,0-.29-1.57,2.39,2.39,0,0,0-1.08-1.2,4.48,4.48,0,0,0-2.26-.47,10.21,10.21,0,0,0-1.22.07,7.63,7.63,0,0,0-1.15.2Zm6.73,11.76a2.24,2.24,0,0,1-.34-.55c-.11-.21-.27-.56-.47-1a18.87,18.87,0,0,1-.82-2.11c-.24-.73-.48-1.42-.72-2.06A6.21,6.21,0,0,0,450,655a1.52,1.52,0,0,0-1.19-.62l1.29-1,3.54-.48a3.71,3.71,0,0,1,1.47,1.23,12.6,12.6,0,0,1,1.14,2c.34.75.68,1.52,1,2.33a21.39,21.39,0,0,0,1.14,2.3c.15.27.31.54.47.81s.32.54.46.81Z"/>
    <path d="M466.22,651.18a13.09,13.09,0,0,1,.87-5,9.8,9.8,0,0,1,2.43-3.58,10.25,10.25,0,0,1,3.63-2.16,13.53,13.53,0,0,1,4.48-.72,16.83,16.83,0,0,1,2.58.17,18.17,18.17,0,0,1,1.8.39c.51.14,1,.25,1.43.34l-.72,4.8c-.21-.14-.5-.31-.89-.52a7.08,7.08,0,0,0-1.5-.54,9.65,9.65,0,0,0-2.26-.23,6.3,6.3,0,0,0-3.09.77,5.58,5.58,0,0,0-2.19,2.27,7.55,7.55,0,0,0-.81,3.65,9.6,9.6,0,0,0,.72,3.86,5.66,5.66,0,0,0,2.12,2.57,6.28,6.28,0,0,0,3.49.92,8.53,8.53,0,0,0,1.92-.23,11.77,11.77,0,0,0,1.76-.56,4.92,4.92,0,0,0,1.16-.65v4.59c-.39.16-.83.33-1.35.51a12,12,0,0,1-4.11.66,12.86,12.86,0,0,1-6.25-1.39,9.32,9.32,0,0,1-3.89-4A12.89,12.89,0,0,1,466.22,651.18Z"/>
    <path d="M495.86,662.52a10.4,10.4,0,0,1-5.63-1.34,9,9,0,0,1-3.54-4,14,14,0,0,1-1.15-6.14,13.4,13.4,0,0,1,1.47-6.41,8.57,8.57,0,0,1,3.78-3.62,13.43,13.43,0,0,1,5.49-1.25,9.77,9.77,0,0,1,5.43,1.28,8.82,8.82,0,0,1,3.46,4,13.77,13.77,0,0,1,1.13,6.1,14.32,14.32,0,0,1-1.41,6.47,8.55,8.55,0,0,1-3.66,3.7A12.08,12.08,0,0,1,495.86,662.52Zm.09-4a4,4,0,0,0,3.41-1.75q1.25-1.74,1.24-5.81a12.8,12.8,0,0,0-.48-3.69,5.31,5.31,0,0,0-1.45-2.47,3.56,3.56,0,0,0-2.48-.89,4.75,4.75,0,0,0-2.49.68,4.6,4.6,0,0,0-1.79,2.26,11.6,11.6,0,0,0-.67,4.35,12.46,12.46,0,0,0,.53,3.78,5.75,5.75,0,0,0,1.57,2.6A3.72,3.72,0,0,0,496,658.5Z"/>
    <path d="M508.58,662.28,511.16,640h7.53l2.7,11.43,1,5.22.81-5.22,2.4-11.43h7.29l2.76,22.29H530.3l-.93-11.73-.33-6.42-1.38,6.6-3,11.67h-4.95l-3.24-11.67-1.47-6.6-.39,6.42-.87,11.73Z"/>
    <path d="M539.09,662.28V640h2.19c1,0,2.05,0,3.07-.12s2.09-.12,3.2-.12a12.47,12.47,0,0,1,4.61.76,5.81,5.81,0,0,1,3,2.48,9,9,0,0,1,1,4.62,7.88,7.88,0,0,1-2.34,6.11q-2.35,2.14-6.81,2.14h-1.39l-.89,0v6.45Zm5.61-10.56,1,.08c.37,0,.78,0,1.24,0a4.3,4.3,0,0,0,1.89-.41,3.08,3.08,0,0,0,1.32-1.35,5.54,5.54,0,0,0,.48-2.5,4.33,4.33,0,0,0-.92-2.9,3.36,3.36,0,0,0-2.89-1c-.34,0-.7,0-1.09,0a10.41,10.41,0,0,0-1.07.11Z"/>
    <path d="M561.05,662.28H555.2L563,639.84h6.33l7.83,22.44h-5.91l-4.47-15-.72-2.91-.75,2.91Zm-1-4.17.63-3.9h10.23l.6,3.9Z"/>
    <path d="M579.26,662.28V640h5.22l7.62,12.24,2.85,6h-1l-.9-8.43V640h5.07v22.29h-5.61l-7.23-11.94L582,643.5h1.23l1.11,9.15v9.63Z"/>
    <path d="M607.07,662.28V653.4l.48,2L599.72,640h6.12l3.3,7.2,1.35,3.54h-.75l1.14-3.54,3.36-7.2h5.91l-7.89,15.42.51-2v8.88Z"/>
  </g>
  <g>
    <g>
      <g>
        <path class="b" d="M644,482l-2.64-3.41a11.58,11.58,0,0,0-6.86-4.29c-2.5-.45-3.83.42-5.61-.81a5.37,5.37,0,0,1-1.67-1.9c-.59-1.14-.37-1.8-.61-4.17-.21-2-.31-3.06-.82-4a5.67,5.67,0,0,0-3.09-2.57,5.92,5.92,0,0,0-3.77.19c-3.64,1.24-3.78,4.35-6.6,4.65a3.74,3.74,0,0,1-3.38-1.23c-.48-.72-.14-1.24-.65-2.69-.31-.87-.72-2-1.6-2.35s-1.34.46-3.3,1.16a7.42,7.42,0,0,1-3.86.61,5.06,5.06,0,0,1-4.08-6.6,5,5,0,0,1,1.42-2.1,6.6,6.6,0,0,0,1.25-1.8,6.77,6.77,0,0,0,.49-4.54c-.79-2.71-3.55-3.85-5-4.43-1-.4-4.21-1.73-7.06-.36-2.13,1-1.82,2.48-4.21,3.63a7.38,7.38,0,0,1-5.29.53c-1.72-.61-1.92-1.71-4.67-3a16.18,16.18,0,0,0-2.23-.83,14.31,14.31,0,0,0-6.68-.8,20.79,20.79,0,0,0-4.17,1.05,11,11,0,0,1-3.42,1,9.58,9.58,0,0,1-1.24,0c-2,4.56-4.87,11.12-8.1,19.12-3.46,8.57-5.18,12.85-6.87,18.16a185.94,185.94,0,0,0-5.8,24.42c-1.47,8.17-2.33,15.3-2.7,18.44-1.08,9.09-1.16,13-2.79,20.67a61.49,61.49,0,0,1-3.76,12.46,74.93,74.93,0,0,1-5,9.13A163.22,163.22,0,0,1,510.33,579a60.16,60.16,0,0,0,9.55,11.3,64.46,64.46,0,0,0,15.3,10.38,66,66,0,0,0,15,5.79,61.48,61.48,0,0,0,22.46,1.17c.59-2.58,1.47-6.14,2.7-10.33a90,90,0,0,1,3.89-11.54c2.59-6,5.61-10,8.84-14.28.85-1.14.68-.86,8.39-10.12,4.84-5.8,5-6,7.44-8.94,4.76-5.67,6.18-7.25,9.37-11,6-7.07,9-10.6,11.83-14.49,4.91-6.6,8-12.46,14.35-24.18,2.56-4.78,6-11.28,9.75-19.17a6.51,6.51,0,0,1-2.49-.13A6.68,6.68,0,0,1,644,482Z"/>
        <path class="d" d="M649.32,483.19a10.85,10.85,0,0,1-4.36-1.6,11.27,11.27,0,0,1-1.79-1.43c-2.16-2-1.95-2.9-3.68-4.33a10.06,10.06,0,0,0-3.33-1.79,13.69,13.69,0,0,0-3.4-.55c-1.52-.05-2.19.19-3.2-.26a4.19,4.19,0,0,1-1.47-1.12c-2.5-2.82-.6-7.51-3.33-10.18a5.45,5.45,0,0,0-2.83-1.39,6.12,6.12,0,0,0-4.59,1.41c-.31.27-1,1-1.74,1.61a10.36,10.36,0,0,1-1,.91,4.68,4.68,0,0,1-3.06.53,3.74,3.74,0,0,1-1.84-.54,3.48,3.48,0,0,1-1.19-1.35,4.66,4.66,0,0,1-.41-1.39c-.21-1.18,0-1.51-.33-2a2,2,0,0,0-1.14-.76c-1.87-.56-2.88,1.69-5.59,1.74a5.65,5.65,0,0,1-2.68-.67,5.5,5.5,0,0,1-2.7-2.84,4.82,4.82,0,0,1-.09-3.1,18.31,18.31,0,0,1,2.14-2.9h0s1.37-2.23,1.18-4.13c-.14-1.4-1.11-2.36-2.12-3.35a10.75,10.75,0,0,0-5.64-2.82,7.17,7.17,0,0,0-4.76.49,9.83,9.83,0,0,0-2,1.75c-1.32,1.36-1.27,1.72-2.06,2.12-1.31.67-2.66.25-2.78.74-.06.24.24.51.38.64.38.34,1,.53,2.46.28a7,7,0,0,0,1.13-.27,17.59,17.59,0,0,1,2-.65,4.28,4.28,0,0,1,2.63.45,4.85,4.85,0,0,1,2.25,1.9,4.35,4.35,0,0,1,.62,3.1,9.21,9.21,0,0,1-.86,2c-.17.31-.24.38-.33.58a7.34,7.34,0,0,0-.76,2.55,8.38,8.38,0,0,0,1.25,4.78,9.71,9.71,0,0,0,4.37,3.7,10.65,10.65,0,0,0,4.29,1.18,8.43,8.43,0,0,1,1.51.05,7.08,7.08,0,0,1,2.4.78,5,5,0,0,1,1.59,1.26,11.13,11.13,0,0,1,.74,1.21,9.16,9.16,0,0,0,1.43,1.67,13.67,13.67,0,0,0,2.37,1.79,10.61,10.61,0,0,1,2.12,1.29,3,3,0,0,1,1.05,1.55,2.81,2.81,0,0,1-.15,1.63,3.88,3.88,0,0,1-.86,1.37c-1.7,1.76-2.85,4-4.29,5.94,0,0-2.72,3.77-5,7.58l-.25.41c-1,1.71-1.45,2.43-1.45,2.43-.44.72-.53.85-1.16,1.93-.8,1.38-1.2,2.07-2.17,3.81A147.76,147.76,0,0,1,588.43,514c-1.36,1.86-3.45,4.61-4.31,5.73-1,1.39-1.84,2.4-2.27,3-7.4,9.83-8,11.45-14.07,19.45a117,117,0,0,1-12,13.5c-4.06,3.83-7.23,6.17-10.61,11.36-3.1,4.76-3.78,7.91-3.38,10.76a11.28,11.28,0,0,0,2.18,5.4,15.28,15.28,0,0,0,5.38,4.1c.45.22,1.35.53,3.09,1.28.78.34,1.51.67,1.71,1.36a1.6,1.6,0,0,1-.09,1c-.59,1.25-3,1.26-4.3,1.31a19.66,19.66,0,0,1-5.19-.69A48.29,48.29,0,0,1,534,587.92l-.48-.23a41.45,41.45,0,0,1-6.57-3.72,23.33,23.33,0,0,1-2.59-2.26.53.53,0,0,0-.3-.17.35.35,0,0,0-.23.14c-.21.28.52,1.32.88,1.74,3.85,4.57,11.45,8.2,11.45,8.2a97.41,97.41,0,0,0,13.69,5.14c1.68.48,3.14.81,3.34.86a70,70,0,0,0,7,1.19c8.48,1,14.14,1.63,15.72-1,.29-.49.11-.54.47-2.4a37.55,37.55,0,0,1,2.28-7,59,59,0,0,1,4.25-9.39c.65-1.07,1.55-2.31,3.34-4.75,1-1.31,1.89-2.58,3-4.08,0,0,1.33-1.76,2.67-3.45,3.22-4.1,8.07-9.32,13.2-15.15,2-2.3,4.8-5.46,8.31-9.72.65-.79,3.26-4,6.6-8.23,1.77-2.27,2.66-3.4,3.56-4.64a109.19,109.19,0,0,0,6.2-9.65c4.85-8.33,8-14.16,8-14.16C642.2,496.73,646.09,489.36,649.32,483.19Z"/>
        <path class="e" d="M517.86,581.47c-.57-2.74.54-4.75,5.66-13.1s7.61-12.22,9.28-16.53c1.23-3.21,2.19-6.57,2.19-6.57.61-2.14,1-3.8,1.15-4.55,2.3-10.44,3.17-15.72,5.24-26.58a176.76,176.76,0,0,1,10.47-33.42,142.88,142.88,0,0,1,22.95-36.27A13.42,13.42,0,0,0,571,442c-3.57-1.53-6.94-1.08-10.34-.63a34.67,34.67,0,0,0-6.22,1.43c-1.66,3.8-4,9.27-6.71,15.92-4.75,11.76-7.13,17.64-9.45,25.75a188,188,0,0,0-4.55,20.43c-1.74,10.09-2.56,18.2-2.56,18.2-.36,3.57-.58,6.67-1.35,11.74-.83,5.45-1.64,8.95-1.84,9.8a75,75,0,0,1-3.06,10.43,68.39,68.39,0,0,1-6.55,12.35A129,129,0,0,1,510.33,579a59.66,59.66,0,0,0,14.12,15.61A63.31,63.31,0,0,0,537,602.07a70.05,70.05,0,0,0,14,4.78A67.17,67.17,0,0,0,573,608c.18-1.13.37-2.25.55-3.38a90,90,0,0,1-14.88-.67c-5.57-.73-12.78-1.72-21.16-5.64A53.26,53.26,0,0,1,522.68,588C518.94,584.54,518.16,583,517.86,581.47Z"/>
      </g>
      <path class="f" d="M660.15,464.47c1.25,2.17,5.18,3.44,8.2,1.86a6.91,6.91,0,0,0,2.87-8.83,8.42,8.42,0,0,0,4.13-4.05c1.59-3.63-.21-7.68-2.53-9.92a10.6,10.6,0,0,0-7.8-2.75,7.52,7.52,0,0,0,1.94-5.71,7.81,7.81,0,0,0-4.07-5.77,7,7,0,0,0,.3-1.41,6.84,6.84,0,0,0-.1-2l-.24-1.26a7.73,7.73,0,0,0,3.07-3.11,7.86,7.86,0,0,0,.9-3.68,8.51,8.51,0,0,0-1.8-4.92,11,11,0,0,0-4.26-3.6,11.16,11.16,0,0,0-7-11,8.83,8.83,0,0,0,.07-2.75,10.67,10.67,0,0,0-2.55-5.36,15.84,15.84,0,0,0-11.94-6,16.34,16.34,0,0,0-4.78.6,15,15,0,0,0-3.48-5.17,16.18,16.18,0,0,0-7.3-3.84,16.6,16.6,0,0,0-6.93-.64,16.11,16.11,0,0,0-7.26,2.87,11.11,11.11,0,0,0-11.24-1.1,11.35,11.35,0,0,0-5.78,7.12,16.14,16.14,0,0,0-5.74-1.08,13,13,0,0,0-6.15,1.22,11.94,11.94,0,0,0-4.49,3.77,11.66,11.66,0,0,0-2.06,6.32c-.39,0-.93.07-1.57.16a12.1,12.1,0,0,0-2,.4,8.15,8.15,0,0,0-2.51,1.49c-2.47,2.14-2.77,6.12-2.8,6.49-.3-.06-4.78-.75-7.72,2.53a8.34,8.34,0,0,0-2,6c0,.72.27,4.45,3.4,6.29a7.23,7.23,0,0,0,5.4.65,14.38,14.38,0,0,1,4.88-3.45,16.67,16.67,0,0,1,6.27-1.16,37.08,37.08,0,0,1,6.31.49c2.08.27,4.76.63,8.33,1.43,1.29.29,4.46,1,8.69,2.41,3.69,1.22,6.59,2.47,12.4,5,8.19,3.52,14.26,6.56,16.79,7.83,3.51,1.76,7.25,3.67,11.11,6a79.15,79.15,0,0,1,10.48,7.34c4.81,4,6.54,6.49,7.17,7.43,1.52,2.29,2.85,4.29,3.18,7.21S659.24,462.89,660.15,464.47Z"/>
      <path class="f" d="M563.72,419.47a13,13,0,0,1,4.51-3.83c3-1.52,5.91-1.37,10.55-1.14a51.34,51.34,0,0,1,6.6.77,69,69,0,0,1,8.82,2.12,216.17,216.17,0,0,1,22.53,8.67c6.68,2.92,10.5,4.6,15.76,7.42a109.75,109.75,0,0,1,12.68,7.75c4.29,3.07,6.43,4.6,8.64,7.25A29.72,29.72,0,0,1,660,461.63c-.38,1.22-.74,2.48-1.26,3.71a193.35,193.35,0,0,1-8.88,17.45,12.41,12.41,0,0,1-6.93-2.68c-2.63-2.22-2.3-4.21-4.77-5.82-3.38-2.21-5.77.34-8.5-1.53-3.82-2.62-1-8.93-5-11.47a7.08,7.08,0,0,0-6.88-.14c-1.08.67-1.13,1.35-2.62,2.26-.73.44-2.89,1.74-4.53,1.09-2.21-.89-1.21-4.48-3.36-5.52s-4,1.78-7.27,1c-1.81-.45-3.77-1.93-4-3.62s1.5-2.26,2.54-5c.18-.47,1.28-3.38.36-5.77-1.42-3.71-7.57-5.84-12.08-4.46-3.93,1.2-4.59,4.46-8,4.47-2.47,0-4-1.76-5.63-3-2.92-2.09-8.18-3.7-18.43-.82Q559.27,430.62,563.72,419.47Z"/>
      <path class="g" d="M574.43,395a9.94,9.94,0,0,0-2.07.26,9.1,9.1,0,0,0-3.54,1.39,5.43,5.43,0,0,0-1.4,1.3,5.93,5.93,0,0,0-.95,2.1,9,9,0,0,0-.4,1.94,1.8,1.8,0,0,1-.34,1.17,1.29,1.29,0,0,1-.37.31,2.34,2.34,0,0,1-1.74-.08,4.77,4.77,0,0,0-2.76.36,6.77,6.77,0,0,0-3.62,2.9,7.17,7.17,0,0,0-1,3,7.08,7.08,0,0,0,.42,4.16,6.55,6.55,0,0,0,2.73,2.93,6.7,6.7,0,0,0,4.37.73l1.47-1.64-.48-.25a6,6,0,0,1-.7-.67,7.89,7.89,0,0,1-.71-1A8.5,8.5,0,0,1,562.1,411a5,5,0,0,1,.07-1.81,4,4,0,0,1,.78-1.78,4.47,4.47,0,0,1,1-.87,5.62,5.62,0,0,1,.86-.45,11.84,11.84,0,0,1,1.61-.37,4.79,4.79,0,0,0,1-.33,2.24,2.24,0,0,0,.76-.61,2.39,2.39,0,0,0,.31-1.32,10.31,10.31,0,0,1,.34-2.12,5.18,5.18,0,0,1,.89-1.7,5.58,5.58,0,0,1,1.62-1.35,7.06,7.06,0,0,1,2.16-.77,12.73,12.73,0,0,1,2.21-.26,13.31,13.31,0,0,1,3.11.26,13.87,13.87,0,0,1,3.34,1.11,10.7,10.7,0,0,0-2.91-2.31A9.8,9.8,0,0,0,574.43,395Z"/>
      <path class="h" d="M595.66,387.55a9.22,9.22,0,0,0-5.22-3.46,12.69,12.69,0,0,0-5.35-.52c-1.1.13-6.24.73-8.75,5a9.84,9.84,0,0,0-1.27,5.17c.61.09,1.28.21,2,.37a21.31,21.31,0,0,1,2.18.64,8.11,8.11,0,0,1,8.81-8.82,11.33,11.33,0,0,1,5,1.31,13.61,13.61,0,0,1,3.63,2.5A7.4,7.4,0,0,0,595.66,387.55Z"/>
      <path class="h" d="M614.31,387.9a11.3,11.3,0,0,0-3.54-8,11.17,11.17,0,0,0-1.86-1.37c-.3-.17-.61-.34-.93-.49a10.62,10.62,0,0,0-14.19,4.86,9.09,9.09,0,0,0-.49,1.28,13.41,13.41,0,0,1,1,1.11A9.74,9.74,0,0,1,598,382.4a10.26,10.26,0,0,1,6.49-.57,12.28,12.28,0,0,1,5.21,2.53,14.18,14.18,0,0,1,4.3,5.79A9.45,9.45,0,0,0,614.31,387.9Z"/>
      <path class="i" d="M622.29,376.11a15.21,15.21,0,0,0-7.7-.39,13.31,13.31,0,0,0-4.86,2.3,11.73,11.73,0,0,1,1.45,1.12,11.48,11.48,0,0,1,1.5,1.62,13.73,13.73,0,0,1,1.31,2,10.17,10.17,0,0,1,5.32-1.76,11,11,0,0,1,7.44,2.29,9.81,9.81,0,0,1,3.17,4.54,8.26,8.26,0,0,1,2.36-2.11,10,10,0,0,1,1.47-.69,11.3,11.3,0,0,0-2.11-3.71,13.71,13.71,0,0,0-3.72-2.91A21.27,21.27,0,0,0,622.29,376.11Z"/>
      <path class="h" d="M645.85,385.59a13.23,13.23,0,0,0-10.55-.24,13.69,13.69,0,0,0-6.23,5.1c-.24.37-.47.76-.68,1.16a5,5,0,0,0-.31.62,3.35,3.35,0,0,0-.18,1.69,11.83,11.83,0,0,1,6.17-3.87,12.48,12.48,0,0,1,8.21,1.1,16.57,16.57,0,0,1,7.51,6.82,12.9,12.9,0,0,1,3.67,0A13.3,13.3,0,0,0,645.85,385.59Z"/>
      <path class="g" d="M653.2,398.77c-.18-.09-.37-.15-.55-.23a16.07,16.07,0,0,0-2.19-.66,11,11,0,0,0-6.69.44,8.62,8.62,0,0,0-3.45,3.17c.73-.22,6.69-1.86,11.31,1.76a9.63,9.63,0,0,1,3.91,6.08,8.58,8.58,0,0,1-.49,4.2,9.22,9.22,0,0,1-4.55,4.86,10.23,10.23,0,0,0,3.74-.84,10.81,10.81,0,0,0,1.09-.59,10.07,10.07,0,0,0,1.72-1.34,9.65,9.65,0,0,0,2-2.77,9.28,9.28,0,0,0,.54-1.5,10.4,10.4,0,0,0,.33-2.06A11.22,11.22,0,0,0,653.2,398.77Z"/>
      <path class="i" d="M661.6,410.73c-.2-.1-.41-.17-.62-.25-.08.28-.17.55-.27.83-.14.45-.29.88-.44,1.32a5.82,5.82,0,0,1,1.57,3.35,5.93,5.93,0,0,1-1.09,4.1,13.11,13.11,0,0,1,1.8,2.36,13.45,13.45,0,0,1,1,2.08,11.39,11.39,0,0,0,1.1-1.86C666.88,417.9,665.51,412.55,661.6,410.73Z"/>
      <path class="g" d="M675.32,450.58a7.58,7.58,0,0,0-1.5-4.68,9.55,9.55,0,0,0-3.11-3,10.16,10.16,0,0,0-2.85-1.12,10.73,10.73,0,0,0-2.42-.26c-.83-.09-1.08-.32-1.15-.51-.21-.61,1.24-1.13,1.85-2.74a5.28,5.28,0,0,0,.16-2.68,6.06,6.06,0,0,0-.81-2.62,18.59,18.59,0,0,0-2-2.16c-.86-.87-1-1-1.17-1.36-.3-.73-.08-1.19-.06-2.34a11.5,11.5,0,0,0-.27-2.51,8.35,8.35,0,0,0-2-3.61c-2.63-2.75-6.6-2.32-7-2.27L650.76,420a10.61,10.61,0,0,1,1.14.11,9.79,9.79,0,0,1,4.32,1.6,6.87,6.87,0,0,1,2.1,2,6.44,6.44,0,0,1,1,2.65,6.61,6.61,0,0,1-.16,2.43,4.66,4.66,0,0,0,.58,2.15c.84,1.46,1.92,1.25,2.85,2.65a5,5,0,0,1,.62,4,8.28,8.28,0,0,1-.6,1.48,7.82,7.82,0,0,0-.68,1.25,3,3,0,0,0-.17,1.32c.2,1.32,1.77,2,2,2.14.88.39.87,0,2.16.49a7.8,7.8,0,0,1,2.27,1.27s.19.15.36.31a6.55,6.55,0,0,1,2.05,3.88,6,6,0,0,1-1.2,4.62c-1.07,1.14-2.13.95-2.39,1.86-.32,1.18,1.35,1.91,1.26,3.65a3.4,3.4,0,0,1-1.21,2.3c-1.43,1.16-4.06.93-6.21-.89a4,4,0,0,0-.24,1.32,3.81,3.81,0,0,0,.44,1.77,6.26,6.26,0,0,0,3.3,1.77,5.49,5.49,0,0,0,3.7-.49,5.55,5.55,0,0,0,2-2,6.4,6.4,0,0,0,.51-5.42,2,2,0,0,1,.31-1c.36-.52.88-.61,1.39-.89a4.56,4.56,0,0,0,1.62-1.82A7.7,7.7,0,0,0,675.32,450.58Z"/>
      <path class="a" d="M587.28,395.54c4.42-3.67,9.84-3.1,11.52-2.92,7.57.78,12,6.34,12.86,7.49a21.3,21.3,0,0,1,8.21-2.76A21.72,21.72,0,0,1,630,398.6a19.75,19.75,0,0,1,9.35,6.92c1.12,1.6,2.21,3.71,1.85,4-.19.15-1.14-.54-3-1.92-2.77-2-3.11-2.28-3.59-2.6a22.9,22.9,0,0,0-4.36-2.41,18,18,0,0,0-6.3-1.26,19.38,19.38,0,0,0-6.39,1c-1,.33-3.08,1.12-3.82,1.39a15.56,15.56,0,0,1-2.34.85c-2.21.2-3.21-2.36-6.3-4.67a15.2,15.2,0,0,0-7.38-3,14.3,14.3,0,0,0-7.87,1.53A19.27,19.27,0,0,0,585,402c-1.8,1.74-2.39,2.89-2.6,2.77C582,404.53,583,399.09,587.28,395.54Z"/>
      <path class="a" d="M643,425a8.51,8.51,0,0,0-3.87-.45,8.61,8.61,0,0,0-5.16,2.93,5.42,5.42,0,0,0-1.57,2.12,5.49,5.49,0,0,0-.39,2.51,10.57,10.57,0,0,1,3.45-2.39,9.54,9.54,0,0,1,7.09-.37,9.87,9.87,0,0,1,4.17,3.32,13.22,13.22,0,0,1,2,3.42,9.24,9.24,0,0,1,.8,3,8.15,8.15,0,0,1-.68,3.83,2.64,2.64,0,0,0,1.37-.13c.31-.12.73-.35,1.57-1.53a7.23,7.23,0,0,0,1.44-2.62,5.64,5.64,0,0,0,0-2.45,14.37,14.37,0,0,0-2.19-5.37A15.38,15.38,0,0,0,643,425Z"/>
      <path class="a" d="M608.54,420.43c0,.4.64.66,1.23.84a9.75,9.75,0,0,1,5.3-1.37c5.24.23,8.13,4.93,8.39,5.37a8.25,8.25,0,0,0-1-3.17,9.08,9.08,0,0,0-7.64-4.22C611.67,417.83,608.44,419.47,608.54,420.43Z"/>
      <path class="a" d="M623.26,422.66a9.55,9.55,0,0,1,1.07,3.4.87.87,0,0,0,.36-.07,1.07,1.07,0,0,0,.46-.74,2.94,2.94,0,0,0,0-1.39c-.21-1-.69-1.5-.51-1.69s.56.14.63,0-1.46-1.52-2.84-1.83c-.11,0-.25-.05-.32,0C621.9,420.64,622.71,421.67,623.26,422.66Z"/>
      <path class="a" d="M622.65,420.32l-.08,1.59a7.24,7.24,0,0,1,4.76,1.51,7.44,7.44,0,0,1,2.42,7.28c.17.19.64.7.94.57s.24-.45.26-.68c.14-1.33.46-1.28.61-2.53a7.41,7.41,0,0,0-.43-3.89,6.94,6.94,0,0,0-3.54-3.46A7.44,7.44,0,0,0,622.65,420.32Z"/>
      <path class="a" d="M612,464.93c.71-.09,1-.81,1.89-1.85a15,15,0,0,1,3-2.8A3.8,3.8,0,0,0,616,460a3.54,3.54,0,0,0-1,0c-1.5.16-2.43,1-3,.66s-.55-.94-.43-2.92c.2-3.37-4.32-3.05-7.41-1.72s-3.78-2.46-1.21-6.8.06-12.46-3.86-14.63-16,.18-19.4,3.43-6.19-.8-9.79-2.48-1.22-8.54,1.63-11.72,8.78-1.8,13.51.4c6.55,3.06,6.18-1.71,11.52-1.22,7.89.73,16.26,5.26,18.66,7.1a4.23,4.23,0,0,0,1,.6c2.08.87,4.55-.09,6.63-1.35-.64-.31-1.29-.62-1.95-.92s-1.51-.7-2.24-1l-.08,0-2.23-1.06c-5-2.33-9.94-4.38-14.71-6.1-16.19-5.84-28.9-6-33.11-4.7A7,7,0,0,0,565.7,417c-1.39,2.15-2.78,4.5-4.13,7.07a89.63,89.63,0,0,0-7,17.59,22.91,22.91,0,0,1,17.27-.57c4.9,1.89,5.06,4.14,7.68,3.85,3.45-.38,3.85-4.35,8.32-5.35a10,10,0,0,1,6.18.77c.56.23,5.48,2.31,6,6.18.31,2.27-.9,5.09-2,6.75a7.82,7.82,0,0,0-1.6,4,2.74,2.74,0,0,0,.3,1.29,2.87,2.87,0,0,0,1.45,1.25c1.56.68,2.68-.49,5.35-.8,1.18-.14,3.71-.44,5.09,1a4.25,4.25,0,0,1,.94,3.14C610.18,464,611.06,465.05,612,464.93Z"/>
      <path class="c" d="M509.3,579.86a76,76,0,0,0,5.94,7.14,65.66,65.66,0,0,0,37.93,20.68,70,70,0,0,0,19.3.69c-.26,2.13-.55,3.9-.79,5.21a20,20,0,0,1-.9,3.68,14.26,14.26,0,0,1-1.89,3.47,25.75,25.75,0,0,1-7.7,3.37c-5.67,1.41-10.27.42-15.83-.84a77.4,77.4,0,0,1-17.08-6.33A67.26,67.26,0,0,1,515,609.11a52.22,52.22,0,0,1-6.7-6.39,26.62,26.62,0,0,1-4.13-5.75,22.84,22.84,0,0,1-2-5.86,30.29,30.29,0,0,1,3.83-7.34A30.77,30.77,0,0,1,509.3,579.86Z"/>
      <path d="M554.57,436.53c-.49,1.22-1,2.44-1.41,3.69a2.9,2.9,0,0,0,0,2.36c.93,1.57,2.94.95,4.32.51,4.65-1.48,9.64-2.16,14.19,0,2.62,1.24,4.58,3.85,7.67,3.92s4.32-2.14,6.27-4c3.12-2.95,9.37-.89,11.71,2.19,1.59,2.09.62,5.11-1,6.9a6.8,6.8,0,0,0-1.71,2.44,5.55,5.55,0,0,0,.4,4.13,6.08,6.08,0,0,0,6.06,3.41,8.92,8.92,0,0,0,3.36-1.3,3.84,3.84,0,0,1,1.79-.59c.84,0,.84.71.93,1.41a5.65,5.65,0,0,0,1.19,3.47,4.7,4.7,0,0,0,3.54,1.27,5.16,5.16,0,0,0,3.22-1.16,33.23,33.23,0,0,1,2.71-2.59c2.06-1.39,4.63-1.87,6.46.14,1.56,1.71,1.35,3.87,1.6,6s.83,4.52,2.82,5.62a6.31,6.31,0,0,0,3.52.42,10.35,10.35,0,0,1,3.46.44,7.43,7.43,0,0,1,3.94,2.47,39.54,39.54,0,0,0,2.6,3.56,12.41,12.41,0,0,0,8,3.44,1.45,1.45,0,0,0,1.29-.74,126,126,0,0,0,8.4-16.75,19.45,19.45,0,0,0,1.73-7.41,15.24,15.24,0,0,0-2.9-8.06,37.69,37.69,0,0,0-5.42-6.53,69.66,69.66,0,0,0-7.92-6.19,135.93,135.93,0,0,0-13.62-8.17,229.08,229.08,0,0,0-28.75-13,94.83,94.83,0,0,0-14-4.06c-4.92-1-10.09-1.88-15.13-1.43a17,17,0,0,0-8.1,2.63c-2.57,1.75-3.86,4.25-5.15,7-2.22,4.73-4.07,9.7-6,14.55-.72,1.8,2.18,2.57,2.9.8,1.53-3.82,3.07-7.65,4.66-11.46,1-2.28,1.92-4.95,3.53-6.86a10.86,10.86,0,0,1,5.76-3.25c4.74-1.18,10-.31,14.69.53a91,91,0,0,1,12.36,3.16,194.85,194.85,0,0,1,26.67,11.35c4.7,2.37,9.38,4.83,13.86,7.62,5,3.08,10.11,6.44,14,10.81a23.92,23.92,0,0,1,5,7.67,11.23,11.23,0,0,1-.39,7.62c-2.19,6.3-5.51,12.13-8.79,17.92l1.3-.75a8.93,8.93,0,0,1-6.45-3.24c-.71-.91-1.24-1.94-2-2.84a9.28,9.28,0,0,0-3.49-2.61,14.58,14.58,0,0,0-7-1.17c-1.68.1-2-.9-2.37-2.58-.4-2.13-.15-4.17-1-6.23a7.6,7.6,0,0,0-5-4.49c-2.7-.66-5.37.47-7.47,2.12-.86.68-1.45,1.67-2.31,2.31-.6.45-2.11.71-2.66,0a3.29,3.29,0,0,1-.33-1.53,6.87,6.87,0,0,0-.49-2.15,3.53,3.53,0,0,0-3.07-2.07,7.21,7.21,0,0,0-3.94,1.15,3.68,3.68,0,0,1-3.15.61,3.18,3.18,0,0,1-2-2,2.26,2.26,0,0,1,.73-2.52,9.9,9.9,0,0,0,2.84-7.73c-.54-4.6-5.78-7.33-9.91-7.9a9.3,9.3,0,0,0-6.45,1.12c-1.87,1.24-3.23,4.51-5.83,4-1.42-.27-2.4-1.41-3.54-2.19a17,17,0,0,0-3.26-1.73,19.47,19.47,0,0,0-9-1.27,48.38,48.38,0,0,0-7.41,1.76l-.34.08c-.22.07-.15-.06,0,.05-.63-.57,1.69,1.42.62.95.08,0-.14.19,0-.17.62-1.28,1-2.77,1.53-4.09C558.18,435.54,555.28,434.76,554.57,436.53Z"/>
      <g>
        <path class="j" d="M611.27,423.56c2.4,1,4.42,1.87,5.67,2.42l2.12.93c4.19,1.86,6.79,3,10.08,4.7,2.05,1.05,5.46,2.8,9.71,5.49a105.43,105.43,0,0,1,11,8,37.46,37.46,0,0,1,5.62,5.5,19.6,19.6,0,0,1,3.23,5.35,18.1,18.1,0,0,1,.91,3.31,14,14,0,0,1,.24,2.68c0,1.67-.56,3-1.54,5.36a60.34,60.34,0,0,1-2.58,5.53c-1.71,3.67-3.82,7-5.79,11,0,0-.59,1.14-1.75,3.37-1.08,2.06-4,7.64-7,13.39-3.34,6.27-5.88,11-8.3,15.22s-4.74,7.85-7.64,11.95c-.86,1.22-1.66,2.32-2.49,3.41-2.05,2.72-3.72,4.74-4.65,5.85-11.77,14.09-12.66,15.12-13.86,16.49-5.16,5.9-5.31,5.83-8.41,9.55,0,0-3.22,3.88-8.31,10.52-.18.23-.5.65-.9,1.2-.79,1.09-1.66,2.35-2.56,3.79a62.17,62.17,0,0,0-3.77,7,64.83,64.83,0,0,0-2.77,7.12c-.71,2.2-1.27,4.24-1.78,6.14-.09.32-.17.62-.28,1s-.26.94-.48,1.73c-.07.27-.33,1.2-.6,2.2s-.57,2-.7,2.54c-.68,2.46-1,3.69-1,3.75-.47,1.88-.86,3.92-1.27,6.07a9.22,9.22,0,0,1-1.11,3.18,8.73,8.73,0,0,1-1,1.34,9.28,9.28,0,0,1-1.57,1.34,14.34,14.34,0,0,1-3.81,1.81,23.94,23.94,0,0,1-5.68,1.07,23.57,23.57,0,0,1-2.79,0A40.09,40.09,0,0,1,548,624c-2.51-.53-5-1.22-7.21-1.91s-4.15-1.39-5.58-1.93-2.34-.92-2.49-1l-1.16-.5c-6.15-2.73-8-3.7-8-3.7a55,55,0,0,1-8.57-5.53,51.19,51.19,0,0,1-6.34-5.87c-1-1.16-1.67-2-2.74-3.46a30.62,30.62,0,0,1-3.33-5.4,7,7,0,0,1-.53-1.52,7.43,7.43,0,0,1-.06-2.78,11.06,11.06,0,0,1,2.21-4.73c2.73-3.61,4.9-6.16,6.06-7.71,1.79-2.39,3.34-4.58,4.66-6.51.92-1.35,2.71-4.05,4.56-7.16a66.19,66.19,0,0,0,4.88-9.58c.46-1.2.84-2.31,1.15-3.29s.56-1.85.75-2.55c.13-.44.31-1,.51-1.75s.43-1.57.66-2.51c.37-1.48.8-3.39,1.24-6s.91-6,1.33-10.34c.15-1.48.11-1.32.27-3,.08-.75.39-4,1-8.36.39-2.92,1.63-12.3,3.67-21.61.81-3.71,1.67-7,1.8-7.53.33-1.3.7-2.66,1.1-4.08.61-2.14,1.14-3.81,1.41-4.64,1-3.26,2-5.79,2.48-7.08,4.19-11,7.29-18.27,7.29-18.27s9.47-22,10.73-25.62a1.87,1.87,0,0,1,.07-.23c.19-.53.64-1.76,1.32-3.33.12-.27.24-.54.38-.83a45.1,45.1,0,0,1,2.76-5,6.27,6.27,0,0,1,.78-1.07,6.7,6.7,0,0,1,2.76-1.85A18.74,18.74,0,0,1,571,414.6a21.38,21.38,0,0,1,3.63-.49,37.84,37.84,0,0,1,5.34.24c1.64.15,2.91.26,4.66.54,1.58.26,2.73.52,4.47.92,0,0,2.37.54,4.4,1.09C598.54,418.27,604.09,420.58,611.27,423.56Z"/>
        <g>
          <path d="M658.85,465.23c2.15,3.39,7.18,4.23,10.55,2.23a8.47,8.47,0,0,0,3.26-10.35L672,458.8c5-2.37,6.67-7.9,4.4-12.82a11.78,11.78,0,0,0-11.35-6.7l1.06,2.57A8.87,8.87,0,0,0,663.64,428l.69,1.69a10.94,10.94,0,0,0,0-5.48l-.69,1.7a9.24,9.24,0,0,0,4.6-9.34c-.54-3.69-3.41-6.95-6.68-8.56l.74,1.29a12.84,12.84,0,0,0-8.06-12.46l1,1.85c.86-5.46-2.44-10.28-6.87-13.19a17.46,17.46,0,0,0-14.18-2.14l1.85,1c-2.17-5.26-6.42-8.56-11.84-10.06a17.91,17.91,0,0,0-15.34,2.39h1.52a12.63,12.63,0,0,0-13.76-.55,12.84,12.84,0,0,0-5.46,7.46l1.84-1c-4.72-1.75-10.56-1.68-14.78,1.32a13.13,13.13,0,0,0-5.56,10.36l1.5-1.5c-3.17.2-6.16,1-8.17,3.61a12.14,12.14,0,0,0-2.22,6.43l1.9-1.45c-4.12-.68-8.62,1-10.55,4.9a10.44,10.44,0,0,0,1,10.92,8.17,8.17,0,0,0,7.25,2.81,3.71,3.71,0,0,0,2.58-1.2,12.76,12.76,0,0,1,3.22-2.27c4-2,8.84-1.35,13.11-.78a90,90,0,0,1,15.21,3.43,157.48,157.48,0,0,1,15.18,6.08c9.72,4.27,19.51,8.86,28.46,14.58,5,3.16,10.08,6.9,13.7,11.62a18.76,18.76,0,0,1,3.35,6.1,10.53,10.53,0,0,1,.18,4.22,5.41,5.41,0,0,0,.45,3.45c.9,1.71,3.49.19,2.59-1.52a3.83,3.83,0,0,1,0-2.2,12.58,12.58,0,0,0-.19-4.15,19,19,0,0,0-3.33-6.77,43.46,43.46,0,0,0-9.45-9.26c-7.94-6.15-17.06-10.65-26.1-14.94-9.73-4.62-19.7-9.27-30.19-11.84a85.1,85.1,0,0,0-14.55-2.3c-4.48-.3-9,.55-12.55,3.38a7.05,7.05,0,0,0-1.41,1.25c-.22.3-.36.08.18,0-.24,0-.48.1-.72.13a5.4,5.4,0,0,1-4.08-1.14,7,7,0,0,1,1.23-10.81,7.15,7.15,0,0,1,3.14-.85c.4,0,.79,0,1.19,0l.28,0c.39,0-.32-.06,0,0a1.52,1.52,0,0,0,1.9-1.44,9.77,9.77,0,0,1,1.41-4.36c1.4-2.09,3.62-2.53,6-2.68a1.53,1.53,0,0,0,1.5-1.5,9.91,9.91,0,0,1,4.39-8c3.57-2.4,8.25-2.26,12.15-.8a1.52,1.52,0,0,0,1.85-1.05,9.32,9.32,0,0,1,14.81-5.12,1.48,1.48,0,0,0,1.52,0,14.88,14.88,0,0,1,12.79-2.15c4.4,1.19,8.18,3.67,10,8a1.53,1.53,0,0,0,1.84,1.05,14.48,14.48,0,0,1,11.32,1.49c3.4,2.05,6.7,5.92,6,10.15a1.55,1.55,0,0,0,1,1.84,10,10,0,0,1,5.86,9.57,1.49,1.49,0,0,0,.75,1.3,9.43,9.43,0,0,1,5.16,6,6.21,6.21,0,0,1-3.08,6.75,1.53,1.53,0,0,0-.69,1.69,7.66,7.66,0,0,1,0,3.89,1.51,1.51,0,0,0,.69,1.69,5.85,5.85,0,0,1,1.83,9.12,1.52,1.52,0,0,0,1.06,2.56,8.85,8.85,0,0,1,8.43,4.55,6.5,6.5,0,0,1-3,9.38,1.49,1.49,0,0,0-.69,1.69c.94,2.37.6,5.24-1.61,6.79-1.92,1.36-5.38,1.13-6.72-1C660.41,462.09,657.82,463.59,658.85,465.23Z"/>
          <path d="M663.71,424.57c-.76-5-6.11-8-10.88-7.41a1.17,1.17,0,0,0-1.13,1.13,1.13,1.13,0,0,0,1.13,1.12c3.93-.52,8.08,1.63,8.71,5.76a1.13,1.13,0,0,0,1.38.78,1.15,1.15,0,0,0,.79-1.38Z"/>
          <path d="M642.35,408.29c-5-10.25-17-14.39-27.65-10.94-.45.15-.89.31-1.32.5a4.28,4.28,0,0,1-.91.45c-.68.09-1.75-1.82-2.29-2.35a16,16,0,0,0-5.59-3.31,21.92,21.92,0,0,0-14.13-.14,14.44,14.44,0,0,0-9.77,11.42c-.23,1.42,1.94,2,2.17.6a12.18,12.18,0,0,1,8-9.77,19.86,19.86,0,0,1,13.18.06,13,13,0,0,1,4.89,3c1.42,1.51,2.37,3.68,4.71,2.4a17.27,17.27,0,0,1,6.32-1.71,21.66,21.66,0,0,1,7.57.42,19.53,19.53,0,0,1,12.92,10.47c.64,1.3,2.58.16,1.94-1.14Z"/>
          <path d="M651.21,420.18c3.23-1.29,7-3.08,8.88-6.16a10.73,10.73,0,0,0,.85-9.24c-2.06-6.12-9.12-9.63-15.33-8.47a10.33,10.33,0,0,0-8.3,7.69c-.34,1.41,1.83,2,2.17.6,1.52-6.19,8.42-7.44,13.57-5.12a10.2,10.2,0,0,1,5.36,5,9,9,0,0,1,.33,7.31c-1.39,3.24-5,5-8.12,6.26-1.33.53-.75,2.71.59,2.17Z"/>
          <path d="M627.67,396.83a13.7,13.7,0,0,1,2.8-7.2c.14-.2-.07.08.08-.11l.16-.2c.09-.11.17-.21.26-.3.24-.27.5-.52.77-.77a12.35,12.35,0,0,1,3.43-2.16,1.13,1.13,0,1,0-1.14-1.94,14.87,14.87,0,0,0-8.61,12.68,1.13,1.13,0,1,0,2.25,0Z"/>
          <path d="M610.55,398.26a13.24,13.24,0,0,0,5.43-9.84c.27-4.63-2.46-8.82-6.21-11.33-1.2-.8-2.33,1.14-1.13,2a10.28,10.28,0,0,1,.77,17.27c-1.15.85,0,2.81,1.14,1.95Z"/>
          <path d="M598.35,388.88a9.64,9.64,0,0,0-6-5.85,1.13,1.13,0,0,0-1.38.79,1.15,1.15,0,0,0,.79,1.38l.4.15c.21.09-.21-.1,0,0l.18.09a7.63,7.63,0,0,1,.89.48c.17.1.33.21.49.32s.23.17.13.09.13.11.16.14a9.33,9.33,0,0,1,.73.68l.46.51c.16.2-.17-.23,0,0l.26.37a9.25,9.25,0,0,1,.49.87l.1.21.05.11c0,.08,0,0-.05-.1,0,.07.12.29.14.37a1.15,1.15,0,0,0,1.39.78,1.14,1.14,0,0,0,.78-1.38Z"/>
          <path d="M584.59,398.67a12,12,0,0,0-11.23-5.17,1.16,1.16,0,0,0-1.12,1.12c0,.55.52,1.21,1.12,1.13a9.74,9.74,0,0,1,5.7.93,9.51,9.51,0,0,1,2.37,1.7,11.26,11.26,0,0,1,.81.88s.22.28.06.06l.1.14.24.34a1.16,1.16,0,0,0,1.54.41,1.14,1.14,0,0,0,.41-1.54Z"/>
          <path class="k" d="M649.22,443.8a8.22,8.22,0,0,0,3.7-3.95c2.22-5.32-3.2-11-3.8-11.64a12.67,12.67,0,0,0-5.73-3.49,9.9,9.9,0,0,0-5.49-.16c-3.3.94-5.62,4.21-6.29,6.12,0,0-.19.57-.27.55s1.28-3.21.45-6.19a7.41,7.41,0,0,0-10.07-4.7"/>
          <path class="l" d="M607.48,421.06a8.31,8.31,0,0,1,8.25-3.46,10.66,10.66,0,0,1,6.92,4.14,9.57,9.57,0,0,1,1.53,3.84"/>
        </g>
      </g>
      <path class="m" d="M570.7,583.53a2.33,2.33,0,1,0,1.54,3.24A2.56,2.56,0,0,0,570.7,583.53Z"/>
      <path d="M571.3,582.25a3.73,3.73,0,1,0,2.22,5.12A4,4,0,0,0,571.3,582.25Zm-2.53,5.42a2.33,2.33,0,1,1,3.47-.9A2.56,2.56,0,0,1,568.77,587.67Z"/>
      <path d="M621.61,479.76c-1-.48-2-.32-2.35.38s.19,1.56,1.22,2,2,.33,2.35-.38S622.65,480.24,621.61,479.76Z"/>
      <path class="m" d="M621.47,493a1,1,0,0,0,0,.84,1.06,1.06,0,0,0,.63-.55,1,1,0,0,0,0-.85A1,1,0,0,0,621.47,493Z"/>
      <path d="M622.61,491.19a1.84,1.84,0,0,0-1.53,3.28,1.84,1.84,0,0,0,1.53-3.28Zm-.91,1.94a.91.91,0,0,1,.07-.34.71.71,0,0,1,.22-.27.85.85,0,0,1-.07.34A.63.63,0,0,1,621.7,493.13Z"/>
      <g>
        <path class="m" d="M623.65,505a1.18,1.18,0,1,0,.57,1.57A1.18,1.18,0,0,0,623.65,505Z"/>
        <path d="M624.25,503.73a2.6,2.6,0,1,0,1.26,3.46A2.6,2.6,0,0,0,624.25,503.73Zm-1.6,3.43a1.18,1.18,0,1,1,1.57-.57A1.19,1.19,0,0,1,622.65,507.16Z"/>
      </g>
      <g>
        <path class="m" d="M604,509.86a3.13,3.13,0,1,0,4.28-1.82A3.29,3.29,0,0,0,604,509.86Z"/>
        <path d="M604.92,515.4c1.93.9,4.38-.26,5.46-2.58s.4-4.94-1.54-5.84-4.38.25-5.46,2.57S603,514.5,604.92,515.4Zm4.32-3.11c-.76,1.61-2.42,2.43-3.72,1.82s-1.75-2.41-1-4,2.43-2.43,3.73-1.83S610,510.67,609.24,512.29Z"/>
      </g>
      <path class="m" d="M604.37,525.08a.63.63,0,0,0,.27.22.85.85,0,0,0,.34.07.71.71,0,0,0-.27-.22A.91.91,0,0,0,604.37,525.08Z"/>
      <path d="M605.3,523.87a1.52,1.52,0,1,0,1,2.12A1.65,1.65,0,0,0,605.3,523.87Zm-.66,1.43a.63.63,0,0,1-.27-.22.91.91,0,0,1,.34.07.71.71,0,0,1,.27.22A.85.85,0,0,1,604.64,525.3Z"/>
      <path class="m" d="M600.27,539a2.59,2.59,0,1,0-3.47,1.31A2.76,2.76,0,0,0,600.27,539Z"/>
      <path class="m" d="M582.84,546.71c-.51-.24-1.07-.14-1.23.21s.13.84.63,1.07a.92.92,0,0,0,1.23-.21C583.63,547.43,583.34,546.94,582.84,546.71Z"/>
      <path d="M584.75,548.38a2.46,2.46,0,1,0-3.11.9A2.3,2.3,0,0,0,584.75,548.38Zm-2.51-.39c-.5-.23-.79-.72-.63-1.07s.72-.45,1.23-.21.79.72.63,1.07A.92.92,0,0,1,582.24,548Z"/>
      <path class="m" d="M582,561.1a.39.39,0,0,0,.53-.19.4.4,0,1,0-.53.19Z"/>
      <path d="M580.56,560a1.81,1.81,0,1,0,2.4-.87A1.82,1.82,0,0,0,580.56,560Zm1.81.41a.4.4,0,0,1,.19.52.4.4,0,0,1-.72-.33A.4.4,0,0,1,582.37,560.39Z"/>
      <path class="m" d="M567.7,569.11c-.2-.1-.67.13-.93.69s-.14,1.07.06,1.17.67-.13.94-.7S567.9,569.2,567.7,569.11Z"/>
      <path d="M568.3,567.82a2.5,2.5,0,1,0,.75,3A2.23,2.23,0,0,0,568.3,567.82ZM566.83,571c-.2-.1-.33-.6-.06-1.17s.73-.79.93-.69.33.59.07,1.16S567,571.06,566.83,571Z"/>
      <path class="m" d="M635.68,490.65a1.44,1.44,0,0,0-1.95.39c-.28.59.15,1.38,1,1.76a1.44,1.44,0,0,0,1.95-.39C636.92,491.81,636.49,491,635.68,490.65Z"/>
      <path d="M637.43,492.93a2.46,2.46,0,1,0-3.11.89A2.3,2.3,0,0,0,637.43,492.93Zm-2.51-.39c-.5-.24-.79-.73-.63-1.08s.73-.44,1.23-.21.79.73.63,1.08S635.42,492.77,634.92,492.54Z"/>
      <path d="M594.84,536.51c-.93,2-.39,4.21,1.21,5s3.66-.27,4.58-2.26.39-4.22-1.21-5S595.76,534.52,594.84,536.51Zm4.68,2.18c-.61,1.32-1.91,2-2.9,1.55s-1.29-1.9-.67-3.22,1.91-2,2.9-1.55S600.14,537.38,599.52,538.69Z"/>
      <path class="j" d="M573.13,608.27a66.68,66.68,0,0,1-63.37-28.94"/>
    </g>
    <g>
      <g>
        <path class="b" d="M440,443.09l-4.31-.17a11.55,11.55,0,0,0-7.69,2.5c-2,1.62-2.15,3.2-4.24,3.78a5.36,5.36,0,0,1-2.53.05c-1.25-.28-1.61-.87-3.58-2.21-1.7-1.15-2.54-1.73-3.56-1.92a5.71,5.71,0,0,0-3.95.72,5.86,5.86,0,0,0-2.28,3c-1.39,3.58.9,5.69-.68,8a3.75,3.75,0,0,1-3.11,1.79c-.87-.1-1-.69-2.49-1.23-.86-.32-2-.75-2.82-.28s-.51,1.31-1.24,3.27a7.36,7.36,0,0,1-2,3.35,5.06,5.06,0,0,1-7.68-1.12,4.93,4.93,0,0,1-.69-2.44,7,7,0,0,0-.58-2.11,6.81,6.81,0,0,0-3.17-3.29c-2.57-1.14-5.23.24-6.57,1-.94.49-4,2.11-4.81,5.17-.59,2.29.72,3,.06,5.56a7.24,7.24,0,0,1-3,4.39c-1.57.94-2.54.38-5.29,1.66a14.94,14.94,0,0,0-2.08,1.17,14.38,14.38,0,0,0-4.91,4.6,21.15,21.15,0,0,0-1.87,3.88,11,11,0,0,1-1.46,3.23,9.89,9.89,0,0,1-.77,1c2.19,4.49,5.39,10.88,9.44,18.5,4.34,8.16,6.52,12.23,9.5,16.93a183.06,183.06,0,0,0,15,20.14c5.31,6.38,10.22,11.62,12.39,13.92,6.27,6.67,9.19,9.24,14,15.43a60.8,60.8,0,0,1,7.12,10.89,75.31,75.31,0,0,1,3.8,9.68,161.58,161.58,0,0,1,4.45,15.91,60.51,60.51,0,0,0,14.8-.05,64.21,64.21,0,0,0,17.78-5A65.26,65.26,0,0,0,475,595a61.3,61.3,0,0,0,15.33-16.45c-1.59-2.11-3.75-5.07-6.17-8.7a92.39,92.39,0,0,1-6.35-10.4c-2.9-5.82-4-10.72-5.25-15.95-.33-1.39-.23-1.08-2.36-12.94-1.33-7.43-1.4-7.71-2.06-11.44-1.29-7.29-1.59-9.4-2.43-14.27-1.58-9.11-2.37-13.67-3.49-18.38-1.91-8-4.38-14.18-9.31-26.53-2-5-4.81-11.82-8.41-19.79a6.7,6.7,0,0,1-1.71,1.82A6.52,6.52,0,0,1,440,443.09Z"/>
        <path class="d" d="M444.35,439.78a11,11,0,0,1-4,2.31,11.71,11.71,0,0,1-2.25.45c-2.93.35-3.48-.37-5.68,0a10.09,10.09,0,0,0-3.51,1.39,13.6,13.6,0,0,0-2.61,2.26c-1,1.13-1.26,1.79-2.25,2.28a4.27,4.27,0,0,1-1.81.41c-3.77.1-6.14-4.38-9.93-4a5.38,5.38,0,0,0-2.89,1.27,6.1,6.1,0,0,0-1.87,4.42c0,.41.06,1.41.12,2.37a7.87,7.87,0,0,1,.05,1.34,4.62,4.62,0,0,1-1.56,2.69,3.7,3.7,0,0,1-1.6,1.06,3.45,3.45,0,0,1-1.79,0,4.49,4.49,0,0,1-1.33-.58c-1-.59-1.16-1-1.74-1a2.07,2.07,0,0,0-1.32.39c-1.62,1.07-.55,3.29-2.25,5.4a5.71,5.71,0,0,1-2.24,1.63,5.51,5.51,0,0,1-3.91.24,4.72,4.72,0,0,1-2.43-1.93,17.81,17.81,0,0,1-.84-3.5h0s-.82-2.48-2.4-3.56c-1.16-.79-2.52-.66-3.93-.52a10.74,10.74,0,0,0-5.78,2.5,7.19,7.19,0,0,0-2.69,4,10.08,10.08,0,0,0,0,2.69c.2,1.89.5,2.08.3,2.95-.33,1.43-1.52,2.19-1.22,2.6.15.2.54.14.74.12.5-.07,1-.44,1.79-1.7a7.64,7.64,0,0,0,.52-1,17.27,17.27,0,0,1,.77-1.94,4.28,4.28,0,0,1,2-1.72,4.79,4.79,0,0,1,2.9-.5,4.29,4.29,0,0,1,2.78,1.52,9.82,9.82,0,0,1,.94,1.91c.12.32.14.42.23.62a7.24,7.24,0,0,0,1.46,2.22,8.48,8.48,0,0,0,4.47,2.12,9.67,9.67,0,0,0,5.64-1,10.53,10.53,0,0,0,3.66-2.52,8.56,8.56,0,0,1,1-1.13,6.74,6.74,0,0,1,2.14-1.33,5.06,5.06,0,0,1,2-.42,12.74,12.74,0,0,1,1.41.22,9.19,9.19,0,0,0,2.19,0,13.58,13.58,0,0,0,2.89-.67,11,11,0,0,1,2.36-.79,3,3,0,0,1,1.86.19,2.85,2.85,0,0,1,1.15,1.16,3.82,3.82,0,0,1,.5,1.54c.25,2.43,1.2,4.74,1.8,7.11,0,0,1.13,4.5,2.6,8.68l.16.45c.66,1.88.92,2.67.92,2.67.27.8.32.95.74,2.13.53,1.5.81,2.25,1.52,4.11a147,147,0,0,1,4.64,14.84c.55,2.24,1.31,5.6,1.62,7,.39,1.7.66,2.95.82,3.65,2.77,12,3.61,13.5,5.86,23.28A118.12,118.12,0,0,1,439.71,558c.32,5.58.08,9.51,1.88,15.44,1.65,5.43,3.63,8,6.07,9.5a11.25,11.25,0,0,0,5.54,1.8,15.05,15.05,0,0,0,6.6-1.49c.45-.2,1.27-.69,3-1.54a2.58,2.58,0,0,1,2.13-.43,1.57,1.57,0,0,1,.72.72c.58,1.25-.95,3.09-1.75,4.13a20.47,20.47,0,0,1-3.88,3.53,47.43,47.43,0,0,1-9.56,5.79l-.49.22a40.46,40.46,0,0,1-7.07,2.64,22,22,0,0,1-3.4.54.49.49,0,0,0-.32.12.35.35,0,0,0,0,.26c.08.35,1.35.45,1.9.45,6,0,13.65-3.5,13.65-3.5A97.51,97.51,0,0,0,467.38,589c1.45-1,2.64-1.89,2.81-2a65.55,65.55,0,0,0,5.42-4.6c6.2-5.87,10.34-9.79,9.3-12.72-.19-.54-.34-.43-1.54-1.9a38.17,38.17,0,0,1-3.9-6.26c-2.35-4.35-3.53-6.52-4.47-9.3-.4-1.18-.77-2.67-1.49-5.6-.39-1.58-.76-3.11-1.18-4.94,0,0-.49-2.15-.93-4.27-1.06-5.1-2-12.17-3.12-19.84-.46-3-1.1-7.2-2.1-12.62-.19-1-.94-5.05-2.07-10.35-.6-2.81-.89-4.21-1.27-5.71a106.55,106.55,0,0,0-3.4-10.95c-3.27-9.07-5.74-15.19-5.74-15.19C450.15,453.93,447,446.22,444.35,439.78Z"/>
        <path class="e" d="M435.13,603.65c-2.46-1.32-3.29-3.47-6.39-12.76s-4.47-13.68-6.7-17.73c-1.66-3-3.62-5.9-3.62-5.9-1.25-1.84-2.28-3.2-2.75-3.8-6.52-8.48-10-12.54-17-21.11a176.68,176.68,0,0,1-18.87-29.5,142.8,142.8,0,0,1-13-40.89,13.37,13.37,0,0,0-4.33,1.32c-3.47,1.74-5.29,4.62-7.13,7.51a35.08,35.08,0,0,0-2.9,5.68c1.84,3.72,4.52,9,7.88,15.37,6,11.21,8.93,16.81,13.65,23.8a189.31,189.31,0,0,0,12.73,16.62c6.61,7.82,12.3,13.65,12.3,13.65,2.5,2.58,4.73,4.74,8.12,8.58,3.64,4.14,5.8,7,6.32,7.72a74.25,74.25,0,0,1,6,9,69.33,69.33,0,0,1,5.25,13,126.46,126.46,0,0,1,3.69,13.61,59.89,59.89,0,0,0,21-.78,63.32,63.32,0,0,0,13.82-4.84,70.92,70.92,0,0,0,12.66-7.64,67.1,67.1,0,0,0,15-16.06l-2.23-2.6a89.4,89.4,0,0,1-10.09,11,67.09,67.09,0,0,1-17.91,12.58,53.24,53.24,0,0,1-17.43,4.72C438.18,604.79,436.46,604.37,435.13,603.65Z"/>
      </g>
      <path class="f" d="M437,419.45c2.47.43,6-1.76,6.69-5.09a6.9,6.9,0,0,0-4.92-7.87,8.31,8.31,0,0,0-.45-5.77c-1.75-3.55-6-4.78-9.21-4.44a10.6,10.6,0,0,0-7.13,4.21,7.45,7.45,0,0,0-3.13-5.15,7.75,7.75,0,0,0-7-.59,6.62,6.62,0,0,0-.89-1.14,6.71,6.71,0,0,0-1.6-1.22l-1.12-.62a7.66,7.66,0,0,0-2.65-7.41,8.58,8.58,0,0,0-4.93-1.79,10.91,10.91,0,0,0-5.49.95,11.16,11.16,0,0,0-12.91-1.75,9.16,9.16,0,0,0-2.07-1.81,10.52,10.52,0,0,0-5.74-1.49,15.62,15.62,0,0,0-6.75,1.3,15.85,15.85,0,0,0-5.5,4,15.66,15.66,0,0,0-2.61,4,14.89,14.89,0,0,0-6.2-.65,16.23,16.23,0,0,0-7.65,3.12,16.75,16.75,0,0,0-4.94,4.9,16.09,16.09,0,0,0-2.46,7.41,11.1,11.1,0,0,0-8.07,7.9,11.33,11.33,0,0,0,1.74,9,16.34,16.34,0,0,0-4.52,3.7,13,13,0,0,0-3,5.5,12.12,12.12,0,0,0,0,5.86,11.65,11.65,0,0,0,3.52,5.65c-.23.31-.55.75-.89,1.3a11.25,11.25,0,0,0-1,1.8,8,8,0,0,0-.48,2.87c.05,3.27,2.91,6.07,3.17,6.32-.24.2-3.65,3.18-3,7.54a8.39,8.39,0,0,0,3.34,5.4c.57.42,3.58,2.65,7,1.43a7.25,7.25,0,0,0,4-3.71,14.29,14.29,0,0,1,.5-6,16.63,16.63,0,0,1,3.13-5.55,39.15,39.15,0,0,1,4.44-4.52c1.54-1.41,3.54-3.24,6.45-5.46,1.05-.8,3.65-2.76,7.43-5.1,3.3-2.05,6.13-3.47,11.78-6.31,8-4,14.19-6.71,16.79-7.83,3.61-1.56,7.47-3.2,11.73-4.66a80.42,80.42,0,0,1,12.36-3.31c6.17-1.1,9.18-.83,10.3-.71,2.74.31,5.13.57,7.57,2.2S435.17,419.13,437,419.45Z"/>
      <path class="f" d="M340.51,464.39a13.08,13.08,0,0,1,0-5.92c.77-3.28,2.74-5.41,5.9-8.82a52.76,52.76,0,0,1,4.84-4.55,69.49,69.49,0,0,1,7.29-5.39A216.28,216.28,0,0,1,379.64,428c6.53-3.23,10.27-5.08,15.81-7.3A110.36,110.36,0,0,1,409.53,416c5.11-1.31,7.67-2,11.11-2a29.8,29.8,0,0,1,14,3.73c.69,1.07,1.43,2.16,2,3.35,1.48,2.9,3.9,8.24,7.66,18a12.39,12.39,0,0,1-6.51,3.58c-3.39.59-4.71-.94-7.53-.08-3.87,1.17-3.45,4.64-6.63,5.53-4.47,1.24-7.49-5-12-3.54a7.07,7.07,0,0,0-4.53,5.19c-.18,1.26.31,1.73,0,3.45-.13.84-.51,3.33-2.07,4.17-2.1,1.13-4.21-2-6.39-1s-1.19,4.19-3.92,6.19c-1.51,1.1-3.9,1.65-5.33.71s-.76-2.6-2.21-5.17c-.24-.44-1.77-3.16-4.19-4-3.75-1.3-9.34,2-11.18,6.39-1.6,3.78.47,6.38-1.68,9-1.59,1.9-3.9,1.89-5.9,2.41-3.47.89-8.09,3.88-12.47,13.58Z"/>
      <path class="g" d="M328.66,440.47a9.41,9.41,0,0,0-1.13,1.75,9.09,9.09,0,0,0-1.21,3.6,5.53,5.53,0,0,0,.09,1.9,6.13,6.13,0,0,0,1,2.09,9.2,9.2,0,0,0,1.23,1.55,1.76,1.76,0,0,1,.68,1,1.5,1.5,0,0,1,0,.49c-.13.66-.82,1-1.19,1.28a4.8,4.8,0,0,0-1.49,2.35,6.74,6.74,0,0,0-.11,4.63,7.46,7.46,0,0,0,1.68,2.69,7.07,7.07,0,0,0,3.47,2.35,6.45,6.45,0,0,0,4-.21,6.67,6.67,0,0,0,3.37-2.87l-.31-2.18-.5.21a6,6,0,0,1-1,.1,6.58,6.58,0,0,1-1.24-.12,8.76,8.76,0,0,1-3.08-.92,5.11,5.11,0,0,1-1.33-1.22,4.08,4.08,0,0,1-.86-1.74,4.27,4.27,0,0,1,0-1.31,4.83,4.83,0,0,1,.21-.95,12,12,0,0,1,.75-1.47,3.86,3.86,0,0,0,.41-1,2.15,2.15,0,0,0,0-1c-.11-.44-.39-.66-.82-1.08a10.2,10.2,0,0,1-1.4-1.63,5.25,5.25,0,0,1-.73-1.78,5.33,5.33,0,0,1,0-2.11,7.14,7.14,0,0,1,.81-2.15,12.88,12.88,0,0,1,1.21-1.86,13.74,13.74,0,0,1,5.2-4.05,10.63,10.63,0,0,0-3.64.74A9.74,9.74,0,0,0,328.66,440.47Z"/>
      <path class="h" d="M336.59,419.41a9.24,9.24,0,0,0-6,1.77,12.7,12.7,0,0,0-3.83,3.76c-.61.93-3.45,5.26-1.76,9.94a9.87,9.87,0,0,0,3.14,4.31c.46-.42,1-.86,1.57-1.3a20.65,20.65,0,0,1,1.89-1.26,9,9,0,0,1-3.48-6.73,8.84,8.84,0,0,1,2.39-5.69,11.35,11.35,0,0,1,4.2-3,14.09,14.09,0,0,1,4.25-1.17A7.9,7.9,0,0,0,336.59,419.41Z"/>
      <path class="h" d="M348.84,405.34a11.31,11.31,0,0,0-8.4-2.43,10.62,10.62,0,0,0-2.24.55c-.33.12-.66.25-1,.4a10.61,10.61,0,0,0-5.39,14,9.92,9.92,0,0,0,.66,1.2A12.9,12.9,0,0,1,334,419a9.75,9.75,0,0,1,.11-4.64,10.32,10.32,0,0,1,3.74-5.34,12.15,12.15,0,0,1,5.29-2.36,14.09,14.09,0,0,1,7.2.42A9.29,9.29,0,0,0,348.84,405.34Z"/>
      <path class="i" d="M344.94,391.65a15.27,15.27,0,0,0-5.24,5.65,13.45,13.45,0,0,0-1.37,5.2,12.19,12.19,0,0,1,1.8-.39,12,12,0,0,1,2.19-.11,13.8,13.8,0,0,1,2.41.31,10.3,10.3,0,0,1,2.07-5.21,11.12,11.12,0,0,1,6.54-4.23,9.88,9.88,0,0,1,5.52.49,8.32,8.32,0,0,1-.1-3.16,9.25,9.25,0,0,1,.41-1.56,10.7,10.7,0,0,0-4.19-.77,13.65,13.65,0,0,0-4.63,1A21.35,21.35,0,0,0,344.94,391.65Z"/>
      <path class="h" d="M367.35,379.7a13.21,13.21,0,0,0-7,7.92,13.59,13.59,0,0,0-.64,3.36,13.78,13.78,0,0,0,.54,4.7c.13.42.27.84.44,1.26s.2.48.28.64a3.36,3.36,0,0,0,1.19,1.22,11.74,11.74,0,0,1,1-7.21,12.45,12.45,0,0,1,6.12-5.58,16.45,16.45,0,0,1,10.05-1.37,12.19,12.19,0,0,1,2.38-2.79A13.29,13.29,0,0,0,367.35,379.7Z"/>
      <path class="g" d="M382.17,382.54c-.18.08-.35.18-.53.27a17.32,17.32,0,0,0-1.91,1.25,11,11,0,0,0-4,5.41,8.58,8.58,0,0,0,.2,4.68c.31-.69,2.88-6.31,8.62-7.53a9.73,9.73,0,0,1,7.18.91,8.65,8.65,0,0,1,2.9,3.08,9.27,9.27,0,0,1,.8,6.61,10.22,10.22,0,0,0,1.76-3.41c.15-.57.23-1.11.25-1.21a9.93,9.93,0,0,0,.07-2.18,9.65,9.65,0,0,0-.85-3.28,9.32,9.32,0,0,0-.81-1.37,9.49,9.49,0,0,0-1.37-1.59A11.23,11.23,0,0,0,382.17,382.54Z"/>
      <path class="i" d="M396.73,383.79a6.45,6.45,0,0,0-.58.31l.46.74c.25.4.49.8.72,1.19a5.89,5.89,0,0,1,3.58,1,6,6,0,0,1,2.44,3.47,13.61,13.61,0,0,1,3,.14,14.19,14.19,0,0,1,2.25.56,12.75,12.75,0,0,0-.72-2C405.62,384.36,400.64,382,396.73,383.79Z"/>
      <path class="g" d="M436.08,398.9a7.64,7.64,0,0,0-4.55-1.87,9.8,9.8,0,0,0-4.31.46,10.05,10.05,0,0,0-2.69,1.46,10.2,10.2,0,0,0-1.75,1.69c-.6.58-.93.62-1.13.55-.6-.23-.07-1.68-.91-3.18a5.35,5.35,0,0,0-1.95-1.85,6.1,6.1,0,0,0-2.53-1.06,18.3,18.3,0,0,0-2.92.12c-1.22.1-1.41.15-1.79,0-.75-.23-1-.7-1.83-1.46a12,12,0,0,0-2.1-1.41,8.35,8.35,0,0,0-4-.81c-3.79.25-6,3.56-6.27,3.95l-.49,2.51a10.12,10.12,0,0,1,.81-.81,10,10,0,0,1,4-2.27,6.87,6.87,0,0,1,2.93-.29,6.52,6.52,0,0,1,2.65,1A6.35,6.35,0,0,1,409,397.3a4.64,4.64,0,0,0,2,.93c1.66.29,2.2-.67,3.86-.48a5,5,0,0,1,3.43,2.06,8,8,0,0,1,.75,1.41,8.41,8.41,0,0,0,.51,1.33,3.38,3.38,0,0,0,.9,1c1.15.69,2.69-.06,2.95-.18.86-.42.58-.64,1.77-1.34a7.52,7.52,0,0,1,2.42-.92l.47-.08a6.58,6.58,0,0,1,4.29.92,6,6,0,0,1,2.77,3.89c.19,1.55-.64,2.25-.11,3,.7,1,2.34.2,3.61,1.38a3.45,3.45,0,0,1,1,2.41c0,1.83-1.9,3.7-4.67,4.17a3.79,3.79,0,0,0,.86,1,3.84,3.84,0,0,0,1.63.8,6.18,6.18,0,0,0,3.48-1.38,5.58,5.58,0,0,0,2-3.16,5.48,5.48,0,0,0-.23-2.85,6.27,6.27,0,0,0-2.17-3,6.77,6.77,0,0,0-1.65-.9,1.86,1.86,0,0,1-.59-.9,3.12,3.12,0,0,1,.21-1.63,4.67,4.67,0,0,0-.36-2.42A7.66,7.66,0,0,0,436.08,398.9Z"/>
      <path class="a" d="M337.33,431c0-5.75,3.95-9.53,5.16-10.7,5.47-5.3,12.56-5.11,14-5a21.34,21.34,0,0,1,3.15-8.06,21.9,21.9,0,0,1,7.49-7,19.73,19.73,0,0,1,11.31-2.71c1.94.17,4.26.69,4.25,1.16,0,.24-1.14.52-3.41,1.08-3.33.83-3.75.93-4.3,1.09a22.27,22.27,0,0,0-4.65,1.79,18.17,18.17,0,0,0-5,4,19.31,19.31,0,0,0-3.35,5.55c-.38,1-1.12,3.07-1.39,3.81a13.75,13.75,0,0,1-.85,2.34c-1.27,1.82-3.87.94-7.63,1.82a15.25,15.25,0,0,0-7.07,3.71,14.33,14.33,0,0,0-3.89,7,19.49,19.49,0,0,0-.36,6c.18,2.5.68,3.69.46,3.77C340.8,440.8,337.3,436.5,337.33,431Z"/>
      <path class="a" d="M395.67,407.22a7.94,7.94,0,0,0-3.9,8.52,5.33,5.33,0,0,0,.62,2.56,5.55,5.55,0,0,0,1.67,1.92,10.55,10.55,0,0,1,.38-4.19,9.58,9.58,0,0,1,4.27-5.67,10,10,0,0,1,5.23-1.06,13.4,13.4,0,0,1,3.93.64,9.2,9.2,0,0,1,2.84,1.34,8.1,8.1,0,0,1,2.49,3,2.73,2.73,0,0,0,.79-1.13,3.76,3.76,0,0,0-.17-2.19,7.18,7.18,0,0,0-1.08-2.78,5.64,5.64,0,0,0-1.87-1.58,14.55,14.55,0,0,0-5.52-1.78A15.44,15.44,0,0,0,395.67,407.22Z"/>
      <path class="a" d="M370.06,430.68c.33.22.92-.07,1.43-.41a9.7,9.7,0,0,1,2.36-4.94c3.54-3.87,9-3.06,9.5-3a8,8,0,0,0-3.08-1.25,9.07,9.07,0,0,0-8.15,3.13C370.08,426.61,369.26,430.14,370.06,430.68Z"/>
      <path class="a" d="M381.23,420.83a9.63,9.63,0,0,1,3.29,1.36.64.64,0,0,0,.17-.32,1.06,1.06,0,0,0-.26-.83,2.88,2.88,0,0,0-1.06-.9c-.9-.49-1.59-.44-1.61-.7s.46-.34.43-.45-2.11.14-3.23,1c-.1.07-.2.16-.19.26C378.81,420.58,380.12,420.61,381.23,420.83Z"/>
      <path class="a" d="M379,419.79l1.17,1.09a7.2,7.2,0,0,1,4.22-2.68,7.45,7.45,0,0,1,7.13,2.82c.26,0,.95,0,1-.35s-.19-.47-.35-.64c-.93-.95-.69-1.17-1.55-2.08a7.35,7.35,0,0,0-3.26-2.18,7,7,0,0,0-4.92.49A7.47,7.47,0,0,0,379,419.79Z"/>
      <path class="a" d="M406.35,456.65c.38-.59,0-1.32-.21-2.63a15,15,0,0,1-.23-4.08,3.57,3.57,0,0,0-.7.46,3.33,3.33,0,0,0-.67.76c-.85,1.25-.8,2.5-1.41,2.69s-1.06-.18-2.5-1.55c-2.45-2.32-5.12,1.35-6.08,4.57s-4.32,1.32-6-3.44-9.51-8.05-13.69-6.45-10.12,12.35-9.84,17.07-4.6,4.22-8.2,5.9-7.32-4.56-7.93-8.78,4.27-7.88,9-10.09c6.56-3.05,2.67-5.83,6.48-9.6,5.63-5.58,14.48-9.09,17.43-9.74a4.13,4.13,0,0,0,1.1-.38c2-1,2.86-3.54,3.23-5.95-.65.29-1.31.59-2,.9l-2.23,1.05-.09.05-2.23,1c-5,2.33-9.75,4.8-14.14,7.35-14.87,8.65-23.15,18.29-24.88,22.34a7.13,7.13,0,0,0-.73,3.14c.75,2.45,1.66,5,2.76,7.71a89.81,89.81,0,0,0,9,16.64A23.07,23.07,0,0,1,362.3,472c4.59-2.53,6.42-1.21,7.88-3.4,1.93-2.89-.85-5.75,1.25-9.82a10.09,10.09,0,0,1,4.57-4.24c.54-.27,5.29-2.71,8.59-.63,2,1.22,3.33,4,3.88,5.89a7.82,7.82,0,0,0,2,3.8,2.86,2.86,0,0,0,1.18.6,3,3,0,0,0,1.89-.31c1.52-.75,1.35-2.36,2.83-4.62.65-1,2-3.12,4.06-3.23a4.28,4.28,0,0,1,3,1.3C404.52,457.45,405.86,457.42,406.35,456.65Z"/>
      <path class="c" d="M428.4,609.18a75.78,75.78,0,0,0,9.29,0A67.45,67.45,0,0,0,460,604.4a68.58,68.58,0,0,0,17.93-10.95,70.33,70.33,0,0,0,12.93-14.34c1.47,1.57,2.64,2.93,3.49,4a20.73,20.73,0,0,1,2.24,3A14.46,14.46,0,0,1,498,589.8a25.64,25.64,0,0,1-2.37,8.06c-2.57,5.26-6.28,8.14-10.82,11.59a77.23,77.23,0,0,1-15.83,9c-8.17,3.76-13.11,4.85-14.51,5.13a50.55,50.55,0,0,1-9.2,1,26.61,26.61,0,0,1-7.06-.52,23.07,23.07,0,0,1-5.8-2.2,30.39,30.39,0,0,1-3.16-7.66A31,31,0,0,1,428.4,609.18Z"/>
      <g>
        <path d="M347.64,482.27c.62,1.16,1.21,2.35,1.92,3.45a3.16,3.16,0,0,0,1.72,1.58c1.94.48,2.8-1.71,3.37-3.1,2-4.85,5.13-9.4,10.27-11.21,2.59-.92,5.31-.87,7.08-3.33a5.69,5.69,0,0,0,1.05-3.68c-.07-1.47-.64-2.93-.36-4.41.71-3.77,6.16-7,9.84-6.28,2.58.52,3.74,3.46,4,5.77a5.26,5.26,0,0,0,4.51,4.66,6.12,6.12,0,0,0,6.25-2.74,9.09,9.09,0,0,0,1-3.14,4.26,4.26,0,0,1,.64-1.73c.5-.64.89-.41,1.49,0,1.16.7,2.22,1.53,3.64,1.47a4.8,4.8,0,0,0,3.54-2.24,5,5,0,0,0,.93-3.14,20.53,20.53,0,0,1-.24-3.5c.23-2.32,1.35-4.44,3.84-4.81a6.36,6.36,0,0,1,3,.55,13.83,13.83,0,0,1,2.4,1.62c1.78,1.31,4.22,2.71,6.51,2a5.25,5.25,0,0,0,2.61-2.22,10.58,10.58,0,0,1,2.27-2.31,8,8,0,0,1,4.64-1.78c1.39,0,2.74.37,4.13.33a12.24,12.24,0,0,0,8.24-3.83,1.46,1.46,0,0,0,.39-1.46,126.42,126.42,0,0,0-7.41-17.21,20.09,20.09,0,0,0-4.41-6,15,15,0,0,0-8-3.1c-6.6-.8-12.87.41-19.22,2.18a139.55,139.55,0,0,0-14.68,5.15,227.23,227.23,0,0,0-28,13.47,97.07,97.07,0,0,0-12.19,8.17c-4,3.2-8,6.64-11,10.89a16.76,16.76,0,0,0-3,7.7c-.37,3.16.85,5.87,2.15,8.68,2.14,4.63,4.7,9.12,7.1,13.62.91,1.71,3.5.19,2.59-1.51-1.9-3.57-3.81-7.15-5.67-10.75-1.19-2.29-2.63-4.77-3.13-7.33a10.46,10.46,0,0,1,.93-6.05c2-4.52,6.1-8,9.79-11.16a87.66,87.66,0,0,1,10.59-7.65,197.31,197.31,0,0,1,25.58-13.06c4.75-2.05,9.56-4,14.47-5.65,5.61-1.87,11.63-3.75,17.57-4a25.77,25.77,0,0,1,9.21,1c2.73.94,4.46,2.94,5.88,5.36,3.36,5.7,5.7,11.89,8,18.07l.39-1.46A9,9,0,0,1,437,441c-1.19-.06-2.37-.34-3.56-.32A10,10,0,0,0,429,441.9a15.69,15.69,0,0,0-5.08,4.58c-.95,1.21-2.17.63-3.46-.12-1.95-1.15-3.45-2.72-5.73-3.28a7.52,7.52,0,0,0-6.78,1.51,9,9,0,0,0-2.65,6.29,21.13,21.13,0,0,0,.26,3.28c.07.88-.55,2.26-1.54,2.38s-2.37-1.39-3.35-1.69a3.57,3.57,0,0,0-3.62.89,6.54,6.54,0,0,0-1.62,3.31c-.26,1.18-.31,2.29-1.34,3.12-1.41,1.13-4.09.83-4.53-1.15a22.91,22.91,0,0,0-.66-3.15,10,10,0,0,0-2.47-3.77c-3.56-3.33-9-1.72-12.5.9a11,11,0,0,0-3.91,5,8.22,8.22,0,0,0-.27,3.91c.17,1.23.63,2.6,0,3.76s-2,1.56-3.3,1.8a17.5,17.5,0,0,0-4.29,1.45,18.92,18.92,0,0,0-6.51,5.34,33.53,33.53,0,0,0-4,7.46c-.1.24-.37.8-.38.79l-.1.09a.93.93,0,0,1,1.16-.09c.18-.06.1.12.08,0-.05-.37-.59-.95-.79-1.3-.47-.82-.91-1.66-1.36-2.49C349.32,479.05,346.73,480.57,347.64,482.27Z"/>
        <g>
          <path class="j" d="M374.21,430.59c2.31-1.19,4.28-2.18,5.5-2.79l2.07-1c4.12-2,6.68-3.26,10.08-4.7,2.12-.9,5.66-2.38,10.44-3.91a104.44,104.44,0,0,1,13.2-3.27,37.35,37.35,0,0,1,7.82-.76,19.24,19.24,0,0,1,6.18,1,16.57,16.57,0,0,1,3.11,1.43,14.2,14.2,0,0,1,2.22,1.53c1.25,1.11,1.93,2.36,3.11,4.63a60.78,60.78,0,0,1,2.58,5.53c1.71,3.67,2.92,7.44,4.72,11.52l1.45,3.51c.89,2.14,3.3,7.95,5.73,14,2.66,6.59,4.66,11.58,6.32,16.14s3,8.67,4.25,13.52c.38,1.45.71,2.77,1,4.11.77,3.32,1.24,5.89,1.49,7.33,3.23,18.06,3.45,19.41,3.73,21.21,1.2,7.74,1,7.82,1.91,12.57,0,0,.9,5,2.71,13.14.07.28.18.79.34,1.46.33,1.3.74,2.78,1.26,4.39a61.35,61.35,0,0,0,2.95,7.4,62.68,62.68,0,0,0,3.67,6.69c1.23,2,2.44,3.71,3.56,5.32l.61.88,1,1.48,1.3,1.88c.59.85,1.21,1.74,1.5,2.17l2.21,3.19c1.14,1.57,2.45,3.18,3.83,4.88a9.23,9.23,0,0,1,1.72,2.89,8.13,8.13,0,0,1,.38,1.63,8.86,8.86,0,0,1,0,2.08,14.24,14.24,0,0,1-1.06,4.07,23.66,23.66,0,0,1-2.84,5,22.7,22.7,0,0,1-1.79,2.14,40.41,40.41,0,0,1-5.46,5.06c-2,1.58-4.15,3-6.1,4.29s-3.74,2.29-5.07,3-2.21,1.2-2.35,1.28l-1.13.57c-6,2.95-8,3.77-8,3.77a55.5,55.5,0,0,1-9.74,3,52.47,52.47,0,0,1-8.57,1.08c-1.55,0-2.64,0-4.42-.12a31.28,31.28,0,0,1-6.27-.92,6.85,6.85,0,0,1-1.51-.58,7.4,7.4,0,0,1-2.17-1.74,11.08,11.08,0,0,1-2.2-4.73c-1-4.41-1.57-7.72-2-9.6-.69-2.91-1.37-5.5-2-7.75-.44-1.58-1.35-4.69-2.55-8.1a67.28,67.28,0,0,0-4.2-9.89c-.62-1.13-1.23-2.13-1.78-3s-1.06-1.62-1.47-2.22c-.25-.38-.59-.9-1-1.51s-.92-1.34-1.49-2.12c-.9-1.23-2.09-2.79-3.82-4.82s-4-4.54-7.07-7.68L400,558c-.53-.54-2.84-2.89-5.78-6.11-2-2.18-8.37-9.16-14.2-16.71-2.32-3-4.31-5.79-4.61-6.21-.78-1.1-1.59-2.25-2.42-3.48-1.24-1.84-2.18-3.31-2.64-4-1.83-2.9-3.16-5.26-3.83-6.45-5.77-10.31-9.31-17.33-9.31-17.33S346.4,476.27,344.46,473l-.12-.2c-.29-.49-.94-1.62-1.7-3.16-.13-.26-.26-.52-.4-.82a44.88,44.88,0,0,1-2.09-5.36,7.67,7.67,0,0,1-.33-1.28,6.8,6.8,0,0,1,.37-3.31,17.91,17.91,0,0,1,1.25-3.17,19.75,19.75,0,0,1,2-3.1,36.26,36.26,0,0,1,3.62-3.93c1.16-1.17,2.06-2.07,3.4-3.23s2.16-1.75,3.58-2.84c0,0,1.94-1.46,3.67-2.66C362,436.94,367.31,434.17,374.21,430.59Z"/>
          <g>
            <path d="M436.57,420.89a8,8,0,0,0,8.6-6.45,8.53,8.53,0,0,0-6-9.4l1.05,1.85a9.61,9.61,0,0,0-1.22-7.95,10.27,10.27,0,0,0-6.49-4,11.92,11.92,0,0,0-11.82,4.77l2.79.76a8.69,8.69,0,0,0-12.06-7.19l1.69.69a10.73,10.73,0,0,0-4.15-3.52l.69,1.69a9.26,9.26,0,0,0-4.38-9.81c-3.3-1.87-7.51-1.61-10.89-.12l1.82.23a12.86,12.86,0,0,0-14.73-2l1.82.23c-3.58-4.12-9.79-4.53-14.71-2.89a17.44,17.44,0,0,0-10.32,9.24l1.7-.69c-5.38-1.7-10.67-.4-15.2,2.75a18,18,0,0,0-8,13.47l1.1-1.45a12.82,12.82,0,0,0-9,8.61,12.63,12.63,0,0,0,1.81,10.5l.53-2.06c-4.27,2.43-7.85,6.66-8.51,11.64a13,13,0,0,0,4.19,11.43l-.23-1.82c-1.8,2.44-3,5.11-2.39,8.2a11.92,11.92,0,0,0,3.45,5.91v-2.12a9.83,9.83,0,0,0-2.77,11.16c1.6,3.7,5.84,6.55,9.93,6.07a8.32,8.32,0,0,0,6-3.94,3.49,3.49,0,0,0,.57-2.42,13,13,0,0,1,.39-4.25c1.14-4.26,4.62-7.41,7.75-10.26a87.4,87.4,0,0,1,12.33-9.42,154.23,154.23,0,0,1,14.34-7.7c9.5-4.71,19.29-9.26,29.42-12.45,5.61-1.77,11.67-3.25,17.59-3.09a19.72,19.72,0,0,1,6.65,1.12,10.29,10.29,0,0,1,3.75,2.71,5.5,5.5,0,0,0,2.89,1.93c1.88.42,2.68-2.47.8-2.89-.86-.19-1.29-.89-1.88-1.5a12.48,12.48,0,0,0-3.68-2.68,21.14,21.14,0,0,0-7.16-1.61c-4.35-.41-8.88.41-13.11,1.34-9.78,2.13-19.06,6.26-28.12,10.4-9.81,4.49-19.79,9.15-28.5,15.57a82,82,0,0,0-11.16,9.73c-3,3.24-5.21,7.18-5.33,11.7,0,.41-.17,1.56.08,1.93-.1-.15.37-.64.07-.16-.1.16-.18.33-.28.49a5.54,5.54,0,0,1-2.62,2.21c-2.06.79-4.55-.21-5.92-1.34a6.74,6.74,0,0,1,.06-10.53,1.51,1.51,0,0,0,0-2.12,9.19,9.19,0,0,1-2.6-4.24c-.58-2.39.65-4.39,2-6.24a1.5,1.5,0,0,0-.23-1.81,10.08,10.08,0,0,1-3.36-8.91c.53-4.08,3.6-7.48,7.07-9.45a1.51,1.51,0,0,0,.54-2,9.32,9.32,0,0,1,5.43-14.7,1.55,1.55,0,0,0,1.1-1.44c.76-9.06,10.57-16.1,19.35-13.33a1.5,1.5,0,0,0,1.69-.69,14.53,14.53,0,0,1,8.24-7.75c4-1.43,9.1-1.42,12.08,2a1.51,1.51,0,0,0,1.81.24,9.77,9.77,0,0,1,11.1,1.51,1.57,1.57,0,0,0,1.82.24,9.39,9.39,0,0,1,7.51-.07,6.17,6.17,0,0,1,3.35,6.62,1.53,1.53,0,0,0,.69,1.69,7.88,7.88,0,0,1,3.07,2.44,1.53,1.53,0,0,0,1.7.69,6.3,6.3,0,0,1,5.32.11,5.59,5.59,0,0,1,2.44,2.62,7.43,7.43,0,0,1,.37,1c0,.18.21,1.08.13.54a1.52,1.52,0,0,0,2.8.76c.14-.2-.16.2,0,0l.19-.23c.2-.22.39-.44.59-.64a9.25,9.25,0,0,1,1.83-1.46,8.44,8.44,0,0,1,5.54-1.14c4.21.58,7,4,5.92,8.29a1.53,1.53,0,0,0,1.05,1.85,5.52,5.52,0,0,1,3.93,5.7c-.27,2.12-2.59,4.68-4.91,4.36a1.56,1.56,0,0,0-1.85,1.05A1.51,1.51,0,0,0,436.57,420.89Z"/>
            <path d="M408.79,391.12c-4.48-2.72-10.21-.51-12.88,3.68-.77,1.23,1.17,2.36,1.95,1.14.15-.24.31-.47.48-.7-.13.17.1-.12.1-.12l.2-.23c.15-.17.3-.33.46-.48a7.84,7.84,0,0,1,2.57-1.68,6.64,6.64,0,0,1,6,.33,1.13,1.13,0,0,0,1.14-1.94Z"/>
            <path d="M382.6,397a21.73,21.73,0,0,0-15.54,1.9,24.33,24.33,0,0,0-10.27,11.21,17,17,0,0,0-1,2.43,4.45,4.45,0,0,1-.19.82c-.32.62.33.08-.37.33a3.6,3.6,0,0,1-1.13,0,14.78,14.78,0,0,0-7.37,1.88,22,22,0,0,0-9.44,10.32,14.6,14.6,0,0,0,2.3,15.7c.95,1.1,2.53-.5,1.59-1.59a12.27,12.27,0,0,1-1.89-13.1,19.61,19.61,0,0,1,9-9.6,15.12,15.12,0,0,1,2.66-1,14.85,14.85,0,0,1,4.1-.29,2.66,2.66,0,0,0,2.4-1,7.66,7.66,0,0,0,.56-2,21.68,21.68,0,0,1,7.79-10.62A19.51,19.51,0,0,1,382,399.16a1.13,1.13,0,0,0,.59-2.17Z"/>
            <path d="M397.36,397.65c1.12-3.42,2.13-7.64.72-11.13a11,11,0,0,0-6.6-6.15c-6-2.27-13.26,1.11-16.19,6.6a10.27,10.27,0,0,0,.63,11c.85,1.16,2.8,0,1.94-1.13-3.65-5-.61-11,4.36-13.56a10.4,10.4,0,0,1,7.39-1.18,9.18,9.18,0,0,1,6,4.43,7.84,7.84,0,0,1,.84,2.54c-.05-.3,0,.28,0,.34,0,.3,0,.6,0,.89a24.4,24.4,0,0,1-1.3,6.72c-.46,1.38,1.72,2,2.17.6Z"/>
            <path d="M364.35,400.92a13.78,13.78,0,0,1-3.8-6.87c-.07-.31-.11-.63-.18-.94s0,.24,0,.09a5.05,5.05,0,0,0-.07-1,12.38,12.38,0,0,1,.52-3.87,1.13,1.13,0,0,0-2.17-.6,14.92,14.92,0,0,0,4.09,14.8c1,1,2.63-.58,1.59-1.59Z"/>
            <path d="M354.38,414.69a13.17,13.17,0,0,0-3.82-10.07c-3.37-3.31-8.4-4.07-12.83-2.77a1.13,1.13,0,0,0,.6,2.17c3.73-1.1,8-.53,10.78,2.33a11,11,0,0,1,3,8.34c-.1,1.45,2.15,1.44,2.25,0Z"/>
            <path d="M339.17,418.13a9.55,9.55,0,0,0-8.1.87,1.13,1.13,0,0,0,1.14,1.94,7.81,7.81,0,0,1,3.44-1.09,7.94,7.94,0,0,1,1.29,0H337l.24,0c.17,0,.34.07.5.12a6.94,6.94,0,0,1,.81.25,1.12,1.12,0,0,0,1.38-.78,1.16,1.16,0,0,0-.78-1.39Z"/>
            <path d="M337.8,435a11.93,11.93,0,0,0-11.09,5.45c-.79,1.22,1.16,2.35,1.94,1.13l.23-.34.12-.18.09-.12a11.15,11.15,0,0,1,.74-.84,9.6,9.6,0,0,1,8-2.85,1.13,1.13,0,0,0,0-2.25Z"/>
            <path class="k" d="M414.1,414.53a8.22,8.22,0,0,0-.64-5.38c-2.65-5.11-10.5-4.63-11.36-4.56a12.6,12.6,0,0,0-6.35,2.15,9.89,9.89,0,0,0-3.66,4.09c-1.4,3.14-.38,7,.65,8.76,0,0,.31.52.25.56s-1.64-3-4.46-4.33a7.42,7.42,0,0,0-10.07,4.7"/>
            <path class="l" d="M369.86,431.89a8.29,8.29,0,0,1,2.65-8.54,10.62,10.62,0,0,1,7.62-2.64,9.64,9.64,0,0,1,3.93,1.29"/>
          </g>
        </g>
      </g>
      <g>
        <path class="m" d="M470.68,564.5a2.33,2.33,0,1,0,3.47.9A2.55,2.55,0,0,0,470.68,564.5Z"/>
        <path d="M470.08,563.21a3.73,3.73,0,1,0,5.35,1.59A4,4,0,0,0,470.08,563.21Zm2.53,5.43a2.33,2.33,0,1,1,1.54-3.24A2.56,2.56,0,0,1,472.61,568.64Z"/>
        <path d="M423.91,458.79c-1,.49-1.55,1.35-1.22,2s1.31.86,2.35.38,1.54-1.34,1.22-2S424.94,458.31,423.91,458.79Z"/>
        <path class="m" d="M433.94,467.4a1,1,0,0,0,.64.55,1,1,0,0,0,0-.84,1.06,1.06,0,0,0-.64-.56A1,1,0,0,0,433.94,467.4Z"/>
        <path d="M433.3,465.37a1.85,1.85,0,1,0,2.13,1A1.67,1.67,0,0,0,433.3,465.37Zm.91,1.95a.63.63,0,0,1-.21-.27.6.6,0,0,1-.07-.34.81.81,0,0,1,.21.27A.6.6,0,0,1,434.21,467.32Z"/>
        <g>
          <path class="m" d="M444.57,473.47a1.18,1.18,0,1,0,1.57.57A1.18,1.18,0,0,0,444.57,473.47Z"/>
          <path d="M444,472.18a2.6,2.6,0,1,0,3.45,1.26A2.61,2.61,0,0,0,444,472.18Zm1.6,3.43a1.18,1.18,0,1,1,.57-1.57A1.18,1.18,0,0,1,445.57,475.61Z"/>
        </g>
        <g>
          <path class="m" d="M435.64,491.65A3.13,3.13,0,1,0,437,487.2,3.29,3.29,0,0,0,435.64,491.65Z"/>
          <path d="M440.48,494.49c1.93-.9,2.62-3.52,1.54-5.84s-3.54-3.48-5.47-2.58-2.62,3.52-1.54,5.85S438.55,495.39,440.48,494.49Zm.39-5.31c.75,1.62.31,3.42-1,4s-3-.22-3.72-1.83-.31-3.42,1-4S440.12,487.57,440.87,489.18Z"/>
        </g>
        <path class="m" d="M447.54,501.14a.6.6,0,0,0,.34-.07.63.63,0,0,0,.27-.22.73.73,0,0,0-.33.08A.67.67,0,0,0,447.54,501.14Z"/>
        <path d="M447.22,499.64a1.52,1.52,0,1,0,2.27.59A1.65,1.65,0,0,0,447.22,499.64Zm.66,1.43a.6.6,0,0,1-.34.07.67.67,0,0,1,.28-.21.73.73,0,0,1,.33-.08A.63.63,0,0,1,447.88,501.07Z"/>
        <path class="m" d="M455.58,513.23a2.59,2.59,0,1,0-1.22,3.5A2.76,2.76,0,0,0,455.58,513.23Z"/>
        <path class="m" d="M450.27,531.53c-.5.24-.79.73-.63,1.08s.73.44,1.23.21.79-.73.63-1.08S450.77,531.3,450.27,531.53Z"/>
        <path d="M452.78,531.14a2.46,2.46,0,1,0-1.31,3A2.3,2.3,0,0,0,452.78,531.14Zm-1.91,1.68c-.5.23-1.07.14-1.23-.21s.13-.84.63-1.08,1.07-.14,1.23.21S451.37,532.58,450.87,532.82Z"/>
        <path class="m" d="M460.78,541.4a.39.39,0,1,0-.52-.19A.39.39,0,0,0,460.78,541.4Z"/>
        <path d="M459,541.81a1.81,1.81,0,1,0,.88-2.41A1.82,1.82,0,0,0,459,541.81Zm1.48-1.12a.39.39,0,1,1-.19.52A.39.39,0,0,1,460.45,540.69Z"/>
        <path class="m" d="M457.7,557.53c-.2.09-.33.59-.07,1.16s.73.79.94.69.33-.59.06-1.16S457.9,557.43,457.7,557.53Z"/>
        <path d="M457.1,556.24a2.5,2.5,0,1,0,2.82,1.38A2.23,2.23,0,0,0,457.1,556.24Zm1.47,3.14c-.21.1-.67-.12-.94-.69s-.13-1.07.07-1.16.67.13.93.69S458.77,559.29,458.57,559.38Z"/>
        <path class="m" d="M441.3,455a1.24,1.24,0,1,0,1,2.14,1.24,1.24,0,1,0-1-2.14Z"/>
        <path d="M444.16,455.14a2.46,2.46,0,1,0-1.31,3A2.3,2.3,0,0,0,444.16,455.14Zm-1.91,1.67a.92.92,0,0,1-1.23-.21c-.16-.34.13-.84.63-1.07s1.07-.14,1.23.21S442.75,456.58,442.25,456.81Z"/>
        <path d="M450.17,515.78c.93,2,3,3,4.58,2.26s2.14-3,1.22-5-3-3-4.59-2.26S449.24,513.79,450.17,515.78Zm4.69-2.18c.61,1.31.31,2.76-.68,3.22s-2.29-.24-2.9-1.55-.31-2.76.68-3.22S454.24,512.28,454.86,513.6Z"/>
      </g>
      <path class="j" d="M491.19,578.53a66.69,66.69,0,0,1-62.91,30"/>
    </g>
  </g>
</svg>
